<svg xmlns="http://www.w3.org/2000/svg" viewBox="0 0 501 178.45"><defs><style>.cls-1{fill:#00aa94;}.cls-2{fill:gray;}.cls-2,.cls-5{stroke:gray;}.cls-2,.cls-4,.cls-5{stroke-miterlimit:10;}.cls-3{font-size:14px;fill:#999;font-family:NanumGothicBold, Nanum Gothic;}.cls-4{fill:none;stroke:#000;}.cls-5{fill:#ccc;}</style></defs><g id="레이어_2" data-name="레이어 2"><g id="레이어_1-2" data-name="레이어 1"><rect class="cls-1" x="-0.46" y="5.46" width="123.5" height="122.58" rx="7.4" transform="translate(-5.46 128.04) rotate(-90)"/><polygon class="cls-2" points="369.12 95.25 369.53 79.02 379.1 87.82 369.12 95.25"/><rect class="cls-1" x="52" y="97" width="20" height="102" rx="1.27" transform="translate(-86 210) rotate(-90)"/><rect class="cls-1" x="49.5" y="114.5" width="25" height="44" rx="0.93" transform="translate(-74.5 198.5) rotate(-90)"/><line class="cls-2" x1="140.5" y1="87.5" x2="374" y2="87.5"/><text class="cls-3" transform="translate(392.9 175.55)">domain-b.com</text><text class="cls-3" transform="translate(180.9 113.55)">Cross-Origin Request<tspan x="0" y="16.8">(controlled by CORS)</tspan></text><text class="cls-3" transform="translate(14.9 174.55)">domain-a.com</text><rect class="cls-1" x="426.5" y="81.5" width="20" height="129" rx="1.42" transform="translate(290.5 582.5) rotate(-90)"/><rect class="cls-1" x="364" y="29" width="144" height="86" rx="3.12" transform="translate(364 508) rotate(-90)"/><line class="cls-4" x1="407" y1="102.5" x2="465" y2="102.5"/><line class="cls-4" x1="407" y1="88.5" x2="465" y2="88.5"/><line class="cls-4" x1="407" y1="74.5" x2="465" y2="74.5"/><line class="cls-4" x1="407" y1="61.5" x2="465" y2="61.5"/><line class="cls-4" x1="407" y1="47.5" x2="465" y2="47.5"/><line class="cls-4" x1="407" y1="33.5" x2="465" y2="33.5"/><rect class="cls-5" x="12" y="17" width="100" height="100" rx="7.4" transform="translate(-5 129) rotate(-90)"/><text class="cls-3" transform="translate(135.45 79.25)">GET image.png</text></g></g></svg>