<svg xmlns="http://www.w3.org/2000/svg" viewBox="0 0 481.28 227.34"><defs><style>.cls-1{fill:#ccc;}.cls-1,.cls-10{opacity:0.8;}.cls-2{opacity:0.5;}.cls-3{fill:#666;}.cls-4{fill:#29abe2;}.cls-5{fill:#999;}.cls-6{fill:#0071bc;}.cls-7,.cls-9{fill:none;stroke-miterlimit:10;stroke-width:2px;}.cls-7{stroke:#0071bc;}.cls-8{fill:gray;}.cls-9{stroke:gray;}.cls-10{fill:#00aa94;}</style></defs><g id="레이어_2" data-name="레이어 2"><g id="레이어_1-2" data-name="레이어 1"><rect class="cls-1" x="194.92" y="-57.04" width="76" height="352.74" rx="4.54" transform="translate(111.97 350.44) rotate(-90)"/><g class="cls-2"><path class="cls-3" d="M420.21,213.61a1,1,0,0,1,2,0,1,1,0,0,1-2,0Zm.27,2.76H422v8.75h-1.48Z" transform="translate(-1.62 -1.81)"/><path class="cls-3" d="M424.9,216.37h1.23l.12,1.26h.05a4.21,4.21,0,0,1,2.94-1.48c1.84,0,2.67,1.19,2.67,3.43v5.54h-1.48v-5.35c0-1.63-.49-2.33-1.65-2.33a3.31,3.31,0,0,0-2.39,1.34v6.34H424.9Z" transform="translate(-1.62 -1.81)"/><path class="cls-3" d="M434.09,226.8a2.45,2.45,0,0,1,1.28-2v-.07a1.61,1.61,0,0,1-.78-1.43,2.11,2.11,0,0,1,1-1.63v-.07a3,3,0,0,1-1.13-2.35,3.11,3.11,0,0,1,3.28-3.12,3.62,3.62,0,0,1,1.24.22H442v1.14h-1.8a2.5,2.5,0,0,1,.72,1.8,3,3,0,0,1-3.21,3,3.12,3.12,0,0,1-1.3-.29,1.26,1.26,0,0,0-.56,1c0,.56.36.95,1.53.95h1.71c2,0,3.05.64,3.05,2.09,0,1.63-1.72,3-4.42,3C435.57,229.15,434.09,228.31,434.09,226.8Zm6.59-.46c0-.81-.61-1.08-1.76-1.08h-1.51a5.32,5.32,0,0,1-1.14-.13,1.82,1.82,0,0,0-.89,1.46c0,.94.95,1.54,2.54,1.54S440.68,227.26,440.68,226.34Zm-1.12-7.07a1.87,1.87,0,1,0-3.72,0,1.87,1.87,0,1,0,3.72,0Z" transform="translate(-1.62 -1.81)"/><path class="cls-3" d="M443.16,226.8a2.48,2.48,0,0,1,1.28-2v-.07a1.63,1.63,0,0,1-.78-1.43,2.11,2.11,0,0,1,1-1.63v-.07a3,3,0,0,1-1.13-2.35,3.11,3.11,0,0,1,3.28-3.12,3.62,3.62,0,0,1,1.24.22h3.05v1.14h-1.8a2.5,2.5,0,0,1,.72,1.8,3,3,0,0,1-3.21,3,3.15,3.15,0,0,1-1.3-.29,1.26,1.26,0,0,0-.56,1c0,.56.36.95,1.54.95h1.7c2,0,3.06.64,3.06,2.09,0,1.63-1.73,3-4.43,3C444.64,229.15,443.16,228.31,443.16,226.8Zm6.59-.46c0-.81-.61-1.08-1.76-1.08h-1.51a5.32,5.32,0,0,1-1.14-.13,1.82,1.82,0,0,0-.89,1.46c0,.94.95,1.54,2.54,1.54S449.75,227.26,449.75,226.34Zm-1.12-7.07a1.87,1.87,0,1,0-3.72,0,1.87,1.87,0,1,0,3.72,0Z" transform="translate(-1.62 -1.81)"/><path class="cls-3" d="M452.59,224.22a1.07,1.07,0,1,1,1.07,1.12A1.09,1.09,0,0,1,452.59,224.22Z" transform="translate(-1.62 -1.81)"/><path class="cls-3" d="M456.55,220.76c0-2.84,1.8-4.61,3.79-4.61a3.57,3.57,0,0,1,2.45,1l-.06-1.5v-3.38h1.48v12.83H463l-.13-1h-.05a3.87,3.87,0,0,1-2.65,1.25C458,225.34,456.55,223.67,456.55,220.76Zm6.18,2.14v-4.59a3.07,3.07,0,0,0-2.13-.91c-1.4,0-2.52,1.35-2.52,3.34s.87,3.35,2.41,3.35A3,3,0,0,0,462.73,222.9Z" transform="translate(-1.62 -1.81)"/><path class="cls-3" d="M466.52,220.76c0-2.85,1.92-4.61,3.93-4.61,2.23,0,3.5,1.6,3.5,4.11a5,5,0,0,1-.07.84H468a2.92,2.92,0,0,0,2.91,3.06,3.82,3.82,0,0,0,2.18-.7l.53,1a5.17,5.17,0,0,1-2.89.91C468.38,225.34,466.52,223.63,466.52,220.76Zm6.12-.72c0-1.75-.79-2.71-2.16-2.71A2.69,2.69,0,0,0,468,220Z" transform="translate(-1.62 -1.81)"/><path class="cls-3" d="M474.92,216.37h1.53l1.66,5c.26.86.54,1.75.8,2.58H479c.26-.83.54-1.72.8-2.58l1.66-5h1.45l-3.1,8.75h-1.72Z" transform="translate(-1.62 -1.81)"/></g><g class="cls-2"><path class="cls-4" d="M1.62,20.24H8.43v1.27H3.12v4h4.5v1.27H3.12v5.29H1.62Z" transform="translate(-1.62 -1.81)"/><path class="cls-4" d="M10.37,30.3V19.23h1.48V30.41c0,.45.2.63.41.63a1.19,1.19,0,0,0,.33,0l.2,1.13a2.3,2.3,0,0,1-.85.14C10.83,32.27,10.37,31.56,10.37,30.3Z" transform="translate(-1.62 -1.81)"/><path class="cls-4" d="M14.31,27.69c0-2.85,1.92-4.6,3.93-4.6,2.23,0,3.5,1.6,3.5,4.1a5,5,0,0,1-.07.85h-5.9a2.91,2.91,0,0,0,2.91,3.05,3.82,3.82,0,0,0,2.18-.7l.53,1a5.09,5.09,0,0,1-2.89.91C16.17,32.27,14.31,30.57,14.31,27.69ZM20.43,27c0-1.75-.79-2.7-2.16-2.7A2.68,2.68,0,0,0,15.76,27Z" transform="translate(-1.62 -1.81)"/><path class="cls-4" d="M25.4,27.49,22.75,23.3h1.6l1.18,1.92c.26.48.56,1,.85,1.46h.08c.26-.48.52-1,.79-1.46l1.06-1.92h1.55l-2.65,4.34,2.86,4.42H28.46l-1.28-2c-.31-.53-.63-1.07-1-1.57h-.07c-.3.5-.58,1-.88,1.57l-1.19,2H22.54Z" transform="translate(-1.62 -1.81)"/><path class="cls-4" d="M35.24,20.55a1,1,0,1,1,1,.95A1,1,0,0,1,35.24,20.55Zm.27,2.75H37v8.76H35.51Z" transform="translate(-1.62 -1.81)"/><path class="cls-4" d="M40.2,29.35V24.51H38.9V23.39l1.37-.09.18-2.45h1.23V23.3h2.37v1.21H41.68v4.87c0,1.06.35,1.68,1.36,1.68a2.81,2.81,0,0,0,1-.23L44.32,32a5.48,5.48,0,0,1-1.62.32C40.83,32.27,40.2,31.09,40.2,29.35Z" transform="translate(-1.62 -1.81)"/><path class="cls-4" d="M45.12,27.69c0-2.85,1.92-4.6,3.94-4.6,2.23,0,3.49,1.6,3.49,4.1a5,5,0,0,1-.07.85H46.59a2.9,2.9,0,0,0,2.91,3.05,3.77,3.77,0,0,0,2.17-.7l.53,1a5.07,5.07,0,0,1-2.89.91C47,32.27,45.12,30.57,45.12,27.69ZM51.24,27c0-1.75-.79-2.7-2.16-2.7A2.68,2.68,0,0,0,46.57,27Z" transform="translate(-1.62 -1.81)"/><path class="cls-4" d="M54.7,23.3h1.23l.12,1.27h.05a3.88,3.88,0,0,1,2.72-1.48,2.31,2.31,0,0,1,2.42,1.66,4.14,4.14,0,0,1,2.89-1.66c1.79,0,2.66,1.19,2.66,3.42v5.55H65.31V26.7c0-1.63-.52-2.33-1.63-2.33a3.19,3.19,0,0,0-2.19,1.35v6.34H60V26.7c0-1.63-.51-2.33-1.62-2.33a3.26,3.26,0,0,0-2.2,1.35v6.34H54.7Z" transform="translate(-1.62 -1.81)"/><path class="cls-4" d="M68.65,31.06l.73-1a4,4,0,0,0,2.59,1c1.15,0,1.72-.61,1.72-1.36,0-.9-1-1.3-2-1.66-1.23-.45-2.61-1.05-2.61-2.53s1.12-2.48,3-2.48a4.45,4.45,0,0,1,2.73,1l-.71.95a3.28,3.28,0,0,0-2-.78c-1.1,0-1.61.59-1.61,1.26,0,.83,1,1.14,1.94,1.51,1.27.48,2.67,1,2.67,2.66,0,1.42-1.13,2.6-3.19,2.6A5.34,5.34,0,0,1,68.65,31.06Z" transform="translate(-1.62 -1.81)"/></g><g class="cls-2"><path class="cls-5" d="M367.62,3.12h6.81V4.4h-5.31v4h4.5V9.65h-4.5v5.29h-1.5Z" transform="translate(-1.62 -1.81)"/><path class="cls-5" d="M376.37,13.18V2.11h1.48V13.29c0,.45.2.63.41.63a1.57,1.57,0,0,0,.33,0l.2,1.13a2.53,2.53,0,0,1-.85.14C376.83,15.16,376.37,14.45,376.37,13.18Z" transform="translate(-1.62 -1.81)"/><path class="cls-5" d="M380.31,10.58c0-2.85,1.92-4.61,3.93-4.61,2.23,0,3.5,1.6,3.5,4.11a5,5,0,0,1-.07.84h-5.9A2.92,2.92,0,0,0,384.68,14a3.82,3.82,0,0,0,2.18-.7l.53,1a5.17,5.17,0,0,1-2.89.91C382.17,15.16,380.31,13.45,380.31,10.58Zm6.12-.72c0-1.76-.79-2.71-2.16-2.71a2.69,2.69,0,0,0-2.51,2.71Z" transform="translate(-1.62 -1.81)"/><path class="cls-5" d="M391.4,10.37l-2.65-4.18h1.6l1.18,1.92c.26.48.56,1,.85,1.46h.08c.26-.49.52-1,.79-1.46l1.06-1.92h1.55l-2.65,4.34,2.86,4.41h-1.61l-1.28-2c-.31-.53-.63-1.07-1-1.58h-.07c-.3.51-.58,1-.88,1.58l-1.19,2h-1.54Z" transform="translate(-1.62 -1.81)"/><path class="cls-5" d="M401,9c0-3.81,2.24-6.13,5.24-6.13a4.4,4.4,0,0,1,3.25,1.45l-.82,1a3.25,3.25,0,0,0-2.4-1.11c-2.24,0-3.72,1.83-3.72,4.77s1.42,4.83,3.66,4.83a3.56,3.56,0,0,0,2.74-1.32l.82.94a4.56,4.56,0,0,1-3.62,1.71C403.17,15.16,401,12.88,401,9Z" transform="translate(-1.62 -1.81)"/><path class="cls-5" d="M411.14,10.58c0-2.93,1.91-4.61,4.06-4.61s4.05,1.68,4.05,4.61-1.91,4.58-4.05,4.58S411.14,13.47,411.14,10.58Zm6.58,0c0-2-1-3.38-2.52-3.38s-2.53,1.37-2.53,3.38,1,3.34,2.53,3.34S417.72,12.58,417.72,10.58Z" transform="translate(-1.62 -1.81)"/><path class="cls-5" d="M421.55,6.19h1.22l.13,1.26H423A4.16,4.16,0,0,1,425.88,6c1.85,0,2.67,1.19,2.67,3.42v5.55h-1.48V9.59c0-1.63-.49-2.33-1.65-2.33A3.31,3.31,0,0,0,423,8.6v6.34h-1.48Z" transform="translate(-1.62 -1.81)"/><path class="cls-5" d="M431.65,12.23V7.39h-1.3V6.27l1.37-.08.18-2.46h1.23V6.19h2.38v1.2h-2.38v4.87c0,1.07.35,1.69,1.36,1.69a2.82,2.82,0,0,0,1-.24l.29,1.12a5.19,5.19,0,0,1-1.62.33C432.28,15.16,431.65,14,431.65,12.23Z" transform="translate(-1.62 -1.81)"/><path class="cls-5" d="M436.56,12.67c0-1.91,1.64-2.86,5.37-3.27,0-1.12-.37-2.21-1.8-2.21a4.78,4.78,0,0,0-2.61.94l-.58-1A6.47,6.47,0,0,1,440.38,6c2.13,0,3,1.42,3,3.6v5.37h-1.22l-.12-1H442a4.64,4.64,0,0,1-2.9,1.27A2.38,2.38,0,0,1,436.56,12.67Zm5.37.13V10.37c-2.93.36-3.92,1.07-3.92,2.19s.67,1.4,1.53,1.4A3.57,3.57,0,0,0,441.93,12.8Z" transform="translate(-1.62 -1.81)"/><path class="cls-5" d="M445.9,3.43a1,1,0,0,1,2.05,0,1,1,0,0,1-2.05,0Zm.27,2.76h1.48v8.75h-1.48Z" transform="translate(-1.62 -1.81)"/><path class="cls-5" d="M450.6,6.19h1.22L452,7.45H452A4.16,4.16,0,0,1,454.93,6c1.85,0,2.68,1.19,2.68,3.42v5.55h-1.49V9.59c0-1.63-.49-2.33-1.65-2.33a3.31,3.31,0,0,0-2.39,1.34v6.34H450.6Z" transform="translate(-1.62 -1.81)"/><path class="cls-5" d="M459.79,10.58c0-2.85,1.92-4.61,3.94-4.61,2.23,0,3.49,1.6,3.49,4.11a4.12,4.12,0,0,1-.07.84h-5.89A2.92,2.92,0,0,0,464.17,14a3.82,3.82,0,0,0,2.18-.7l.53,1a5.17,5.17,0,0,1-2.89.91C461.65,15.16,459.79,13.45,459.79,10.58Zm6.12-.72c0-1.76-.79-2.71-2.15-2.71a2.69,2.69,0,0,0-2.51,2.71Z" transform="translate(-1.62 -1.81)"/><path class="cls-5" d="M469.37,6.19h1.23l.12,1.59h0A3,3,0,0,1,473.26,6a2,2,0,0,1,.93.18l-.27,1.3a2.57,2.57,0,0,0-.85-.14c-.74,0-1.62.53-2.22,2v5.62h-1.48Z" transform="translate(-1.62 -1.81)"/></g><polygon class="cls-6" points="107.59 35.9 106.63 19 98.67 27.97 107.59 35.9"/><path class="cls-7" d="M168.55,98.33c0-38.18-27.56-69.08-61.61-69.08" transform="translate(-1.62 -1.81)"/><polygon class="cls-8" points="337.03 16.9 337.99 0 345.96 8.97 337.03 16.9"/><path class="cls-9" d="M285.28,81.91c0-39.6,24.88-71.66,55.64-71.66" transform="translate(-1.62 -1.81)"/><rect class="cls-10" x="82.98" y="94.55" width="42.96" height="49.57" rx="4.54" transform="translate(-16.49 221.98) rotate(-90)"/><rect class="cls-10" x="147.42" y="94.55" width="42.96" height="49.57" rx="4.54" transform="translate(47.95 286.42) rotate(-90)"/><rect class="cls-10" x="211.85" y="94.55" width="42.96" height="49.57" rx="4.54" transform="translate(112.38 350.85) rotate(-90)"/><rect class="cls-10" x="276.29" y="94.55" width="42.96" height="49.57" rx="4.54" transform="translate(176.82 415.29) rotate(-90)"/><rect class="cls-10" x="340.72" y="94.55" width="42.96" height="49.57" rx="4.54" transform="translate(241.25 479.72) rotate(-90)"/><path class="cls-8" d="M192.78,184c0-3.24,2-5.2,4.12-5.2a3.26,3.26,0,0,1,2.43,1l-.1-1.5v-3.38h2.94v14h-2.4l-.21-1h-.08a3.93,3.93,0,0,1-2.64,1.22C194.38,189.18,192.78,187.22,192.78,184Zm6.45,1.9v-4.07a2.41,2.41,0,0,0-1.65-.63c-1,0-1.78.88-1.78,2.77s.67,2.82,1.81,2.82A1.89,1.89,0,0,0,199.23,185.88Z" transform="translate(-1.62 -1.81)"/><path class="cls-8" d="M204.53,176a1.71,1.71,0,1,1,1.7,1.53A1.56,1.56,0,0,1,204.53,176Zm.22,3h2.95v9.92h-2.95Z" transform="translate(-1.62 -1.81)"/><path class="cls-8" d="M209.4,187.79l1.32-1.83a4.3,4.3,0,0,0,2.56,1c.87,0,1.25-.33,1.25-.85s-1-1-2-1.35c-1.22-.47-2.63-1.28-2.63-2.92,0-1.85,1.5-3.1,3.79-3.1a5.66,5.66,0,0,1,3.5,1.25l-1.31,1.77a3.68,3.68,0,0,0-2.09-.85c-.76,0-1.14.3-1.14.79s.93.88,2,1.25c1.26.47,2.67,1.17,2.67,3s-1.41,3.2-4.07,3.2A6.42,6.42,0,0,1,209.4,187.79Z" transform="translate(-1.62 -1.81)"/><path class="cls-8" d="M219.13,179h2.4l.21,1h.08a4.42,4.42,0,0,1,2.82-1.21c2.41,0,3.88,2,3.88,5,0,3.41-2,5.36-4.18,5.36a3.47,3.47,0,0,1-2.37-1l.1,1.57v2.91h-2.94Zm6.37,4.83c0-1.78-.55-2.67-1.72-2.67a2.3,2.3,0,0,0-1.71.89v4.08a2.4,2.4,0,0,0,1.59.62C224.68,186.77,225.5,185.91,225.5,183.85Z" transform="translate(-1.62 -1.81)"/><path class="cls-8" d="M230.43,185.86V174.93h2.95v11c0,.63.29.83.53.83a1.3,1.3,0,0,0,.36,0l.35,2.17a4,4,0,0,1-1.48.24C231.12,189.18,230.43,187.86,230.43,185.86Z" transform="translate(-1.62 -1.81)"/><path class="cls-8" d="M235.7,186.19c0-2.09,1.66-3.23,5.59-3.64a1.38,1.38,0,0,0-1.57-1.43,5.49,5.49,0,0,0-2.63.89L236,180.08a8.11,8.11,0,0,1,4.24-1.3c2.54,0,3.95,1.44,3.95,4.49v5.67h-2.4l-.21-1h-.08a4.32,4.32,0,0,1-2.88,1.26A2.86,2.86,0,0,1,235.7,186.19Zm5.59-.13v-1.74c-2.09.28-2.78.88-2.78,1.63s.44,1,1.14,1A2.26,2.26,0,0,0,241.29,186.06Z" transform="translate(-1.62 -1.81)"/><path class="cls-8" d="M246.39,192.62l.53-2.24a2.76,2.76,0,0,0,.66.13,1.71,1.71,0,0,0,1.74-1.31l.15-.51L245.64,179h3l1.42,4.27c.29.9.53,1.84.79,2.81h.08c.22-.94.44-1.88.69-2.81l1.2-4.27h2.82l-3.45,10c-.94,2.48-2,3.77-4.33,3.77A4.61,4.61,0,0,1,246.39,192.62Z" transform="translate(-1.62 -1.81)"/><path class="cls-8" d="M257.05,180.85a1.78,1.78,0,1,1,1.77,1.85A1.78,1.78,0,0,1,257.05,180.85Zm0,6.48a1.78,1.78,0,1,1,1.77,1.85A1.77,1.77,0,0,1,257.05,187.33Z" transform="translate(-1.62 -1.81)"/><path class="cls-8" d="M266.3,179.13l1.49-.11h4.56v2.3H266.3Zm1.32-.63c0-2.09,1-3.81,3.65-3.81a5.67,5.67,0,0,1,2,.35l-.53,2.17a2.73,2.73,0,0,0-1-.22c-.71,0-1.13.4-1.13,1.43v10.52h-2.94Z" transform="translate(-1.62 -1.81)"/><path class="cls-8" d="M273.93,185.86V174.93h2.94v11c0,.63.3.83.54.83a1.3,1.3,0,0,0,.36,0l.35,2.17a4,4,0,0,1-1.48.24C274.62,189.18,273.93,187.86,273.93,185.86Z" transform="translate(-1.62 -1.81)"/><path class="cls-8" d="M279.08,184a4.87,4.87,0,0,1,4.68-5.2c2.82,0,4.22,2.05,4.22,4.76a6.42,6.42,0,0,1-.12,1.3h-5.94a2.4,2.4,0,0,0,2.58,2.1,4.13,4.13,0,0,0,2.14-.65l1,1.77a6.43,6.43,0,0,1-3.52,1.12A4.84,4.84,0,0,1,279.08,184Zm6.39-1.09c0-1.09-.47-1.87-1.65-1.87a2,2,0,0,0-1.93,1.87Z" transform="translate(-1.62 -1.81)"/><path class="cls-8" d="M291.73,183.77,288.86,179H292l.88,1.6.85,1.69h.08c.21-.55.46-1.14.67-1.69l.68-1.6h3.05l-2.87,5.09,3,4.83h-3.15l-1-1.64c-.31-.57-.61-1.17-.93-1.73h-.08c-.25.56-.51,1.15-.76,1.73l-.78,1.64h-3Z" transform="translate(-1.62 -1.81)"/></g></g></svg>