<svg xmlns="http://www.w3.org/2000/svg" viewBox="0 0 545.36 243.57"><defs><style>.cls-1,.cls-12{fill:#00aa94;}.cls-1{opacity:0.8;}.cls-2{font-size:15px;}.cls-13,.cls-2,.cls-7{stroke:#000;stroke-miterlimit:10;font-family:MyriadPro-Regular, Myriad Pro;}.cls-3{letter-spacing:0em;}.cls-4{opacity:0.5;}.cls-5{fill:#666;}.cls-6{fill:#4d4d4d;}.cls-7{font-size:18px;}.cls-8{letter-spacing:0em;}.cls-9{letter-spacing:-0.03em;}.cls-10{letter-spacing:-0.01em;}.cls-11{letter-spacing:0em;}.cls-13{font-size:22px;}</style></defs><title>자산 9</title><g id="레이어_2" data-name="레이어 2"><g id="레이어_1-2" data-name="레이어 1"><rect class="cls-1" x="38.55" y="124.5" width="37" height="39" rx="2.26" ry="2.26" transform="translate(-88.14 201.05) rotate(-90)"/><rect class="cls-1" x="200.55" y="134.5" width="6" height="6" rx="3" ry="3" transform="translate(64.86 341.05) rotate(-90)"/><text class="cls-2" transform="translate(32.36 102.06)"><tspan class="cls-3">Q</tspan><tspan x="10.38" y="0">ueue[99]</tspan></text><g class="cls-4"><path class="cls-5" d="M1.19,214.8a.89.89,0,0,1,1-.9.9.9,0,0,1,1,.9.91.91,0,0,1-1,.9A.91.91,0,0,1,1.19,214.8Zm.25,2.6h1.4v8.27H1.44Z" transform="translate(-1.19)"/><path class="cls-5" d="M5.63,217.4H6.78l.12,1.19H7a4,4,0,0,1,2.77-1.39c1.74,0,2.52,1.12,2.52,3.23v5.24h-1.4v-5.06c0-1.54-.46-2.2-1.55-2.2A3.12,3.12,0,0,0,7,219.68v6H5.63Z" transform="translate(-1.19)"/><path class="cls-5" d="M14.29,227.25a2.34,2.34,0,0,1,1.22-1.87v-.06a1.55,1.55,0,0,1-.74-1.36,2,2,0,0,1,.91-1.53v-.07a2.86,2.86,0,0,1-1.07-2.22,2.93,2.93,0,0,1,3.1-2.94,3.45,3.45,0,0,1,1.16.2h2.89v1.08h-1.7a2.36,2.36,0,0,1,.67,1.7,2.82,2.82,0,0,1-3,2.86,2.8,2.8,0,0,1-1.23-.28,1.22,1.22,0,0,0-.53,1c0,.52.34.9,1.45.9H19c1.93,0,2.89.6,2.89,2,0,1.54-1.62,2.86-4.18,2.86C15.69,229.47,14.29,228.68,14.29,227.25Zm6.23-.43c0-.76-.58-1-1.66-1H17.43a4.62,4.62,0,0,1-1.07-.12,1.73,1.73,0,0,0-.85,1.39c0,.88.9,1.44,2.4,1.44S20.52,227.68,20.52,226.82Zm-1.06-6.68a1.76,1.76,0,1,0-3.51,0,1.77,1.77,0,1,0,3.51,0Z" transform="translate(-1.19)"/><path class="cls-5" d="M22.87,227.25a2.33,2.33,0,0,1,1.21-1.87v-.06a1.55,1.55,0,0,1-.74-1.36,2,2,0,0,1,.91-1.53v-.07a2.86,2.86,0,0,1-1.07-2.22,2.93,2.93,0,0,1,3.1-2.94,3.51,3.51,0,0,1,1.17.2h2.88v1.08h-1.7a2.36,2.36,0,0,1,.67,1.7,3,3,0,0,1-4.25,2.58,1.22,1.22,0,0,0-.53,1c0,.52.34.9,1.45.9h1.61c1.92,0,2.88.6,2.88,2,0,1.54-1.62,2.86-4.17,2.86C24.26,229.47,22.87,228.68,22.87,227.25Zm6.22-.43c0-.76-.58-1-1.66-1H26a4.67,4.67,0,0,1-1.07-.12,1.72,1.72,0,0,0-.84,1.39c0,.88.89,1.44,2.39,1.44S29.09,227.68,29.09,226.82ZM28,220.14a1.77,1.77,0,1,0-3.52,0,1.77,1.77,0,1,0,3.52,0Z" transform="translate(-1.19)"/><path class="cls-5" d="M31.78,224.81a1,1,0,1,1,1,1.06A1,1,0,0,1,31.78,224.81Z" transform="translate(-1.19)"/><path class="cls-5" d="M36.05,214.8a1,1,0,0,1,1.93,0,1,1,0,0,1-1.93,0Zm.25,2.6h1.4v8.27H36.3Z" transform="translate(-1.19)"/><path class="cls-5" d="M39.88,221.54c0-2.75,1.8-4.34,3.82-4.34s3.83,1.59,3.83,4.34-1.8,4.33-3.83,4.33S39.88,224.28,39.88,221.54Zm6.21,0c0-1.89-1-3.18-2.39-3.18s-2.38,1.29-2.38,3.18,1,3.17,2.38,3.17S46.09,223.44,46.09,221.54Z" transform="translate(-1.19)"/></g><polygon class="cls-6" points="514.1 24.5 515.28 24.79 513.86 66.98 512.68 66.69 514.1 24.5"/><polygon class="cls-6" points="510.47 63.97 515.75 65.26 512.93 73.57 510.47 63.97"/><text class="cls-7" transform="translate(415.45 238.57)"><tspan class="cls-8">R</tspan><tspan x="9.76" y="0">ear</tspan></text><text class="cls-7" transform="translate(494.45 15.57)"><tspan class="cls-9">F</tspan><tspan class="cls-10" x="8.3" y="0">r</tspan><tspan x="14" y="0">o</tspan><tspan class="cls-11" x="23.89" y="0">n</tspan><tspan x="33.8" y="0">t</tspan></text><polygon class="cls-6" points="434.12 221.5 432.94 221.22 434.36 179.38 435.53 179.66 434.12 221.5"/><polygon class="cls-6" points="437.75 182.36 432.47 181.09 435.29 172.84 437.75 182.36"/><path class="cls-12" d="M85.87,112.55l-8.5,10.36a1.74,1.74,0,0,1-1.35.59H40.76c-1.34,0-2.1-1.23-1.31-2.1L48.83,111a1.75,1.75,0,0,1,1.3-.54H84.51C85.81,110.5,86.58,111.67,85.87,112.55Z" transform="translate(-1.19)"/><path class="cls-12" d="M80.12,160.23l8-8.31a1.9,1.9,0,0,0,.46-1.32V116.09c0-1.3-1-2-1.62-1.28L79,124a2,2,0,0,0-.42,1.28v33.64C78.54,160.18,79.45,160.93,80.12,160.23Z" transform="translate(-1.19)"/><rect class="cls-1" x="113.55" y="124.5" width="37" height="39" rx="2.26" ry="2.26" transform="translate(-13.14 276.05) rotate(-90)"/><text class="cls-2" transform="translate(107.36 102.06)"><tspan class="cls-3">Q</tspan><tspan x="10.38" y="0">ueue[98]</tspan></text><path class="cls-12" d="M160.87,112.55l-8.5,10.36a1.74,1.74,0,0,1-1.35.59H115.76c-1.34,0-2.1-1.23-1.31-2.1L123.83,111a1.75,1.75,0,0,1,1.3-.54h34.38C160.81,110.5,161.58,111.67,160.87,112.55Z" transform="translate(-1.19)"/><path class="cls-12" d="M155.12,160.23l8-8.31a1.9,1.9,0,0,0,.46-1.32V116.09c0-1.3-1-2-1.62-1.28L154,124a2,2,0,0,0-.42,1.28v33.64C153.54,160.18,154.45,160.93,155.12,160.23Z" transform="translate(-1.19)"/><rect class="cls-1" x="270.55" y="124.5" width="37" height="39" rx="2.26" ry="2.26" transform="translate(143.86 433.05) rotate(-90)"/><text class="cls-2" transform="translate(264.36 102.06)"><tspan class="cls-3">Q</tspan><tspan x="10.38" y="0">ueue[3]</tspan></text><path class="cls-12" d="M317.87,112.55l-8.5,10.36a1.74,1.74,0,0,1-1.35.59H272.76c-1.34,0-2.1-1.23-1.31-2.1L280.83,111a1.75,1.75,0,0,1,1.3-.54h34.38C317.81,110.5,318.58,111.67,317.87,112.55Z" transform="translate(-1.19)"/><path class="cls-12" d="M312.12,160.23l8-8.31a1.9,1.9,0,0,0,.46-1.32V116.09c0-1.3-.95-2-1.62-1.28L311,124a2,2,0,0,0-.42,1.28v33.64C310.54,160.18,311.45,160.93,312.12,160.23Z" transform="translate(-1.19)"/><rect class="cls-1" x="344.55" y="124.5" width="37" height="39" rx="2.26" ry="2.26" transform="translate(217.86 507.05) rotate(-90)"/><text class="cls-2" transform="translate(338.36 102.06)"><tspan class="cls-3">Q</tspan><tspan x="10.38" y="0">ueue[2]</tspan></text><path class="cls-12" d="M391.87,112.55l-8.5,10.36a1.74,1.74,0,0,1-1.35.59H346.76c-1.34,0-2.1-1.23-1.31-2.1L354.83,111a1.75,1.75,0,0,1,1.3-.54h34.38C391.81,110.5,392.58,111.67,391.87,112.55Z" transform="translate(-1.19)"/><path class="cls-12" d="M386.12,160.23l8-8.31a1.9,1.9,0,0,0,.46-1.32V116.09c0-1.3-.95-2-1.62-1.28L385,124a2,2,0,0,0-.42,1.28v33.64C384.54,160.18,385.45,160.93,386.12,160.23Z" transform="translate(-1.19)"/><rect class="cls-1" x="416.55" y="124.5" width="37" height="39" rx="2.26" ry="2.26" transform="translate(289.86 579.05) rotate(-90)"/><text class="cls-2" transform="translate(410.36 102.06)"><tspan class="cls-3">Q</tspan><tspan x="10.38" y="0">ueue[1]</tspan></text><path class="cls-12" d="M463.87,112.55l-8.5,10.36a1.74,1.74,0,0,1-1.35.59H418.76c-1.34,0-2.1-1.23-1.31-2.1L426.83,111a1.75,1.75,0,0,1,1.3-.54h34.38C463.81,110.5,464.58,111.67,463.87,112.55Z" transform="translate(-1.19)"/><path class="cls-12" d="M458.12,160.23l8-8.31a1.9,1.9,0,0,0,.46-1.32V116.09c0-1.3-.95-2-1.62-1.28L457,124a2,2,0,0,0-.42,1.28v33.64C456.54,160.18,457.45,160.93,458.12,160.23Z" transform="translate(-1.19)"/><rect class="cls-1" x="490.55" y="124.5" width="37" height="39" rx="2.26" ry="2.26" transform="translate(363.86 653.05) rotate(-90)"/><text class="cls-2" transform="translate(484.36 102.06)"><tspan class="cls-3">Q</tspan><tspan x="10.38" y="0">ueue[0]</tspan></text><path class="cls-12" d="M537.87,112.55l-8.5,10.36a1.74,1.74,0,0,1-1.35.59H492.76c-1.34,0-2.1-1.23-1.31-2.1L500.83,111a1.75,1.75,0,0,1,1.3-.54h34.38C537.81,110.5,538.58,111.67,537.87,112.55Z" transform="translate(-1.19)"/><path class="cls-12" d="M532.12,160.23l8-8.31a1.9,1.9,0,0,0,.46-1.32V116.09c0-1.3-.95-2-1.62-1.28L531,124a2,2,0,0,0-.42,1.28v33.64C530.54,160.18,531.45,160.93,532.12,160.23Z" transform="translate(-1.19)"/><rect class="cls-1" x="210.55" y="134.5" width="6" height="6" rx="3" ry="3" transform="translate(74.86 351.05) rotate(-90)"/><rect class="cls-1" x="220.55" y="134.5" width="6" height="6" rx="3" ry="3" transform="translate(84.86 361.05) rotate(-90)"/><text class="cls-13" transform="translate(500.36 150.91)">1</text></g></g></svg>