<svg xmlns="http://www.w3.org/2000/svg" viewBox="0 0 698 208.88"><defs><style>.cls-1,.cls-10{fill:#00aa94;}.cls-1,.cls-11{opacity:0.8;}.cls-2{opacity:0.5;}.cls-3{fill:#666;}.cls-4{font-size:15.32px;}.cls-13,.cls-4{stroke:#000;}.cls-13,.cls-4,.cls-6{stroke-miterlimit:10;}.cls-4,.cls-6{font-family:MyriadPro-Regular, Myriad Pro;}.cls-5{letter-spacing:0em;}.cls-6{font-size:12px;fill:#a10000;stroke:#c1272d;stroke-width:0.75px;}.cls-7{letter-spacing:-0.03em;}.cls-8{letter-spacing:-0.01em;}.cls-9{letter-spacing:0em;}.cls-11,.cls-12{fill:#008194;}.cls-13{stroke-width:3px;}.cls-14{fill:#ff1f39;}.cls-15{opacity:0.3;}.cls-16{fill:#4d4d4d;}.cls-17{fill:#f20000;}</style></defs><title>자산 11</title><g id="레이어_2" data-name="레이어 2"><g id="레이어_1-2" data-name="레이어 1"><rect class="cls-1" x="369.55" y="138.61" width="6" height="6" rx="3" ry="3" transform="translate(229.8 514.16) rotate(-90)"/><rect class="cls-1" x="379.55" y="138.61" width="6" height="6" rx="3" ry="3" transform="translate(239.8 524.16) rotate(-90)"/><rect class="cls-1" x="389.55" y="138.61" width="6" height="6" rx="3" ry="3" transform="translate(249.8 534.16) rotate(-90)"/><g class="cls-2"><path class="cls-3" d="M1.14,196.4a.82.82,0,0,1,.92-.77.83.83,0,0,1,.93.77.84.84,0,0,1-.93.77A.83.83,0,0,1,1.14,196.4Zm.24,2.21H2.72v7H1.38Z" transform="translate(-1.14)"/><path class="cls-3" d="M5.4,198.61H6.5l.12,1h0a4,4,0,0,1,2.66-1.19c1.67,0,2.42,1,2.42,2.75v4.45H10.4v-4.3c0-1.31-.45-1.87-1.5-1.87a3.12,3.12,0,0,0-2.16,1.08v5.09H5.4Z" transform="translate(-1.14)"/><path class="cls-3" d="M13.71,207a2,2,0,0,1,1.16-1.59v-.05a1.28,1.28,0,0,1-.71-1.16,1.67,1.67,0,0,1,.87-1.3v-.06a2.37,2.37,0,0,1-1-1.89c0-1.53,1.37-2.5,3-2.5a3.88,3.88,0,0,1,1.12.17h2.76v.92H19.23a1.91,1.91,0,0,1,.65,1.45c0,1.5-1.28,2.43-2.9,2.43a3.14,3.14,0,0,1-1.18-.23,1,1,0,0,0-.51.83c0,.44.33.76,1.39.76h1.54c1.84,0,2.77.51,2.77,1.68s-1.56,2.43-4,2.43C15,208.88,13.71,208.21,13.71,207Zm6-.36c0-.65-.56-.88-1.6-.88H16.71a5.59,5.59,0,0,1-1-.1,1.43,1.43,0,0,0-.8,1.18c0,.75.85,1.23,2.29,1.23S19.68,207.36,19.68,206.63Zm-1-5.69A1.59,1.59,0,0,0,17,199.3a1.59,1.59,0,0,0-1.69,1.64,1.69,1.69,0,0,0,3.37,0Z" transform="translate(-1.14)"/><path class="cls-3" d="M21.93,207a2,2,0,0,1,1.16-1.59v-.05a1.28,1.28,0,0,1-.71-1.16,1.67,1.67,0,0,1,.87-1.3v-.06a2.37,2.37,0,0,1-1-1.89c0-1.53,1.37-2.5,3-2.5a3.75,3.75,0,0,1,1.11.17h2.77v.92H27.45A1.91,1.91,0,0,1,28.1,201c0,1.5-1.28,2.43-2.9,2.43a3.14,3.14,0,0,1-1.18-.23,1,1,0,0,0-.51.83c0,.44.33.76,1.39.76h1.54c1.84,0,2.77.51,2.77,1.68s-1.56,2.43-4,2.43C23.26,208.88,21.93,208.21,21.93,207Zm6-.36c0-.65-.56-.88-1.6-.88H24.93a5.51,5.51,0,0,1-1-.1,1.45,1.45,0,0,0-.81,1.18c0,.75.86,1.23,2.3,1.23S27.9,207.36,27.9,206.63Zm-1-5.69a1.69,1.69,0,0,0-3.37,0,1.69,1.69,0,0,0,3.37,0Z" transform="translate(-1.14)"/><path class="cls-3" d="M30.47,204.92a1,1,0,1,1,1,.9A.92.92,0,0,1,30.47,204.92Z" transform="translate(-1.14)"/><path class="cls-3" d="M34.56,196.4a.83.83,0,0,1,.93-.77.82.82,0,0,1,.92.77.83.83,0,0,1-.92.77A.84.84,0,0,1,34.56,196.4Zm.25,2.21h1.34v7H34.81Z" transform="translate(-1.14)"/><path class="cls-3" d="M38.23,202.14a3.67,3.67,0,1,1,3.67,3.68A3.55,3.55,0,0,1,38.23,202.14Zm6,0c0-1.61-.92-2.71-2.29-2.71s-2.28,1.1-2.28,2.71.92,2.69,2.28,2.69S44.19,203.75,44.19,202.14Z" transform="translate(-1.14)"/></g><text class="cls-4" transform="translate(112.55 13.32) scale(1.13 1)"><tspan class="cls-5">R</tspan><tspan x="8.3" y="0">ear</tspan></text><text class="cls-6" transform="translate(165.38 155.74) scale(1.13 1)">1</text><text class="cls-4" transform="translate(613.79 110.44) scale(1.13 1)"><tspan class="cls-7">F</tspan><tspan class="cls-8" x="7.06" y="0">r</tspan><tspan x="11.92" y="0">o</tspan><tspan class="cls-9" x="20.33" y="0">n</tspan><tspan x="28.77" y="0">t</tspan></text><rect class="cls-1" x="488.91" y="110.41" width="31.49" height="69.99" rx="2.26" ry="2.26" transform="translate(358.11 650.05) rotate(-90)"/><path class="cls-10" d="M548.28,118.77l-8.21,9.5a1.76,1.76,0,0,1-1.31.54h-34.1c-1.28,0-2-1.13-1.26-1.93l9.07-9.5a1.73,1.73,0,0,1,1.26-.49H547C548.23,116.89,549,118,548.28,118.77Z" transform="translate(-1.14)"/><path class="cls-10" d="M515.41,118.77l-8.22,9.5a1.75,1.75,0,0,1-1.3.54h-34.1c-1.29,0-2-1.13-1.27-1.93l9.07-9.5a1.78,1.78,0,0,1,1.27-.49H514.1C515.35,116.89,516.1,118,515.41,118.77Z" transform="translate(-1.14)"/><rect class="cls-11" x="434.56" y="126.71" width="31.49" height="37.39" rx="2.26" ry="2.26" transform="translate(303.76 595.71) rotate(-90)"/><path class="cls-12" d="M476.36,118.77l-8.14,9.5a1.73,1.73,0,0,1-1.29.54H433.12c-1.27,0-2-1.13-1.25-1.93l9-9.5a1.73,1.73,0,0,1,1.25-.49h33C476.31,116.89,477.05,118,476.36,118.77Z" transform="translate(-1.14)"/><path class="cls-10" d="M542.06,160.38l7.65-7.29a1.62,1.62,0,0,0,.43-1.16V121.69c0-1.14-.91-1.8-1.55-1.12l-7.64,8a1.64,1.64,0,0,0-.4,1.12v29.49C540.55,160.33,541.42,161,542.06,160.38Z" transform="translate(-1.14)"/><rect class="cls-1" x="272.91" y="110.41" width="31.49" height="69.99" rx="2.26" ry="2.26" transform="translate(142.11 434.05) rotate(-90)"/><path class="cls-10" d="M332.28,118.77l-8.21,9.5a1.76,1.76,0,0,1-1.31.54h-34.1c-1.28,0-2-1.13-1.26-1.93l9.07-9.5a1.73,1.73,0,0,1,1.26-.49H331C332.23,116.89,333,118,332.28,118.77Z" transform="translate(-1.14)"/><path class="cls-10" d="M299.41,118.77l-8.22,9.5a1.75,1.75,0,0,1-1.3.54h-34.1c-1.29,0-2-1.13-1.27-1.93l9.07-9.5a1.78,1.78,0,0,1,1.27-.49H298.1C299.35,116.89,300.1,118,299.41,118.77Z" transform="translate(-1.14)"/><rect class="cls-11" x="218.56" y="126.71" width="31.49" height="37.39" rx="2.26" ry="2.26" transform="translate(87.76 379.71) rotate(-90)"/><path class="cls-12" d="M260.36,118.77l-8.14,9.5a1.73,1.73,0,0,1-1.29.54H217.12c-1.27,0-2-1.13-1.25-1.93l9-9.5a1.73,1.73,0,0,1,1.25-.49h33C260.31,116.89,261.05,118,260.36,118.77Z" transform="translate(-1.14)"/><path class="cls-10" d="M326.06,160.38l7.65-7.29a1.62,1.62,0,0,0,.43-1.16V121.69c0-1.14-.91-1.8-1.55-1.12l-7.64,8a1.64,1.64,0,0,0-.4,1.12v29.49C324.55,160.33,325.42,161,326.06,160.38Z" transform="translate(-1.14)"/><rect class="cls-1" x="94.91" y="110.41" width="31.49" height="69.99" rx="2.26" ry="2.26" transform="translate(-35.89 256.05) rotate(-90)"/><path class="cls-10" d="M154.28,118.77l-8.21,9.5a1.76,1.76,0,0,1-1.31.54h-34.1c-1.28,0-2-1.13-1.26-1.93l9.07-9.5a1.73,1.73,0,0,1,1.26-.49H153C154.23,116.89,155,118,154.28,118.77Z" transform="translate(-1.14)"/><path class="cls-10" d="M121.41,118.77l-8.22,9.5a1.75,1.75,0,0,1-1.3.54H77.79c-1.29,0-2-1.13-1.27-1.93l9.07-9.5a1.78,1.78,0,0,1,1.27-.49H120.1C121.35,116.89,122.1,118,121.41,118.77Z" transform="translate(-1.14)"/><rect class="cls-11" x="40.56" y="126.71" width="31.49" height="37.39" rx="2.26" ry="2.26" transform="translate(-90.24 201.71) rotate(-90)"/><path class="cls-12" d="M82.36,118.77l-8.14,9.5a1.73,1.73,0,0,1-1.29.54H39.12c-1.27,0-2-1.13-1.25-1.93l9-9.5a1.73,1.73,0,0,1,1.25-.49h33C82.31,116.89,83.05,118,82.36,118.77Z" transform="translate(-1.14)"/><path class="cls-10" d="M148.06,160.38l7.65-7.29a1.62,1.62,0,0,0,.43-1.16V121.69c0-1.14-.91-1.8-1.55-1.12l-7.64,8a1.64,1.64,0,0,0-.4,1.12v29.49C146.55,160.33,147.42,161,148.06,160.38Z" transform="translate(-1.14)"/><rect class="cls-1" x="119.91" y="17.41" width="31.49" height="69.99" rx="2.26" ry="2.26" transform="translate(82.11 188.05) rotate(-90)"/><path class="cls-10" d="M179.28,25.77l-8.21,9.5a1.76,1.76,0,0,1-1.31.54h-34.1c-1.28,0-2-1.13-1.26-1.93l9.07-9.5a1.73,1.73,0,0,1,1.26-.49H178C179.23,23.89,180,25,179.28,25.77Z" transform="translate(-1.14)"/><path class="cls-10" d="M146.41,25.77l-8.22,9.5a1.75,1.75,0,0,1-1.3.54h-34.1c-1.29,0-2-1.13-1.27-1.93l9.07-9.5a1.78,1.78,0,0,1,1.27-.49H145.1C146.35,23.89,147.1,25,146.41,25.77Z" transform="translate(-1.14)"/><rect class="cls-11" x="65.56" y="33.71" width="31.49" height="37.39" rx="2.26" ry="2.26" transform="translate(27.76 133.71) rotate(-90)"/><path class="cls-12" d="M107.36,25.77l-8.14,9.5a1.73,1.73,0,0,1-1.29.54H64.12c-1.27,0-2-1.13-1.25-1.93l9-9.5a1.73,1.73,0,0,1,1.25-.49h33C107.31,23.89,108.05,25,107.36,25.77Z" transform="translate(-1.14)"/><path class="cls-10" d="M173.06,67.38l7.65-7.29a1.62,1.62,0,0,0,.43-1.16V28.69c0-1.14-.91-1.8-1.55-1.12l-7.64,8a1.64,1.64,0,0,0-.4,1.12V66.22C171.55,67.33,172.42,68,173.06,67.38Z" transform="translate(-1.14)"/><rect class="cls-1" x="637.91" y="110.41" width="31.49" height="69.99" rx="2.26" ry="2.26" transform="translate(507.11 799.05) rotate(-90)"/><path class="cls-10" d="M697.28,118.77l-8.21,9.5a1.76,1.76,0,0,1-1.31.54h-34.1c-1.28,0-2-1.13-1.26-1.93l9.07-9.5a1.73,1.73,0,0,1,1.26-.49H696C697.23,116.89,698,118,697.28,118.77Z" transform="translate(-1.14)"/><path class="cls-10" d="M664.41,118.77l-8.22,9.5a1.75,1.75,0,0,1-1.3.54h-34.1c-1.29,0-2-1.13-1.27-1.93l9.07-9.5a1.78,1.78,0,0,1,1.27-.49H663.1C664.35,116.89,665.1,118,664.41,118.77Z" transform="translate(-1.14)"/><rect class="cls-11" x="583.56" y="126.71" width="31.49" height="37.39" rx="2.26" ry="2.26" transform="translate(452.76 744.71) rotate(-90)"/><path class="cls-12" d="M625.36,118.77l-8.14,9.5a1.73,1.73,0,0,1-1.29.54H582.12c-1.27,0-2-1.13-1.25-1.93l9-9.5a1.73,1.73,0,0,1,1.25-.49h33C625.31,116.89,626.05,118,625.36,118.77Z" transform="translate(-1.14)"/><path class="cls-10" d="M691.06,160.38l7.65-7.29a1.62,1.62,0,0,0,.43-1.16V121.69c0-1.14-.91-1.8-1.55-1.12l-7.64,8a1.64,1.64,0,0,0-.4,1.12v29.49C689.55,160.33,690.42,161,691.06,160.38Z" transform="translate(-1.14)"/><text class="cls-4" transform="translate(63.14 178.19) scale(1.13 1)">ptrNode</text><line class="cls-13" x1="414.41" y1="142.11" x2="434.91" y2="142.11"/><polygon points="415.8 133.25 416.09 150.18 407.48 141.82 415.8 133.25"/><line class="cls-13" x1="334.41" y1="142.11" x2="354.91" y2="142.11"/><polygon points="335.8 133.25 336.09 150.18 327.48 141.82 335.8 133.25"/><line class="cls-13" x1="564.41" y1="142.11" x2="584.91" y2="142.11"/><polygon points="565.8 133.25 566.09 150.18 557.48 141.82 565.8 133.25"/><polygon class="cls-14" points="223.99 142.95 223.78 144.98 160.09 142.88 160.3 140.85 223.99 142.95"/><polygon class="cls-14" points="163.98 137.02 163.02 146.11 150.01 141.33 163.98 137.02"/><g class="cls-15"><polygon class="cls-16" points="86.55 71.76 87.19 69.76 207.01 119.63 206.37 121.63 86.55 71.76"/><polygon class="cls-16" points="202.74 124.61 206.15 115.9 213.41 123.31 202.74 124.61"/></g><g class="cls-15"><polygon class="cls-16" points="234.5 118.94 233.37 120.54 183.22 84.91 184.36 83.31 234.5 118.94"/><polygon class="cls-16" points="188.4 81.47 183.22 88.56 178.26 80.12 188.4 81.47"/></g><polygon class="cls-17" points="76.41 60.17 78.47 59.61 91.4 107.03 89.34 107.58 76.41 60.17"/><polygon class="cls-17" points="84.84 106.96 94.08 104.55 91.75 112.58 84.84 106.96"/><polygon class="cls-17" points="54.78 125.93 53.11 123.83 105.7 74.03 107.36 76.13 54.78 125.93"/><polygon class="cls-17" points="108.72 82.06 101.37 72.55 112.41 69.61 108.72 82.06"/><text class="cls-6" transform="translate(95.38 110.74) scale(1.13 1)">3</text><text class="cls-6" transform="translate(112.42 79.71) scale(1.13 1)">2</text></g></g></svg>