<svg xmlns="http://www.w3.org/2000/svg" viewBox="0 0 559.36 298.5"><defs><style>.cls-1,.cls-16{fill:#00aa94;}.cls-1,.cls-17,.cls-19{opacity:0.8;}.cls-2{font-size:15px;}.cls-11,.cls-2,.cls-21{stroke:#000;}.cls-11,.cls-2,.cls-21,.cls-4,.cls-6{stroke-miterlimit:10;font-family:MyriadPro-Regular, Myriad Pro;}.cls-3{letter-spacing:0em;}.cls-11,.cls-4{font-size:18px;}.cls-4,.cls-6{fill:red;stroke:red;}.cls-5{letter-spacing:0em;}.cls-6{font-size:17px;}.cls-7{letter-spacing:-0.01em;}.cls-8{opacity:0.5;}.cls-9{fill:#666;}.cls-10{fill:#4d4d4d;}.cls-12{letter-spacing:0em;}.cls-13{letter-spacing:-0.03em;}.cls-14{letter-spacing:-0.01em;}.cls-15{letter-spacing:0em;}.cls-17,.cls-18{fill:#008194;}.cls-19,.cls-20{fill:#c9feff;}.cls-21{font-size:22px;}</style></defs><title>자산 10</title><g id="레이어_2" data-name="레이어 2"><g id="레이어_1-2" data-name="레이어 1"><rect class="cls-1" x="7.55" y="134.5" width="37" height="39" rx="2.26" ry="2.26" transform="translate(-129.14 180.05) rotate(-90)"/><rect class="cls-1" x="159.55" y="143.5" width="6" height="6" rx="3" ry="3" transform="translate(14.86 309.05) rotate(-90)"/><text class="cls-2" transform="translate(1.36 112.06)"><tspan class="cls-3">Q</tspan><tspan x="10.38" y="0">ueue[99]</tspan></text><text class="cls-4" transform="translate(265.45 282.57)"><tspan class="cls-5">G</tspan><tspan x="11.72" y="0">et( );</tspan></text><text class="cls-6" transform="translate(315.45 14.73)"><tspan class="cls-7">P</tspan><tspan x="8.79" y="0">ut(1);</tspan></text><text class="cls-6" transform="translate(315.45 34.73)"><tspan class="cls-7">P</tspan><tspan x="8.79" y="0">ut(2);</tspan></text><text class="cls-6" transform="translate(315.45 53.73)"><tspan class="cls-7">P</tspan><tspan x="8.79" y="0">ut(8);</tspan></text><text class="cls-6" transform="translate(315.45 73.73)"><tspan class="cls-7">P</tspan><tspan x="8.79" y="0">ut(10);</tspan></text><g class="cls-8"><path class="cls-9" d="M1.19,277.8a.89.89,0,0,1,1-.9.9.9,0,0,1,1,.9.91.91,0,0,1-1,.9A.91.91,0,0,1,1.19,277.8Zm.25,2.6h1.4v8.27H1.44Z" transform="translate(-1.19)"/><path class="cls-9" d="M5.63,280.4H6.78l.12,1.19H7a4,4,0,0,1,2.77-1.39c1.74,0,2.52,1.12,2.52,3.23v5.24h-1.4v-5.06c0-1.54-.46-2.2-1.55-2.2A3.12,3.12,0,0,0,7,282.68v6H5.63Z" transform="translate(-1.19)"/><path class="cls-9" d="M14.29,290.25a2.34,2.34,0,0,1,1.22-1.87v-.06a1.55,1.55,0,0,1-.74-1.36,2,2,0,0,1,.91-1.53v-.07a2.86,2.86,0,0,1-1.07-2.22,2.93,2.93,0,0,1,3.1-2.94,3.45,3.45,0,0,1,1.16.2h2.89v1.08h-1.7a2.36,2.36,0,0,1,.67,1.7,2.82,2.82,0,0,1-3,2.86,2.8,2.8,0,0,1-1.23-.28,1.22,1.22,0,0,0-.53,1c0,.52.34.9,1.45.9H19c1.93,0,2.89.6,2.89,2,0,1.54-1.62,2.86-4.18,2.86C15.69,292.47,14.29,291.68,14.29,290.25Zm6.23-.43c0-.76-.58-1-1.66-1H17.43a4.62,4.62,0,0,1-1.07-.12,1.73,1.73,0,0,0-.85,1.39c0,.88.9,1.44,2.4,1.44S20.52,290.68,20.52,289.82Zm-1.06-6.68a1.76,1.76,0,1,0-3.51,0,1.77,1.77,0,1,0,3.51,0Z" transform="translate(-1.19)"/><path class="cls-9" d="M22.87,290.25a2.33,2.33,0,0,1,1.21-1.87v-.06a1.55,1.55,0,0,1-.74-1.36,2,2,0,0,1,.91-1.53v-.07a2.86,2.86,0,0,1-1.07-2.22,2.93,2.93,0,0,1,3.1-2.94,3.51,3.51,0,0,1,1.17.2h2.88v1.08h-1.7a2.36,2.36,0,0,1,.67,1.7,3,3,0,0,1-4.25,2.58,1.22,1.22,0,0,0-.53,1c0,.52.34.9,1.45.9h1.61c1.92,0,2.88.6,2.88,2,0,1.54-1.62,2.86-4.17,2.86C24.26,292.47,22.87,291.68,22.87,290.25Zm6.22-.43c0-.76-.58-1-1.66-1H26a4.67,4.67,0,0,1-1.07-.12,1.72,1.72,0,0,0-.84,1.39c0,.88.89,1.44,2.39,1.44S29.09,290.68,29.09,289.82ZM28,283.14a1.77,1.77,0,1,0-3.52,0,1.77,1.77,0,1,0,3.52,0Z" transform="translate(-1.19)"/><path class="cls-9" d="M31.78,287.81a1,1,0,1,1,1,1.06A1,1,0,0,1,31.78,287.81Z" transform="translate(-1.19)"/><path class="cls-9" d="M36.05,277.8a1,1,0,0,1,1.93,0,1,1,0,0,1-1.93,0Zm.25,2.6h1.4v8.27H36.3Z" transform="translate(-1.19)"/><path class="cls-9" d="M39.88,284.54c0-2.75,1.8-4.34,3.82-4.34s3.83,1.59,3.83,4.34-1.8,4.33-3.83,4.33S39.88,287.28,39.88,284.54Zm6.21,0c0-1.89-1-3.18-2.39-3.18s-2.38,1.29-2.38,3.18,1,3.17,2.38,3.17S46.09,286.44,46.09,284.54Z" transform="translate(-1.19)"/></g><polygon class="cls-10" points="453.1 43.5 454.28 43.79 452.86 85.98 451.68 85.69 453.1 43.5"/><polygon class="cls-10" points="449.47 82.97 454.75 84.26 451.93 92.57 449.47 82.97"/><text class="cls-11" transform="translate(208.45 248.57)"><tspan class="cls-12">R</tspan><tspan x="9.76" y="0">ear</tspan></text><text class="cls-11" transform="translate(433.45 34.57)"><tspan class="cls-13">F</tspan><tspan class="cls-14" x="8.3" y="0">r</tspan><tspan x="14" y="0">o</tspan><tspan class="cls-15" x="23.89" y="0">n</tspan><tspan x="33.8" y="0">t</tspan></text><polygon class="cls-10" points="227.12 231.5 225.94 231.22 227.35 189.38 228.53 189.66 227.12 231.5"/><polygon class="cls-10" points="230.75 192.36 225.47 191.09 228.29 182.84 230.75 192.36"/><path class="cls-16" d="M54.87,122.55l-8.5,10.36a1.74,1.74,0,0,1-1.35.59H9.76c-1.34,0-2.1-1.23-1.31-2.1L17.83,121a1.75,1.75,0,0,1,1.3-.54H53.51C54.81,120.5,55.58,121.67,54.87,122.55Z" transform="translate(-1.19)"/><path class="cls-16" d="M49.12,170.23l8-8.31a1.9,1.9,0,0,0,.46-1.32V126.09c0-1.3-.95-2-1.62-1.28L48,134a2,2,0,0,0-.42,1.28v33.64C47.54,170.18,48.45,170.93,49.12,170.23Z" transform="translate(-1.19)"/><rect class="cls-1" x="82.55" y="134.5" width="37" height="39" rx="2.26" ry="2.26" transform="translate(-54.14 255.05) rotate(-90)"/><text class="cls-2" transform="translate(76.36 112.06)"><tspan class="cls-3">Q</tspan><tspan x="10.38" y="0">ueue[98]</tspan></text><path class="cls-16" d="M129.87,122.55l-8.5,10.36a1.74,1.74,0,0,1-1.35.59H84.76c-1.34,0-2.1-1.23-1.31-2.1L92.83,121a1.75,1.75,0,0,1,1.3-.54h34.38C129.81,120.5,130.58,121.67,129.87,122.55Z" transform="translate(-1.19)"/><path class="cls-16" d="M124.12,170.23l8-8.31a1.9,1.9,0,0,0,.46-1.32V126.09c0-1.3-1-2-1.62-1.28L123,134a2,2,0,0,0-.42,1.28v33.64C122.54,170.18,123.45,170.93,124.12,170.23Z" transform="translate(-1.19)"/><rect class="cls-1" x="284.55" y="134.5" width="37" height="39" rx="2.26" ry="2.26" transform="translate(147.86 457.05) rotate(-90)"/><text class="cls-2" transform="translate(278.36 112.06)"><tspan class="cls-3">Q</tspan><tspan x="10.38" y="0">ueue[3]</tspan></text><path class="cls-16" d="M331.87,122.55l-8.5,10.36a1.74,1.74,0,0,1-1.35.59H286.76c-1.34,0-2.1-1.23-1.31-2.1L294.83,121a1.75,1.75,0,0,1,1.3-.54h34.38C331.81,120.5,332.58,121.67,331.87,122.55Z" transform="translate(-1.19)"/><path class="cls-16" d="M326.12,170.23l8-8.31a1.9,1.9,0,0,0,.46-1.32V126.09c0-1.3-.95-2-1.62-1.28L325,134a2,2,0,0,0-.42,1.28v33.64C324.54,170.18,325.45,170.93,326.12,170.23Z" transform="translate(-1.19)"/><rect class="cls-1" x="211.55" y="134.5" width="37" height="39" rx="2.26" ry="2.26" transform="translate(74.86 384.05) rotate(-90)"/><text class="cls-2" transform="translate(205.36 112.06)"><tspan class="cls-3">Q</tspan><tspan x="10.38" y="0">ueue[4]</tspan></text><path class="cls-16" d="M258.87,122.55l-8.5,10.36a1.74,1.74,0,0,1-1.35.59H213.76c-1.34,0-2.1-1.23-1.31-2.1L221.83,121a1.75,1.75,0,0,1,1.3-.54h34.38C258.81,120.5,259.58,121.67,258.87,122.55Z" transform="translate(-1.19)"/><path class="cls-16" d="M253.12,170.23l8-8.31a1.9,1.9,0,0,0,.46-1.32V126.09c0-1.3-.95-2-1.62-1.28L252,134a2,2,0,0,0-.42,1.28v33.64C251.54,170.18,252.45,170.93,253.12,170.23Z" transform="translate(-1.19)"/><rect class="cls-17" x="327.55" y="260.5" width="37" height="39" rx="2.26" ry="2.26" transform="translate(64.86 626.05) rotate(-90)"/><path class="cls-18" d="M374.87,248.55l-8.5,10.36a1.74,1.74,0,0,1-1.35.59H329.76c-1.34,0-2.1-1.23-1.31-2.1L337.83,247a1.75,1.75,0,0,1,1.3-.54h34.38C374.81,246.5,375.58,247.67,374.87,248.55Z" transform="translate(-1.19)"/><path class="cls-18" d="M369.12,296.23l8-8.31a1.9,1.9,0,0,0,.46-1.32V252.09c0-1.3-.95-2.05-1.62-1.28L368,260a2,2,0,0,0-.42,1.28v33.64C367.54,296.18,368.45,296.93,369.12,296.23Z" transform="translate(-1.19)"/><rect class="cls-1" x="358.55" y="134.5" width="37" height="39" rx="2.26" ry="2.26" transform="translate(221.86 531.05) rotate(-90)"/><text class="cls-2" transform="translate(352.36 112.06)"><tspan class="cls-3">Q</tspan><tspan x="10.38" y="0">ueue[2]</tspan></text><path class="cls-16" d="M405.87,122.55l-8.5,10.36a1.74,1.74,0,0,1-1.35.59H360.76c-1.34,0-2.1-1.23-1.31-2.1L368.83,121a1.75,1.75,0,0,1,1.3-.54h34.38C405.81,120.5,406.58,121.67,405.87,122.55Z" transform="translate(-1.19)"/><path class="cls-16" d="M400.12,170.23l8-8.31a1.9,1.9,0,0,0,.46-1.32V126.09c0-1.3-.95-2-1.62-1.28L399,134a2,2,0,0,0-.42,1.28v33.64C398.54,170.18,399.45,170.93,400.12,170.23Z" transform="translate(-1.19)"/><rect class="cls-1" x="430.55" y="134.5" width="37" height="39" rx="2.26" ry="2.26" transform="translate(293.86 603.05) rotate(-90)"/><text class="cls-2" transform="translate(424.36 112.06)"><tspan class="cls-3">Q</tspan><tspan x="10.38" y="0">ueue[1]</tspan></text><path class="cls-16" d="M477.87,122.55l-8.5,10.36a1.74,1.74,0,0,1-1.35.59H432.76c-1.34,0-2.1-1.23-1.31-2.1L440.83,121a1.75,1.75,0,0,1,1.3-.54h34.38C477.81,120.5,478.58,121.67,477.87,122.55Z" transform="translate(-1.19)"/><path class="cls-16" d="M472.12,170.23l8-8.31a1.9,1.9,0,0,0,.46-1.32V126.09c0-1.3-.95-2-1.62-1.28L471,134a2,2,0,0,0-.42,1.28v33.64C470.54,170.18,471.45,170.93,472.12,170.23Z" transform="translate(-1.19)"/><rect class="cls-19" x="504.55" y="134.5" width="37" height="39" rx="2.26" ry="2.26" transform="translate(367.86 677.05) rotate(-90)"/><text class="cls-2" transform="translate(498.36 112.06)"><tspan class="cls-3">Q</tspan><tspan x="10.38" y="0">ueue[0]</tspan></text><path class="cls-20" d="M551.87,122.55l-8.5,10.36a1.74,1.74,0,0,1-1.35.59H506.76c-1.34,0-2.1-1.23-1.31-2.1L514.83,121a1.75,1.75,0,0,1,1.3-.54h34.38C551.81,120.5,552.58,121.67,551.87,122.55Z" transform="translate(-1.19)"/><path class="cls-20" d="M546.12,170.23l8-8.31a1.9,1.9,0,0,0,.46-1.32V126.09c0-1.3-.95-2-1.62-1.28L545,134a2,2,0,0,0-.42,1.28v33.64C544.54,170.18,545.45,170.93,546.12,170.23Z" transform="translate(-1.19)"/><rect class="cls-1" x="169.55" y="143.5" width="6" height="6" rx="3" ry="3" transform="translate(24.86 319.05) rotate(-90)"/><rect class="cls-1" x="179.55" y="143.5" width="6" height="6" rx="3" ry="3" transform="translate(34.86 329.05) rotate(-90)"/><text class="cls-21" transform="translate(516.36 160.91)">1</text><text class="cls-21" transform="translate(339.36 286.91)">1</text><text class="cls-21" transform="translate(441.36 160.91)">2</text><text class="cls-21" transform="translate(370.36 160.91)">8</text><text class="cls-21" transform="translate(290.36 160.91)">10</text></g></g></svg>