<svg xmlns="http://www.w3.org/2000/svg" viewBox="0 0 487.41 264.48"><defs><style>.cls-1,.cls-2{fill:#4d4d4d;}.cls-1{stroke:#4d4d4d;stroke-width:3px;}.cls-1,.cls-5{stroke-miterlimit:10;}.cls-3{opacity:0.5;}.cls-4{fill:#666;}.cls-5{font-size:15.32px;stroke:#000;font-family:MyriadPro-Regular, Myriad Pro;}.cls-6{letter-spacing:0em;}.cls-7{letter-spacing:0em;}.cls-8{letter-spacing:-0.03em;}.cls-9{letter-spacing:-0.01em;}.cls-10{letter-spacing:0em;}.cls-11,.cls-12{fill:#00aa94;}.cls-11,.cls-13{opacity:0.8;}.cls-13,.cls-14{fill:#008194;}</style></defs><title>자산 12</title><g id="레이어_2" data-name="레이어 2"><g id="레이어_1-2" data-name="레이어 1"><line class="cls-1" x1="258.11" y1="135.53" x2="225.74" y2="136.46"/><path class="cls-2" d="M258.23,143.32l-.75-15.9c-.08-1.78,2.41-2.66,3.73-1.31l7.6,7.79a1.72,1.72,0,0,1,.1,2.37l-6.86,8.1C260.85,145.79,258.31,145.09,258.23,143.32Z" transform="translate(-1.14)"/><g class="cls-3"><path class="cls-4" d="M1.14,249.29a.82.82,0,0,1,.92-.77.83.83,0,0,1,.93.77.84.84,0,0,1-.93.76A.83.83,0,0,1,1.14,249.29Zm.24,2.21H2.72v7H1.38Z" transform="translate(-1.14)"/><path class="cls-4" d="M5.4,251.5H6.5l.12,1h0a4,4,0,0,1,2.66-1.18c1.67,0,2.42.95,2.42,2.75v4.45H10.4v-4.3c0-1.31-.45-1.87-1.5-1.87a3.12,3.12,0,0,0-2.16,1.08v5.09H5.4Z" transform="translate(-1.14)"/><path class="cls-4" d="M13.71,259.88a2,2,0,0,1,1.16-1.59v-.06a1.26,1.26,0,0,1-.71-1.15,1.65,1.65,0,0,1,.87-1.3v-.06a2.39,2.39,0,0,1-1-1.89c0-1.54,1.37-2.5,3-2.5a3.57,3.57,0,0,1,1.12.17h2.76v.92H19.23a1.89,1.89,0,0,1,.65,1.44c0,1.51-1.28,2.44-2.9,2.44a3,3,0,0,1-1.18-.24,1,1,0,0,0-.51.83c0,.45.33.77,1.39.77h1.54c1.84,0,2.77.51,2.77,1.68s-1.56,2.43-4,2.43C15,261.77,13.71,261.09,13.71,259.88Zm6-.37c0-.65-.56-.87-1.6-.87H16.71a5.59,5.59,0,0,1-1-.1,1.43,1.43,0,0,0-.8,1.17c0,.76.85,1.24,2.29,1.24S19.68,260.25,19.68,259.51Zm-1-5.68A1.59,1.59,0,0,0,17,252.19a1.59,1.59,0,0,0-1.69,1.64,1.69,1.69,0,0,0,3.37,0Z" transform="translate(-1.14)"/><path class="cls-4" d="M21.93,259.88a2,2,0,0,1,1.16-1.59v-.06a1.26,1.26,0,0,1-.71-1.15,1.65,1.65,0,0,1,.87-1.3v-.06a2.39,2.39,0,0,1-1-1.89c0-1.54,1.37-2.5,3-2.5a3.45,3.45,0,0,1,1.11.17h2.77v.92H27.45a1.89,1.89,0,0,1,.65,1.44c0,1.51-1.28,2.44-2.9,2.44a3,3,0,0,1-1.18-.24,1,1,0,0,0-.51.83c0,.45.33.77,1.39.77h1.54c1.84,0,2.77.51,2.77,1.68s-1.56,2.43-4,2.43C23.26,261.77,21.93,261.09,21.93,259.88Zm6-.37c0-.65-.56-.87-1.6-.87H24.93a5.51,5.51,0,0,1-1-.1,1.45,1.45,0,0,0-.81,1.17c0,.76.86,1.24,2.3,1.24S27.9,260.25,27.9,259.51Zm-1-5.68a1.69,1.69,0,0,0-3.37,0,1.69,1.69,0,0,0,3.37,0Z" transform="translate(-1.14)"/><path class="cls-4" d="M30.47,257.8a1,1,0,1,1,1,.91A.93.93,0,0,1,30.47,257.8Z" transform="translate(-1.14)"/><path class="cls-4" d="M34.56,249.29a.83.83,0,0,1,.93-.77.82.82,0,0,1,.92.77.83.83,0,0,1-.92.76A.84.84,0,0,1,34.56,249.29Zm.25,2.21h1.34v7H34.81Z" transform="translate(-1.14)"/><path class="cls-4" d="M38.23,255a3.67,3.67,0,1,1,3.67,3.69A3.55,3.55,0,0,1,38.23,255Zm6,0c0-1.61-.92-2.7-2.29-2.7s-2.28,1.09-2.28,2.7.92,2.69,2.28,2.69S44.19,256.64,44.19,255Z" transform="translate(-1.14)"/></g><polygon points="122.18 102.04 123.77 103.31 87.61 155.79 86.02 154.51 122.18 102.04"/><polygon points="84.78 149.35 91.92 155.06 80.86 163.44 84.78 149.35"/><text class="cls-5" transform="translate(67.55 231.21) scale(1.13 1)"><tspan class="cls-6">R</tspan><tspan x="8.3" y="0">ear</tspan></text><text class="cls-5" transform="translate(405.04 260.15) scale(1.13 1)"><tspan class="cls-7">R</tspan><tspan x="8.3" y="0">ear</tspan></text><text class="cls-5" transform="translate(71.38 41.41) scale(1.13 1)"><tspan class="cls-8">F</tspan><tspan class="cls-9" x="7.06" y="0">r</tspan><tspan x="11.92" y="0">o</tspan><tspan class="cls-10" x="20.33" y="0">n</tspan><tspan x="28.77" y="0">t</tspan></text><text class="cls-5" transform="translate(410.79 13.32) scale(1.13 1)"><tspan class="cls-8">F</tspan><tspan class="cls-9" x="7.06" y="0">r</tspan><tspan x="11.92" y="0">o</tspan><tspan class="cls-10" x="20.33" y="0">n</tspan><tspan x="28.77" y="0">t</tspan></text><rect class="cls-11" x="48.54" y="45.94" width="31.49" height="69.99" rx="2.26" ry="2.26" transform="translate(-17.79 145.21) rotate(-90)"/><path class="cls-12" d="M107.26,54.3l-8.15,9.5a1.72,1.72,0,0,1-1.29.53H64c-1.27,0-2-1.12-1.25-1.92l9-9.5A1.75,1.75,0,0,1,73,52.42h33C107.2,52.42,107.94,53.49,107.26,54.3Z" transform="translate(-1.14)"/><path class="cls-12" d="M74.66,54.3l-8.15,9.5a1.72,1.72,0,0,1-1.29.53H31.41c-1.28,0-2-1.12-1.26-1.92l9-9.5a1.75,1.75,0,0,1,1.26-.49h33C74.6,52.42,75.35,53.49,74.66,54.3Z" transform="translate(-1.14)"/><rect class="cls-13" x="103.19" y="62.23" width="31.49" height="37.39" rx="2.26" ry="2.26" transform="translate(36.87 199.86) rotate(-90)"/><path class="cls-14" d="M146,54.3l-8.15,9.5a1.71,1.71,0,0,1-1.29.53h-33.8c-1.28,0-2-1.12-1.26-1.92l9-9.5a1.75,1.75,0,0,1,1.26-.49H144.7C145.94,52.42,146.68,53.49,146,54.3Z" transform="translate(-1.14)"/><path class="cls-14" d="M140.1,96.44l7.64-7.38a1.63,1.63,0,0,0,.44-1.18V57.24c0-1.16-.91-1.83-1.55-1.14L139,64.25a1.7,1.7,0,0,0-.4,1.14V95.26C138.59,96.39,139.45,97.06,140.1,96.44Z" transform="translate(-1.14)"/><rect class="cls-11" x="48.54" y="162.54" width="31.49" height="69.99" rx="2.26" ry="2.26" transform="translate(-134.39 261.82) rotate(-90)"/><path class="cls-12" d="M107.26,170.9l-8.15,9.5a1.69,1.69,0,0,1-1.29.54H64c-1.27,0-2-1.13-1.25-1.93l9-9.5A1.79,1.79,0,0,1,73,169h33C107.2,169,107.94,170.1,107.26,170.9Z" transform="translate(-1.14)"/><path class="cls-12" d="M74.66,170.9l-8.15,9.5a1.69,1.69,0,0,1-1.29.54H31.41c-1.28,0-2-1.13-1.26-1.93l9-9.5A1.79,1.79,0,0,1,40.4,169h33C74.6,169,75.35,170.1,74.66,170.9Z" transform="translate(-1.14)"/><rect class="cls-13" x="103.19" y="178.84" width="31.49" height="37.39" rx="2.26" ry="2.26" transform="translate(-79.74 316.47) rotate(-90)"/><path class="cls-14" d="M146,170.9l-8.15,9.5a1.68,1.68,0,0,1-1.29.54h-33.8c-1.28,0-2-1.13-1.26-1.93l9-9.5a1.79,1.79,0,0,1,1.26-.49H144.7C145.94,169,146.68,170.1,146,170.9Z" transform="translate(-1.14)"/><path class="cls-14" d="M140.1,213l7.64-7.38a1.61,1.61,0,0,0,.44-1.17V173.84c0-1.16-.91-1.82-1.55-1.14L139,180.85a1.7,1.7,0,0,0-.4,1.14v29.88C138.59,213,139.45,213.67,140.1,213Z" transform="translate(-1.14)"/><path d="M145.42,193.78c8-1.53,10.82,7.22,9.55,13.53-1.09,5.4-5.21,8.12-10.29,9.25s-10.74,1.13-14.55-2.89-5.78-10.22-6.49-15.71a1.51,1.51,0,0,0-3-.4L118,204.24l2.9.8a21.71,21.71,0,0,1,2.65-6.35l-2.36.3a42,42,0,0,0,5.59,3.75c1.68.94,3.2-1.65,1.51-2.59a36.56,36.56,0,0,1-5-3.28,1.52,1.52,0,0,0-2.35.3,24.44,24.44,0,0,0-3,7.07,1.51,1.51,0,0,0,2.9.8l2.72-6.68-3-.4c.91,7,3.61,16,10,20.06,5.75,3.67,14.8,2.54,20.52-.67,11.39-6.38,8.64-29.38-6.55-26.46-1.89.36-1.09,3.25.8,2.89Z" transform="translate(-1.14)"/><rect class="cls-11" x="388.91" y="15.29" width="31.49" height="69.99" rx="2.26" ry="2.26" transform="translate(353.22 454.94) rotate(-90)"/><path class="cls-12" d="M447.62,23.66l-8.14,9.49a1.69,1.69,0,0,1-1.29.54H404.37c-1.27,0-2-1.12-1.25-1.92l9-9.5a1.75,1.75,0,0,1,1.26-.49h33C447.57,21.78,448.31,22.85,447.62,23.66Z" transform="translate(-1.14)"/><path class="cls-12" d="M415,23.66l-8.15,9.49a1.69,1.69,0,0,1-1.29.54H371.77c-1.27,0-2-1.12-1.25-1.92l9-9.5a1.75,1.75,0,0,1,1.26-.49h33C415,21.78,415.71,22.85,415,23.66Z" transform="translate(-1.14)"/><rect class="cls-13" x="443.56" y="31.59" width="31.49" height="37.39" rx="2.26" ry="2.26" transform="translate(407.87 509.59) rotate(-90)"/><path class="cls-14" d="M486.36,23.66l-8.14,9.49a1.69,1.69,0,0,1-1.29.54H443.12c-1.27,0-2-1.12-1.25-1.92l9-9.5a1.73,1.73,0,0,1,1.25-.49h33C486.31,21.78,487.05,22.85,486.36,23.66Z" transform="translate(-1.14)"/><path class="cls-14" d="M480.47,65.8l7.64-7.38a1.69,1.69,0,0,0,.44-1.18V26.6c0-1.16-.91-1.83-1.55-1.14l-7.65,8.15a1.69,1.69,0,0,0-.39,1.14V64.62C479,65.75,479.82,66.42,480.47,65.8Z" transform="translate(-1.14)"/><rect class="cls-11" x="385.07" y="190.63" width="31.49" height="69.99" rx="2.26" ry="2.26" transform="translate(174.06 626.44) rotate(-90)"/><path class="cls-12" d="M443.79,199l-8.14,9.5a1.75,1.75,0,0,1-1.3.54H400.54c-1.28,0-2-1.13-1.26-1.93l9-9.5a1.73,1.73,0,0,1,1.25-.49h33C443.74,197.11,444.48,198.19,443.79,199Z" transform="translate(-1.14)"/><path class="cls-12" d="M411.19,199l-8.14,9.5a1.75,1.75,0,0,1-1.3.54H367.94c-1.28,0-2-1.13-1.25-1.93l9-9.5a1.73,1.73,0,0,1,1.25-.49h33C411.14,197.11,411.88,198.19,411.19,199Z" transform="translate(-1.14)"/><rect class="cls-13" x="439.72" y="206.93" width="31.49" height="37.39" rx="2.26" ry="2.26" transform="translate(228.71 681.09) rotate(-90)"/><path class="cls-14" d="M482.53,199l-8.14,9.5a1.75,1.75,0,0,1-1.3.54h-33.8c-1.28,0-2-1.13-1.25-1.93l9-9.5a1.71,1.71,0,0,1,1.25-.49h33C482.48,197.11,483.22,198.19,482.53,199Z" transform="translate(-1.14)"/><path class="cls-14" d="M476.63,241.13l7.65-7.38a1.65,1.65,0,0,0,.43-1.18V201.93c0-1.16-.91-1.82-1.55-1.14l-7.64,8.15a1.7,1.7,0,0,0-.4,1.14V240C475.12,241.08,476,241.75,476.63,241.13Z" transform="translate(-1.14)"/><rect class="cls-11" x="352.47" y="103.81" width="31.49" height="69.99" rx="2.26" ry="2.26" transform="translate(228.27 507.02) rotate(-90)"/><path class="cls-12" d="M411.19,112.17l-8.14,9.5a1.71,1.71,0,0,1-1.3.54H367.94c-1.28,0-2-1.13-1.25-1.92l9-9.5a1.73,1.73,0,0,1,1.25-.5h33C411.14,110.29,411.88,111.37,411.19,112.17Z" transform="translate(-1.14)"/><path class="cls-12" d="M378.59,112.17l-8.14,9.5a1.71,1.71,0,0,1-1.3.54H335.34c-1.28,0-2-1.13-1.25-1.92l9-9.5a1.73,1.73,0,0,1,1.25-.5h33C378.54,110.29,379.28,111.37,378.59,112.17Z" transform="translate(-1.14)"/><rect class="cls-13" x="407.12" y="120.11" width="31.49" height="37.39" rx="2.26" ry="2.26" transform="translate(282.92 561.68) rotate(-90)"/><path class="cls-14" d="M449.93,112.17l-8.14,9.5a1.71,1.71,0,0,1-1.3.54h-33.8c-1.28,0-2-1.13-1.25-1.92l9-9.5a1.73,1.73,0,0,1,1.25-.5h33C449.88,110.29,450.62,111.37,449.93,112.17Z" transform="translate(-1.14)"/><path class="cls-14" d="M444,154.31l7.64-7.38a1.64,1.64,0,0,0,.43-1.17V115.11c0-1.15-.9-1.82-1.55-1.13l-7.64,8.15a1.65,1.65,0,0,0-.4,1.13v29.88C442.52,154.27,443.39,154.94,444,154.31Z" transform="translate(-1.14)"/><text class="cls-5" transform="translate(356.14 169.08) scale(1.13 1)">ptrNode</text><polygon points="466.2 58.38 467.27 59.38 443.01 100.85 441.94 99.84 466.2 58.38"/><polygon points="441.12 95.76 445.9 100.27 438.49 106.89 441.12 95.76"/><polygon points="422.46 147.35 423.81 147 435.84 184.87 434.49 185.23 422.46 147.35"/><polygon points="431.25 183.97 437.31 182.38 436.96 191.15 431.25 183.97"/><polygon points="467.73 205 466.6 205.63 449.99 158.7 451.13 158.07 467.73 205"/><polygon points="454.17 159.27 449.1 162.07 448.01 150.81 454.17 159.27"/></g></g></svg>