<svg xmlns="http://www.w3.org/2000/svg" viewBox="0 0 723.93 506"><defs><style>.cls-1{opacity:0.5;}.cls-2{fill:#999;}.cls-3{fill:#00aa94;}.cls-18,.cls-25,.cls-3,.cls-31,.cls-4,.cls-49,.cls-8{stroke:#000;}.cls-15,.cls-16,.cls-17,.cls-18,.cls-20,.cls-25,.cls-3,.cls-31,.cls-4,.cls-49,.cls-50,.cls-7,.cls-8{stroke-miterlimit:10;}.cls-3,.cls-7{opacity:0.8;}.cls-4{font-size:14.06px;}.cls-18,.cls-25,.cls-31,.cls-4,.cls-8{font-family:MyriadPro-Regular, Myriad Pro;}.cls-5{letter-spacing:-0.03em;}.cls-14,.cls-17,.cls-49,.cls-6{font-family:NanumGothic, Nanum Gothic;}.cls-6{letter-spacing:0em;}.cls-7{fill:#ccc;stroke:#4d4d4d;}.cls-8{font-size:13.14px;}.cls-9{letter-spacing:-0.01em;}.cls-10{letter-spacing:-0.01em;}.cls-11{letter-spacing:0em;}.cls-12{letter-spacing:0.01em;}.cls-13{letter-spacing:0.01em;}.cls-15,.cls-16{fill:gray;}.cls-15,.cls-16,.cls-20,.cls-50{stroke:gray;}.cls-16{stroke-width:1.5px;}.cls-17{font-size:11.82px;fill:#c1272d;stroke:#c1272d;}.cls-18{font-size:14.98px;}.cls-19{letter-spacing:-0.02em;}.cls-20{fill:#666;}.cls-21{letter-spacing:-0.03em;}.cls-22{letter-spacing:0em;}.cls-23{letter-spacing:-0.03em;}.cls-24{letter-spacing:-0.09em;}.cls-25{font-size:12.22px;}.cls-26{letter-spacing:-0.01em;}.cls-27{letter-spacing:0em;}.cls-28{letter-spacing:0em;}.cls-29{letter-spacing:-0.03em;}.cls-30{letter-spacing:-0.09em;}.cls-31{font-size:13.14px;}.cls-32{letter-spacing:0em;}.cls-33{letter-spacing:-0.01em;}.cls-34{letter-spacing:0.03em;}.cls-35{letter-spacing:-0.09em;}.cls-36{letter-spacing:-0.02em;}.cls-37{letter-spacing:-0.01em;}.cls-38{letter-spacing:-0.01em;}.cls-39{letter-spacing:0.01em;}.cls-40{letter-spacing:-0.01em;}.cls-41{letter-spacing:0.01em;}.cls-42{letter-spacing:0.01em;}.cls-43{letter-spacing:0em;}.cls-44{letter-spacing:-0.01em;}.cls-45{letter-spacing:-0.02em;}.cls-46{letter-spacing:-0.01em;}.cls-47{letter-spacing:-0.01em;}.cls-48{letter-spacing:0.01em;}.cls-49{font-size:12.33px;}.cls-50{fill:none;stroke-width:3px;}</style></defs><title>자산 15@0.2x</title><g id="레이어_2" data-name="레이어 2"><g id="레이어_1-2" data-name="레이어 1"><g class="cls-1"><path class="cls-2" d="M644.71,474.63l1.32,0-.19,7.22-1.32,0Zm-.19-2.29a.84.84,0,0,1,.94-.76.82.82,0,0,1,.89.81.92.92,0,0,1-1.83-.05Z"/><path class="cls-2" d="M648.67,474.73l1.1,0,.08,1h0a3.82,3.82,0,0,1,2.66-1.15c1.65,0,2.36,1,2.31,2.89l-.12,4.57-1.32,0,.12-4.42c0-1.34-.4-1.93-1.43-2a3,3,0,0,0-2.17,1.05l-.14,5.23-1.32,0Z"/><path class="cls-2" d="M656.66,483.55a2,2,0,0,1,1.19-1.6v-.06a1.3,1.3,0,0,1-.67-1.2,1.7,1.7,0,0,1,.89-1.32v-.06a2.48,2.48,0,0,1-1-2,2.69,2.69,0,0,1,3-2.49,3.67,3.67,0,0,1,1.1.2l2.73.08,0,.94-1.6-.05a2,2,0,0,1,.6,1.51A2.61,2.61,0,0,1,660,480a3,3,0,0,1-1.16-.28,1,1,0,0,0-.52.84c0,.46.3.79,1.35.82l1.53,0c1.82.05,2.72.6,2.69,1.8s-1.61,2.45-4,2.39C657.94,485.52,656.63,484.79,656.66,483.55Zm5.92-.22c0-.67-.53-.92-1.56-.94l-1.35,0a4.66,4.66,0,0,1-1-.13,1.48,1.48,0,0,0-.83,1.19c0,.77.81,1.29,2.23,1.32S662.56,484.08,662.58,483.33Zm-.86-5.87a1.66,1.66,0,1,0-3.32-.08,1.66,1.66,0,1,0,3.32.08Z"/><path class="cls-2" d="M664.79,483.76a2,2,0,0,1,1.19-1.6v-.06a1.34,1.34,0,0,1-.67-1.2,1.73,1.73,0,0,1,.9-1.32v-.06a2.42,2.42,0,0,1-1-2,2.69,2.69,0,0,1,3-2.49,3.61,3.61,0,0,1,1.1.2l2.73.08,0,.94-1.61,0a2,2,0,0,1,.6,1.5,2.6,2.6,0,0,1-2.93,2.43,3,3,0,0,1-1.16-.28,1,1,0,0,0-.52.84c0,.46.3.79,1.35.82l1.52,0c1.82.05,2.73.6,2.69,1.8s-1.6,2.45-4,2.39C666.06,485.73,664.76,485,664.79,483.76Zm5.91-.22c0-.67-.53-.91-1.55-.94l-1.35,0a4.26,4.26,0,0,1-1-.13,1.49,1.49,0,0,0-.83,1.19c0,.78.82,1.29,2.24,1.32S670.68,484.29,670.7,483.54Zm-.85-5.87a1.67,1.67,0,1,0-3.33-.08,1.67,1.67,0,1,0,3.33.08Z"/><path class="cls-2" d="M673.29,481.85a1,1,0,1,1,.94.95A.93.93,0,0,1,673.29,481.85Z"/><path class="cls-2" d="M676.92,479.08a3.52,3.52,0,0,1,3.49-3.71,3.37,3.37,0,0,1,2.17.9l0-1.24.08-2.78,1.32,0-.27,10.58-1.1,0-.09-.86h0a3.63,3.63,0,0,1-2.4,1C678.09,482.9,676.86,481.49,676.92,479.08ZM682.4,481l.1-3.78a2.84,2.84,0,0,0-1.89-.8c-1.25,0-2.28,1-2.32,2.7s.7,2.78,2.08,2.82A2.75,2.75,0,0,0,682.4,481Z"/><path class="cls-2" d="M685.83,479.32a3.6,3.6,0,0,1,3.62-3.71c2,.05,3.09,1.4,3,3.47a4.1,4.1,0,0,1-.08.69l-5.27-.14a2.49,2.49,0,0,0,2.53,2.59,3.63,3.63,0,0,0,2-.52l.45.81a4.83,4.83,0,0,1-2.61.68A3.58,3.58,0,0,1,685.83,479.32Zm5.49-.45c0-1.45-.65-2.25-1.87-2.29a2.31,2.31,0,0,0-2.3,2.18Z"/><path class="cls-2" d="M693.45,475.89l1.37,0,1.37,4.14c.21.71.45,1.45.67,2.15h.06c.25-.69.53-1.41.78-2.11l1.58-4.07,1.3,0-3,7.15-1.54,0Z"/></g><rect class="cls-3" x="73.93" y="100" width="83" height="148" rx="3.4" ry="3.4" transform="translate(-58.57 289.43) rotate(-90)"/><text class="cls-4" transform="translate(55.74 156.77) scale(0.99 1)"><tspan class="cls-5">P</tspan><tspan x="7.13" y="0">erson( ) </tspan><tspan class="cls-6" x="53.81" y="0">생성자 함수</tspan></text><rect class="cls-7" x="99.93" y="125.5" width="30" height="132" rx="2.58" ry="2.58" transform="translate(-76.57 306.43) rotate(-90)"/><text class="cls-8" transform="translate(84.74 196) scale(1.19 1)">p<tspan class="cls-9" x="7.48" y="0">r</tspan><tspan x="11.64" y="0">o</tspan><tspan class="cls-10" x="18.86" y="0">t</tspan><tspan class="cls-11" x="23.13" y="0">o</tspan><tspan class="cls-12" x="30.34" y="0">t</tspan><tspan x="34.81" y="0">ype</tspan></text><rect class="cls-3" x="354.93" y="-32" width="83" height="148" rx="3.4" ry="3.4" transform="translate(354.43 438.43) rotate(-90)"/><text class="cls-4" transform="translate(355.74 29.77) scale(0.99 1)">Obje<tspan class="cls-13" x="28.15" y="0">c</tspan><tspan x="34.63" y="0">t( ) </tspan><tspan class="cls-14" x="53.23" y="0">함수</tspan></text><rect class="cls-3" x="607.93" y="-32" width="83" height="148" rx="3.4" ry="3.4" transform="translate(607.43 691.43) rotate(-90)"/><rect class="cls-7" x="633.93" y="-6.5" width="30" height="132" rx="2.58" ry="2.58" transform="translate(589.43 708.43) rotate(-90)"/><polygon class="cls-15" points="318.52 214.31 313.09 208.47 318.43 208.82 318.52 214.31"/><line class="cls-16" x1="316.53" y1="195.82" x2="170.93" y2="197"/><polygon class="cls-15" points="315.82 199.85 315.94 191.87 318.5 195.84 315.82 199.85"/><text class="cls-17" transform="translate(328.74 280.9) scale(1.15 1)">변경 후 프로토타입 객체</text><rect class="cls-3" x="65.43" y="238.5" width="100" height="148" rx="3.73" ry="3.73" transform="translate(-197.07 427.93) rotate(-90)"/><rect class="cls-7" x="85.18" y="257.75" width="59.5" height="132" rx="3.63" ry="3.63" transform="translate(-208.82 438.68) rotate(-90)"/><text class="cls-18" transform="translate(62.74 313.54) scale(1.02 1)">name</text><text class="cls-8" transform="translate(75.74 343) scale(1.19 1)">[[<tspan class="cls-19" x="7.46" y="0">P</tspan><tspan class="cls-9" x="14.24" y="0">r</tspan><tspan x="18.41" y="0">o</tspan><tspan class="cls-10" x="25.62" y="0">t</tspan><tspan class="cls-11" x="29.89" y="0">o</tspan><tspan class="cls-12" x="37.11" y="0">t</tspan><tspan class="cls-11" x="41.57" y="0">ype]]</tspan></text><line class="cls-20" x1="180.43" y1="324.5" x2="48.93" y2="324.5"/><text class="cls-18" transform="translate(131.74 313.54) scale(1.02 1)">‘<tspan class="cls-21" x="3.1" y="0">F</tspan><tspan class="cls-22" x="9.93" y="0">o</tspan><tspan class="cls-23" x="18.16" y="0">o</tspan><tspan class="cls-24" x="25.88" y="0">’</tspan></text><line class="cls-20" x1="115.43" y1="294" x2="115.43" y2="324.5"/><text class="cls-25" transform="translate(89.74 281.23) scale(1.11 1)"><tspan class="cls-26">f</tspan><tspan class="cls-27" x="3.41" y="0">oo </tspan><tspan class="cls-14" x="19.42" y="0">객체</tspan></text><rect class="cls-3" x="65.43" y="381.5" width="100" height="148" rx="3.73" ry="3.73" transform="translate(-340.07 570.93) rotate(-90)"/><rect class="cls-7" x="85.18" y="400.75" width="59.5" height="132" rx="3.63" ry="3.63" transform="translate(-351.82 581.68) rotate(-90)"/><text class="cls-18" transform="translate(62.74 456.54) scale(1.02 1)">name</text><text class="cls-8" transform="translate(75.74 486) scale(1.19 1)">[[<tspan class="cls-19" x="7.46" y="0">P</tspan><tspan class="cls-9" x="14.24" y="0">r</tspan><tspan x="18.41" y="0">o</tspan><tspan class="cls-10" x="25.62" y="0">t</tspan><tspan class="cls-11" x="29.89" y="0">o</tspan><tspan class="cls-12" x="37.11" y="0">t</tspan><tspan class="cls-11" x="41.57" y="0">ype]]</tspan></text><line class="cls-20" x1="180.43" y1="467.5" x2="48.93" y2="467.5"/><text class="cls-18" transform="translate(131.74 456.54) scale(1.02 1)">‘<tspan class="cls-28" x="3.1" y="0">B</tspan><tspan x="11.28" y="0">o</tspan><tspan class="cls-29" x="19.5" y="0">o</tspan><tspan class="cls-30" x="27.23" y="0">’</tspan></text><line class="cls-20" x1="115.43" y1="437" x2="115.43" y2="467.5"/><text class="cls-25" transform="translate(89.74 424.23) scale(1.11 1)">boo <tspan class="cls-14" x="22.96" y="0">객체</tspan></text><rect class="cls-3" x="346.43" y="267.5" width="100" height="148" rx="3.73" ry="3.73" transform="translate(54.93 737.93) rotate(-90)"/><rect class="cls-7" x="366.18" y="286.75" width="59.5" height="132" rx="3.63" ry="3.63" transform="translate(43.18 748.68) rotate(-90)"/><text class="cls-18" transform="translate(355.74 342.54) scale(1.02 1)">job</text><text class="cls-8" transform="translate(356.74 372) scale(1.19 1)">[[<tspan class="cls-19" x="7.46" y="0">P</tspan><tspan class="cls-9" x="14.24" y="0">r</tspan><tspan x="18.41" y="0">o</tspan><tspan class="cls-10" x="25.62" y="0">t</tspan><tspan class="cls-11" x="29.89" y="0">o</tspan><tspan class="cls-12" x="37.11" y="0">t</tspan><tspan class="cls-11" x="41.57" y="0">ype]]</tspan></text><line class="cls-20" x1="461.43" y1="353.5" x2="329.93" y2="353.5"/><text class="cls-31" transform="translate(401.74 343) scale(0.87 1)">‘<tspan class="cls-32" x="2.72" y="0">D</tspan><tspan x="11.52" y="0">e</tspan><tspan class="cls-33" x="18.11" y="0">v</tspan><tspan x="24.29" y="0">elope</tspan><tspan class="cls-34" x="55.25" y="0">r</tspan><tspan class="cls-35" x="59.94" y="0">’</tspan></text><line class="cls-20" x1="396.43" y1="323" x2="396.43" y2="353.5"/><text class="cls-25" transform="translate(334.74 309.23) scale(1.11 1)"><tspan class="cls-36">P</tspan><tspan class="cls-27" x="6.2" y="0">erson.p</tspan><tspan class="cls-37" x="44.12" y="0">r</tspan><tspan x="48" y="0">o</tspan><tspan class="cls-38" x="54.71" y="0">t</tspan><tspan x="58.68" y="0">o</tspan><tspan class="cls-39" x="65.39" y="0">t</tspan><tspan x="69.54" y="0">ype </tspan><tspan class="cls-14" x="90.96" y="0">객체</tspan></text><rect class="cls-3" x="346.43" y="99.5" width="100" height="148" rx="3.73" ry="3.73" transform="translate(222.93 569.93) rotate(-90)"/><rect class="cls-7" x="366.18" y="118.75" width="59.5" height="132" rx="3.63" ry="3.63" transform="translate(211.18 580.68) rotate(-90)"/><text class="cls-18" transform="translate(361.74 174.54) scale(1.02 1)"><tspan class="cls-40">c</tspan><tspan x="6.62" y="0">onstru</tspan><tspan class="cls-41" x="47.2" y="0">c</tspan><tspan class="cls-40" x="54.11" y="0">t</tspan><tspan x="58.97" y="0">or</tspan></text><text class="cls-8" transform="translate(356.74 204) scale(1.19 1)">[[<tspan class="cls-19" x="7.46" y="0">P</tspan><tspan class="cls-9" x="14.24" y="0">r</tspan><tspan x="18.41" y="0">o</tspan><tspan class="cls-10" x="25.62" y="0">t</tspan><tspan class="cls-11" x="29.89" y="0">o</tspan><tspan class="cls-12" x="37.11" y="0">t</tspan><tspan class="cls-11" x="41.57" y="0">ype]]</tspan></text><line class="cls-20" x1="461.43" y1="185.5" x2="329.93" y2="185.5"/><text class="cls-25" transform="translate(334.74 142.23) scale(1.11 1)"><tspan class="cls-36">P</tspan><tspan class="cls-27" x="6.2" y="0">erson.p</tspan><tspan class="cls-37" x="44.12" y="0">r</tspan><tspan x="48" y="0">o</tspan><tspan class="cls-38" x="54.71" y="0">t</tspan><tspan x="58.68" y="0">o</tspan><tspan class="cls-39" x="65.39" y="0">t</tspan><tspan x="69.54" y="0">ype </tspan><tspan class="cls-14" x="90.96" y="0">객체</tspan></text><text class="cls-18" transform="translate(612.74 63.54) scale(1.02 1)"><tspan class="cls-40">c</tspan><tspan x="6.62" y="0">onstru</tspan><tspan class="cls-41" x="47.2" y="0">c</tspan><tspan class="cls-40" x="54.11" y="0">t</tspan><tspan x="58.97" y="0">or</tspan></text><text class="cls-25" transform="translate(586.74 23.23) scale(1.11 1)">Obje<tspan class="cls-42" x="24.46" y="0">c</tspan><tspan class="cls-43" x="30.1" y="0">t</tspan><tspan x="34.1" y="0">.p</tspan><tspan class="cls-37" x="43.59" y="0">r</tspan><tspan x="47.46" y="0">o</tspan><tspan class="cls-44" x="54.17" y="0">t</tspan><tspan x="58.14" y="0">o</tspan><tspan class="cls-39" x="64.85" y="0">t</tspan><tspan x="69" y="0">ype </tspan><tspan class="cls-14" x="90.42" y="0">객체</tspan></text><line class="cls-16" x1="316.43" y1="210.72" x2="172.93" y2="340"/><polygon class="cls-15" points="591.52 94.56 586.42 89.47 591.44 89.77 591.52 94.56"/><line class="cls-16" x1="589.56" y1="91.43" x2="454.93" y2="204"/><polygon class="cls-15" points="318.52 361.31 313.09 355.47 318.43 355.82 318.52 361.31"/><line class="cls-16" x1="316.43" y1="357.72" x2="172.93" y2="487"/><polygon class="cls-15" points="687.39 105.45 677.23 95.28 686.47 95.1 687.39 105.45"/><line class="cls-16" x1="683.3" y1="99" x2="454.93" y2="365"/><line class="cls-16" x1="195.9" y1="173.93" x2="341.51" y2="174.88"/><polygon class="cls-15" points="196.63 177.96 196.5 169.98 193.94 173.96 196.63 177.96"/><text class="cls-8" transform="translate(237.74 447) scale(1.08 1)">[[<tspan class="cls-45" x="7.46" y="0">P</tspan><tspan class="cls-46" x="14.24" y="0">r</tspan><tspan x="18.41" y="0">o</tspan><tspan class="cls-47" x="25.62" y="0">t</tspan><tspan x="29.89" y="0">o</tspan><tspan class="cls-48" x="37.11" y="0">t</tspan><tspan x="41.57" y="0">ype]] </tspan></text><text class="cls-49" transform="translate(315.3 447) scale(1.06 1)">링크</text><text class="cls-8" transform="translate(212.74 318) scale(1.08 1)">[[<tspan class="cls-45" x="7.46" y="0">P</tspan><tspan class="cls-46" x="14.24" y="0">r</tspan><tspan x="18.41" y="0">o</tspan><tspan class="cls-47" x="25.62" y="0">t</tspan><tspan x="29.89" y="0">o</tspan><tspan class="cls-48" x="37.11" y="0">t</tspan><tspan x="41.57" y="0">ype]] </tspan></text><text class="cls-49" transform="translate(290.3 318) scale(1.06 1)">링크</text><polygon class="cls-15" points="310.88 295.76 315.38 290.35 315.94 294.79 310.88 295.76"/><line class="cls-16" x1="313.85" y1="293.46" x2="170.93" y2="197"/><text class="cls-8" transform="translate(507.74 174) scale(1.08 1)">[[<tspan class="cls-45" x="7.46" y="0">P</tspan><tspan class="cls-46" x="14.24" y="0">r</tspan><tspan x="18.41" y="0">o</tspan><tspan class="cls-47" x="25.62" y="0">t</tspan><tspan x="29.89" y="0">o</tspan><tspan class="cls-48" x="37.11" y="0">t</tspan><tspan x="41.57" y="0">ype]] </tspan></text><text class="cls-49" transform="translate(585.3 174) scale(1.06 1)">링크</text><text class="cls-8" transform="translate(551.74 266) scale(1.08 1)">[[<tspan class="cls-45" x="7.46" y="0">P</tspan><tspan class="cls-46" x="14.24" y="0">r</tspan><tspan x="18.41" y="0">o</tspan><tspan class="cls-47" x="25.62" y="0">t</tspan><tspan x="29.89" y="0">o</tspan><tspan class="cls-48" x="37.11" y="0">t</tspan><tspan x="41.57" y="0">ype]] </tspan></text><text class="cls-49" transform="translate(629.3 266) scale(1.06 1)">링크</text><line class="cls-16" x1="480.5" y1="59.93" x2="595.93" y2="60.88"/><polygon class="cls-15" points="481.07 63.96 480.97 55.98 478.94 59.96 481.07 63.96"/><path class="cls-50" d="M31.93,306c-17.12-56.1-12.64-107.09,10-114"/><polygon class="cls-15" points="28.25 309.58 35.16 298.57 36.52 307.64 28.25 309.58"/><path class="cls-50" d="M31.93,452c-43.86-143.73-39.83-272.1,9-287"/><polygon class="cls-15" points="28.25 457.58 35.16 446.57 36.52 455.64 28.25 457.58"/></g></g></svg>