<svg xmlns="http://www.w3.org/2000/svg" viewBox="0 0 644 369.11"><defs><style>.cls-1{fill:#00aa94;}.cls-1,.cls-19,.cls-23,.cls-25,.cls-4,.cls-40,.cls-41,.cls-9{stroke:#000;}.cls-1,.cls-19,.cls-23,.cls-25,.cls-34,.cls-35,.cls-4,.cls-40,.cls-41,.cls-42,.cls-8,.cls-9{stroke-miterlimit:10;}.cls-1,.cls-8{opacity:0.8;}.cls-2{opacity:0.5;}.cls-3{fill:#999;}.cls-4{font-size:14.06px;}.cls-19,.cls-25,.cls-4,.cls-9{font-family:MyriadPro-Regular, Myriad Pro;}.cls-5{letter-spacing:0em;}.cls-6{letter-spacing:0em;}.cls-23,.cls-40,.cls-41,.cls-7{font-family:NanumGothic, Nanum Gothic;}.cls-8{fill:#ccc;stroke:#4d4d4d;}.cls-9{font-size:13.14px;}.cls-10{letter-spacing:-0.01em;}.cls-11{letter-spacing:-0.01em;}.cls-12{letter-spacing:0em;}.cls-13{letter-spacing:0.01em;}.cls-14{letter-spacing:0em;}.cls-15{letter-spacing:-0.02em;}.cls-16{letter-spacing:-0.01em;}.cls-17{letter-spacing:-0.01em;}.cls-18{letter-spacing:0.01em;}.cls-19{font-size:12.01px;}.cls-20{letter-spacing:-0.01em;}.cls-21{letter-spacing:0.01em;}.cls-22{letter-spacing:0em;}.cls-23{font-size:12.85px;}.cls-24{letter-spacing:0.01em;}.cls-25{font-size:11.3px;}.cls-26{letter-spacing:0.01em;}.cls-27{letter-spacing:-0.02em;}.cls-28{letter-spacing:-0.01em;}.cls-29{letter-spacing:0.02em;}.cls-30{letter-spacing:0.01em;}.cls-31{letter-spacing:0.01em;}.cls-32{letter-spacing:0.01em;}.cls-33{letter-spacing:-0.09em;}.cls-34,.cls-35,.cls-42{fill:gray;stroke:gray;}.cls-34{stroke-width:1.5px;}.cls-36{letter-spacing:-0.02em;}.cls-37{letter-spacing:-0.01em;}.cls-38{letter-spacing:-0.01em;}.cls-39{letter-spacing:0.01em;}.cls-40{font-size:12.33px;}.cls-41{font-size:11.82px;}.cls-42{stroke-width:3px;}</style></defs><title>자산 14@0.2x</title><g id="레이어_2" data-name="레이어 2"><g id="레이어_1-2" data-name="레이어 1"><rect class="cls-1" x="33" y="77.35" width="83" height="148" rx="3.4" ry="3.4" transform="translate(-76.85 225.85) rotate(-90)"/><g class="cls-2"><path class="cls-3" d="M577.8,312l1.32,0-.19,7.23-1.32,0Zm-.19-2.28a.92.92,0,0,1,1.83,0,.83.83,0,0,1-.93.76A.84.84,0,0,1,577.61,309.72Z"/><path class="cls-3" d="M581.76,312.1l1.1,0,.08,1h0a3.88,3.88,0,0,1,2.66-1.16c1.65.05,2.36,1.05,2.31,2.89l-.12,4.58-1.32,0,.11-4.42c0-1.34-.39-1.93-1.42-1.95a3,3,0,0,0-2.17,1.05l-.14,5.23-1.32,0Z"/><path class="cls-3" d="M589.75,320.92a2,2,0,0,1,1.19-1.6v-.06a1.29,1.29,0,0,1-.67-1.2,1.7,1.7,0,0,1,.89-1.32v-.06a2.47,2.47,0,0,1-1-2,2.7,2.7,0,0,1,3-2.5,3.36,3.36,0,0,1,1.1.21l2.73.07,0,.94-1.6,0a2,2,0,0,1,.59,1.5,2.59,2.59,0,0,1-2.93,2.43,3,3,0,0,1-1.16-.28,1.06,1.06,0,0,0-.52.85c0,.45.3.79,1.35.81l1.53,0c1.82.05,2.72.6,2.69,1.8s-1.61,2.46-4,2.4C591,322.9,589.72,322.17,589.75,320.92Zm5.92-.22c0-.67-.53-.91-1.56-.94l-1.35,0a4.88,4.88,0,0,1-1-.14,1.51,1.51,0,0,0-.83,1.19c0,.78.82,1.29,2.24,1.33S595.65,321.45,595.67,320.7Zm-.86-5.86a1.67,1.67,0,1,0-3.33-.09,1.67,1.67,0,1,0,3.33.09Z"/><path class="cls-3" d="M597.88,321.14a2,2,0,0,1,1.19-1.61v-.06a1.33,1.33,0,0,1-.67-1.2,1.75,1.75,0,0,1,.9-1.32v-.06a2.4,2.4,0,0,1-1-2,2.69,2.69,0,0,1,3-2.5,3.31,3.31,0,0,1,1.1.21l2.73.07,0,.94-1.61,0a2,2,0,0,1,.6,1.5,2.59,2.59,0,0,1-2.93,2.43,3.12,3.12,0,0,1-1.16-.27,1,1,0,0,0-.52.84c0,.46.3.79,1.35.82l1.52,0c1.82,0,2.72.59,2.69,1.79s-1.6,2.46-4,2.4C599.15,323.11,597.85,322.38,597.88,321.14Zm5.91-.23c0-.67-.53-.91-1.55-.94l-1.36,0a4.88,4.88,0,0,1-1-.14A1.5,1.5,0,0,0,599,321c0,.78.81,1.29,2.24,1.33S603.77,321.66,603.79,320.91Zm-.85-5.86a1.67,1.67,0,1,0-3.33-.09,1.67,1.67,0,1,0,3.33.09Z"/><path class="cls-3" d="M606.38,319.22a1,1,0,0,1,1.92,0,1,1,0,0,1-1.92,0Z"/><path class="cls-3" d="M610,316.46a3.51,3.51,0,0,1,3.49-3.71,3.33,3.33,0,0,1,2.17.89l0-1.24.08-2.78,1.32,0-.27,10.59-1.1,0-.09-.86h0a3.56,3.56,0,0,1-2.4,1C611.18,320.27,610,318.87,610,316.46Zm5.48,1.91.1-3.79a2.94,2.94,0,0,0-1.89-.8c-1.25,0-2.28,1.06-2.32,2.7s.7,2.79,2.08,2.82A2.78,2.78,0,0,0,615.49,318.37Z"/><path class="cls-3" d="M618.92,316.69a3.61,3.61,0,0,1,3.62-3.71c2,0,3.09,1.41,3,3.47a4.23,4.23,0,0,1-.08.7l-5.27-.14a2.5,2.5,0,0,0,2.53,2.59,3.64,3.64,0,0,0,2-.53l.45.82a5,5,0,0,1-2.61.68A3.6,3.6,0,0,1,618.92,316.69Zm5.49-.45c0-1.45-.65-2.25-1.87-2.28a2.3,2.3,0,0,0-2.3,2.17Z"/><path class="cls-3" d="M626.54,313.26l1.36,0,1.38,4.14c.21.71.45,1.45.67,2.15H630c.25-.68.53-1.41.78-2.11l1.58-4.06,1.3,0-2.95,7.15-1.54,0Z"/></g><text class="cls-4" transform="translate(17.81 134.12) scale(0.99 1)"><tspan class="cls-5">S</tspan><tspan x="6.89" y="0">t</tspan><tspan class="cls-6" x="11.54" y="0">r</tspan><tspan x="16.2" y="0">ing( ) </tspan><tspan class="cls-7" x="49.1" y="0">생성자 함수</tspan></text><rect class="cls-8" x="59" y="102.85" width="30" height="132" rx="2.58" ry="2.58" transform="translate(-94.85 242.85) rotate(-90)"/><text class="cls-9" transform="translate(43.81 173.35) scale(1.19 1)">p<tspan class="cls-10" x="7.48" y="0">r</tspan><tspan x="11.64" y="0">o</tspan><tspan class="cls-11" x="18.86" y="0">t</tspan><tspan class="cls-12" x="23.13" y="0">o</tspan><tspan class="cls-13" x="30.34" y="0">t</tspan><tspan class="cls-14" x="34.81" y="0">ype</tspan></text><rect class="cls-1" x="281" y="77.35" width="83" height="148" rx="3.4" ry="3.4" transform="translate(171.15 473.85) rotate(-90)"/><text class="cls-4" transform="translate(257.81 131.12) scale(0.99 1)"><tspan class="cls-5">S</tspan><tspan x="6.89" y="0">t</tspan><tspan class="cls-6" x="11.54" y="0">r</tspan><tspan x="16.2" y="0">in</tspan><tspan class="cls-15" x="27.29" y="0">g</tspan><tspan x="34.94" y="0">.p</tspan><tspan class="cls-16" x="45.85" y="0">r</tspan><tspan x="50.3" y="0">o</tspan><tspan class="cls-17" x="58.02" y="0">t</tspan><tspan x="62.59" y="0">o</tspan><tspan class="cls-18" x="70.31" y="0">t</tspan><tspan x="75.09" y="0">ype </tspan><tspan class="cls-7" x="99.74" y="0">객체</tspan></text><rect class="cls-8" x="307" y="102.85" width="30" height="132" rx="2.58" ry="2.58" transform="translate(153.15 490.85) rotate(-90)"/><text class="cls-19" transform="translate(268.81 172.63) scale(1.14 1)"><tspan class="cls-20">m</tspan><tspan x="9.86" y="0">y</tspan><tspan class="cls-21" x="15.52" y="0">M</tspan><tspan class="cls-22" x="25.24" y="0">ethod( ) </tspan></text><text class="cls-23" transform="translate(345.59 172.63) scale(0.95 1)">메서드</text><rect class="cls-1" x="528" y="-7.65" width="83" height="148" rx="3.4" ry="3.4" transform="translate(503.15 635.85) rotate(-90)"/><text class="cls-4" transform="translate(504.81 46.12) scale(0.99 1)">Obje<tspan class="cls-24" x="28.15" y="0">c</tspan><tspan class="cls-5" x="34.63" y="0">t</tspan><tspan x="39.24" y="0">.p</tspan><tspan class="cls-16" x="50.15" y="0">r</tspan><tspan x="54.61" y="0">o</tspan><tspan class="cls-17" x="62.33" y="0">t</tspan><tspan x="66.89" y="0">o</tspan><tspan class="cls-18" x="74.61" y="0">t</tspan><tspan x="79.39" y="0">ype </tspan><tspan class="cls-7" x="104.04" y="0">객체</tspan></text><rect class="cls-8" x="554" y="17.85" width="30" height="132" rx="2.58" ry="2.58" transform="translate(485.15 652.85) rotate(-90)"/><text class="cls-25" transform="translate(512.81 87.81) scale(1.3 1)">has<tspan class="cls-26" x="16.19" y="0">O</tspan><tspan x="24.14" y="0">wn</tspan><tspan class="cls-27" x="38.72" y="0">P</tspan><tspan class="cls-28" x="44.56" y="0">r</tspan><tspan x="48.14" y="0">ope</tspan><tspan class="cls-29" x="66.43" y="0">r</tspan><tspan class="cls-30" x="70.4" y="0">t</tspan><tspan x="74.24" y="0">y( )</tspan></text><rect class="cls-1" x="33" y="232.35" width="83" height="148" rx="3.4" ry="3.4" transform="translate(-231.85 380.85) rotate(-90)"/><text class="cls-4" transform="translate(65.81 286.12) scale(0.99 1)">str</text><rect class="cls-8" x="59" y="257.85" width="30" height="132" rx="2.58" ry="2.58" transform="translate(-249.85 397.85) rotate(-90)"/><text class="cls-9" transform="translate(60.81 329.35) scale(1.19 1)">“<tspan class="cls-31" x="4.65" y="0">H</tspan><tspan class="cls-32" x="13.35" y="0">i</tspan><tspan class="cls-33" x="16.52" y="0">”</tspan></text><line class="cls-34" x1="258.48" y1="202.07" x2="135" y2="323.35"/><polygon class="cls-35" points="260.57 205.66 255.13 199.82 260.48 200.17 260.57 205.66"/><text class="cls-9" transform="translate(196.81 278.35) scale(1.08 1)">[[<tspan class="cls-36" x="7.46" y="0">P</tspan><tspan class="cls-37" x="14.24" y="0">r</tspan><tspan x="18.41" y="0">o</tspan><tspan class="cls-38" x="25.62" y="0">t</tspan><tspan x="29.89" y="0">o</tspan><tspan class="cls-39" x="37.11" y="0">t</tspan><tspan x="41.57" y="0">ype]] </tspan></text><text class="cls-40" transform="translate(274.36 278.35) scale(1.06 1)">링크</text><line class="cls-34" x1="504.33" y1="115.05" x2="383.76" y2="171.75"/><polygon class="cls-35" points="504.91 118.22 502.49 112.53 506.26 114.18 504.91 118.22"/><line class="cls-34" x1="263.6" y1="169.17" x2="140" y2="170.16"/><polygon class="cls-35" points="262.88 173.2 263 165.22 265.57 169.19 262.88 173.2"/><text class="cls-9" transform="translate(448.81 155.35) scale(1.08 1)">[[<tspan class="cls-36" x="7.46" y="0">P</tspan><tspan class="cls-37" x="14.24" y="0">r</tspan><tspan x="18.41" y="0">o</tspan><tspan class="cls-38" x="25.62" y="0">t</tspan><tspan x="29.89" y="0">o</tspan><tspan class="cls-39" x="37.11" y="0">t</tspan><tspan x="41.57" y="0">ype]] </tspan></text><text class="cls-40" transform="translate(526.36 155.35) scale(1.06 1)">링크</text><text class="cls-41" transform="translate(522.81 10.25) scale(1.15 1)">프로토타입 종점</text><text class="cls-41" transform="translate(276.81 94.25) scale(1.15 1)">프로토타입 객체</text><text class="cls-41" transform="translate(27.81 94.25) scale(1.15 1)">문자열 생성자</text><text class="cls-41" transform="translate(19.81 366.25) scale(1.15 1)">문자열 리터럴 생성</text><line class="cls-42" x1="70.74" y1="261.89" x2="71.74" y2="192.35"/><polygon class="cls-35" points="74.77 261.48 66.8 261.55 70.77 262.99 74.77 261.48"/></g></g></svg>