<svg xmlns="http://www.w3.org/2000/svg" viewBox="0 0 488.83 376.54"><defs><style>.cls-1{fill:#00aa94;}.cls-1,.cls-4{opacity:0.8;}.cls-2{opacity:0.5;}.cls-3{fill:#999;}.cls-4{fill:#f2f2f2;}.cls-26,.cls-27,.cls-5{font-size:14.06px;}.cls-26,.cls-27,.cls-30,.cls-5,.cls-8{stroke:#000;}.cls-13,.cls-24,.cls-25,.cls-26,.cls-27,.cls-28,.cls-29,.cls-30,.cls-5,.cls-8{stroke-miterlimit:10;}.cls-30,.cls-5,.cls-8{font-family:MyriadPro-Regular, Myriad Pro;}.cls-6{letter-spacing:-0.01em;}.cls-26,.cls-27,.cls-7{font-family:NanumGothic, Nanum Gothic;}.cls-8{font-size:14.98px;}.cls-9{letter-spacing:-0.02em;}.cls-10{letter-spacing:-0.01em;}.cls-11{letter-spacing:-0.01em;}.cls-12{letter-spacing:0.01em;}.cls-13{fill:#666;}.cls-13,.cls-24,.cls-25{stroke:gray;}.cls-14{letter-spacing:-0.03em;}.cls-15{letter-spacing:0em;}.cls-16{letter-spacing:-0.01em;}.cls-17{letter-spacing:-0.01em;}.cls-18{letter-spacing:0.01em;}.cls-19{letter-spacing:0.01em;}.cls-20{letter-spacing:-0.09em;}.cls-21{letter-spacing:0em;}.cls-22{letter-spacing:-0.01em;}.cls-23{letter-spacing:0.01em;}.cls-24,.cls-25{fill:gray;}.cls-24,.cls-28{stroke-width:3px;}.cls-26{letter-spacing:0em;}.cls-28,.cls-29{fill:#333;stroke:#333;}.cls-30{font-size:11.82px;}.cls-31{letter-spacing:-0.02em;}</style></defs><title>자산 13@0.2x</title><g id="레이어_2" data-name="레이어 2"><g id="레이어_1-2" data-name="레이어 1"><rect class="cls-1" x="21.5" y="213.96" width="120" height="163" rx="5.47" ry="5.47" transform="translate(-213.96 376.96) rotate(-90)"/><g class="cls-2"><path class="cls-3" d="M424.07,359.77l1.53,0-.22,8.69-1.54,0Zm-.21-2.74a1.07,1.07,0,0,1,2.12.05,1.07,1.07,0,0,1-2.12-.05Z"/><path class="cls-3" d="M428.67,359.89l1.26,0,.1,1.26h.05a4.44,4.44,0,0,1,3.09-1.39c1.91,0,2.74,1.25,2.68,3.47l-.15,5.51-1.53,0,.14-5.32c0-1.62-.45-2.32-1.65-2.35a3.45,3.45,0,0,0-2.52,1.27l-.16,6.29-1.54,0Z"/><path class="cls-3" d="M437.92,370.5a2.41,2.41,0,0,1,1.38-1.93v-.07a1.61,1.61,0,0,1-.77-1.45,2.06,2.06,0,0,1,1-1.59v-.07a3,3,0,0,1-1.12-2.36,3.17,3.17,0,0,1,3.49-3,3.77,3.77,0,0,1,1.28.25l3.16.08,0,1.13-1.86-.05a2.46,2.46,0,0,1,.69,1.81,3,3,0,0,1-3.4,2.93,3.31,3.31,0,0,1-1.34-.33,1.23,1.23,0,0,0-.61,1c0,.55.35.95,1.57,1l1.76.05c2.11.05,3.16.72,3.12,2.16,0,1.61-1.86,3-4.67,2.88C439.39,372.87,437.88,372,437.92,370.5Zm6.85-.28c0-.81-.61-1.1-1.8-1.13l-1.57,0a5.12,5.12,0,0,1-1.17-.16,1.83,1.83,0,0,0-1,1.43c0,.94.95,1.55,2.59,1.6S444.75,371.13,444.77,370.22Zm-1-7.05a1.93,1.93,0,1,0-3.86-.1,1.93,1.93,0,1,0,3.86.1Z"/><path class="cls-3" d="M447.34,370.74a2.44,2.44,0,0,1,1.38-1.93v-.07a1.6,1.6,0,0,1-.77-1.45,2,2,0,0,1,1-1.58v-.07a3,3,0,0,1-1.12-2.37,3.16,3.16,0,0,1,3.49-3,3.68,3.68,0,0,1,1.27.24l3.17.08,0,1.14-1.86-.05a2.43,2.43,0,0,1,.69,1.81,3,3,0,0,1-3.4,2.92,3.23,3.23,0,0,1-1.35-.33,1.27,1.27,0,0,0-.6,1c0,.56.35,1,1.56,1l1.77,0c2.11.06,3.15.72,3.12,2.16,0,1.62-1.86,3-4.67,2.89C448.81,373.11,447.3,372.24,447.34,370.74Zm6.85-.28c0-.8-.61-1.09-1.8-1.12l-1.57,0a5.74,5.74,0,0,1-1.17-.16,1.77,1.77,0,0,0-1,1.43c0,.93.94,1.55,2.59,1.59S454.16,371.37,454.19,370.46Zm-1-7a1.93,1.93,0,1,0-3.86-.1,1.94,1.94,0,1,0,3.86.1Z"/><path class="cls-3" d="M457.19,368.43a1.12,1.12,0,1,1,1.09,1.14A1.09,1.09,0,0,1,457.19,368.43Z"/><path class="cls-3" d="M461.4,365.1c.07-2.82,2-4.52,4.05-4.47A3.85,3.85,0,0,1,468,361.7l0-1.49.08-3.35,1.54,0-.33,12.74-1.27,0-.1-1h-.05a4.19,4.19,0,0,1-2.79,1.17C462.75,369.69,461.33,368,461.4,365.1Zm6.35,2.29.12-4.55a3.3,3.3,0,0,0-2.19-1c-1.45,0-2.64,1.28-2.69,3.26s.81,3.34,2.4,3.39A3.17,3.17,0,0,0,467.75,367.39Z"/><path class="cls-3" d="M471.73,365.37a4.27,4.27,0,0,1,4.2-4.47c2.32.06,3.58,1.69,3.52,4.17a4.72,4.72,0,0,1-.1.84l-6.11-.16a3,3,0,0,0,2.94,3.11,4.2,4.2,0,0,0,2.28-.63l.52,1a5.6,5.6,0,0,1-3,.82A4.24,4.24,0,0,1,471.73,365.37Zm6.37-.55c0-1.74-.75-2.71-2.17-2.74a2.71,2.71,0,0,0-2.67,2.62Z"/><path class="cls-3" d="M480.56,361.24l1.59,0,1.58,5c.25.86.53,1.75.77,2.58h.08c.29-.83.61-1.7.9-2.54l1.85-4.9,1.5,0-3.43,8.61-1.79-.05Z"/></g><rect class="cls-4" x="51" y="247.46" width="60" height="132" rx="3.64" ry="3.64" transform="translate(-232.46 394.46) rotate(-90)"/><text class="cls-5" transform="translate(54.81 259.23) scale(1.1 1)"><tspan class="cls-6">f</tspan><tspan x="3.92" y="0">oo</tspan><tspan class="cls-7" x="19.36" y="0" xml:space="preserve"> 객체</tspan></text><text class="cls-8" transform="translate(26.81 303) scale(1.02 1)">name</text><text class="cls-8" transform="translate(36.81 334) scale(1.12 1)">[[<tspan class="cls-9" x="8.51" y="0">P</tspan><tspan class="cls-10" x="16.24" y="0">r</tspan><tspan x="20.99" y="0">o</tspan><tspan class="cls-11" x="29.21" y="0">t</tspan><tspan x="34.08" y="0">o</tspan><tspan class="cls-12" x="42.3" y="0">t</tspan><tspan x="47.39" y="0">ype]]</tspan></text><line class="cls-13" x1="147.5" y1="313.96" x2="14.5" y2="313.96"/><rect class="cls-1" x="21.5" y="0.96" width="120" height="163" rx="5.47" ry="5.47" transform="translate(-0.96 163.96) rotate(-90)"/><rect class="cls-4" x="66" y="33.46" width="30" height="132" rx="2.58" ry="2.58" transform="translate(-18.46 180.46) rotate(-90)"/><text class="cls-5" transform="translate(14.81 47.23) scale(1.1 1)"><tspan class="cls-14">P</tspan><tspan class="cls-15" x="7.13" y="0">erson( ) </tspan><tspan class="cls-7" x="53.81" y="0">생성자함수</tspan></text><rect class="cls-1" x="334.5" y="0.96" width="120" height="163" rx="5.47" ry="5.47" transform="translate(312.04 476.96) rotate(-90)"/><rect class="cls-4" x="379" y="33.46" width="30" height="132" rx="2.58" ry="2.58" transform="translate(294.54 493.46) rotate(-90)"/><text class="cls-5" transform="translate(323.81 47.23) scale(1.1 1)"><tspan class="cls-14">P</tspan><tspan class="cls-15" x="7.13" y="0">erson.p</tspan><tspan class="cls-16" x="50.77" y="0">r</tspan><tspan x="55.23" y="0">o</tspan><tspan class="cls-17" x="62.94" y="0">t</tspan><tspan x="67.51" y="0">o</tspan><tspan class="cls-18" x="75.23" y="0">t</tspan><tspan x="80.01" y="0">ype </tspan><tspan class="cls-7" x="104.66" y="0">객체</tspan></text><text class="cls-8" transform="translate(98.81 304) scale(1.02 1)">‘FO<tspan class="cls-19" x="20.72" y="0">O</tspan><tspan class="cls-20" x="31.17" y="0">’</tspan></text><line class="cls-13" x1="81.5" y1="283.46" x2="81.5" y2="313.96"/><text class="cls-8" transform="translate(46.81 103) scale(1.12 1)">p<tspan class="cls-10" x="8.52" y="0">r</tspan><tspan x="13.27" y="0">o</tspan><tspan class="cls-11" x="21.5" y="0">t</tspan><tspan x="26.36" y="0">o</tspan><tspan class="cls-12" x="34.59" y="0">t</tspan><tspan class="cls-21" x="39.68" y="0">ype</tspan></text><text class="cls-8" transform="translate(354.81 103) scale(1.12 1)"><tspan class="cls-22">c</tspan><tspan x="6.62" y="0">onstru</tspan><tspan class="cls-23" x="47.2" y="0">c</tspan><tspan class="cls-11" x="54.11" y="0">t</tspan><tspan x="58.97" y="0">or</tspan></text><line class="cls-24" x1="316.5" y1="89.96" x2="147.01" y2="89.48"/><polygon class="cls-25" points="315.17 84.68 315.38 95.08 320.17 89.98 315.17 84.68"/><line class="cls-24" x1="158.68" y1="102.96" x2="328.17" y2="102.48"/><polygon class="cls-25" points="160.01 97.68 159.8 108.08 155.01 102.98 160.01 97.68"/><line class="cls-24" x1="346.23" y1="153.84" x2="162.5" y2="278.96"/><polygon class="cls-25" points="348.84 160.27 341.09 149.37 350.19 151.13 348.84 160.27"/><text class="cls-8" transform="translate(254.81 235) scale(1.12 1)">[[<tspan class="cls-9" x="8.51" y="0">P</tspan><tspan class="cls-10" x="16.24" y="0">r</tspan><tspan x="20.99" y="0">o</tspan><tspan class="cls-11" x="29.21" y="0">t</tspan><tspan x="34.08" y="0">o</tspan><tspan class="cls-12" x="42.3" y="0">t</tspan><tspan x="47.39" y="0">ype]] </tspan></text><text class="cls-26" transform="translate(346.55 235) scale(1.1 1)">링크</text><text class="cls-27" transform="translate(65.81 373.23) scale(1.1 1)">객체</text><text class="cls-27" transform="translate(42.81 12) scale(1.1 1)">생성자 함수</text><text class="cls-27" transform="translate(345.81 12) scale(1.1 1)">프로토타입 객체</text><line class="cls-28" x1="80.67" y1="231.53" x2="80.19" y2="142.46"/><polygon class="cls-29" points="75.39 230.83 85.79 230.94 80.69 233.46 75.39 230.83"/><text class="cls-5" transform="translate(12.81 183.23) scale(1.05 1)">new <tspan class="cls-7" x="28.18" y="0">객체 </tspan><tspan class="cls-7"><tspan x="0" y="16.87" xml:space="preserve">   생성</tspan></tspan></text><text class="cls-30" transform="translate(178.81 68.35) scale(1.15 1)"><tspan xml:space="preserve">    </tspan><tspan class="cls-31" x="10.03" y="0">P</tspan><tspan x="16.02" y="0">erson( ) </tspan><tspan class="cls-7" x="55.28" y="0">함수의</tspan><tspan class="cls-7"><tspan x="0" y="14.19">프로토타입 프로퍼티</tspan></tspan></text></g></g></svg>