<svg xmlns="http://www.w3.org/2000/svg" viewBox="0 0 574.19 381.35"><defs><style>.cls-1{fill:#00aa94;}.cls-1,.cls-12,.cls-26,.cls-27,.cls-30,.cls-31,.cls-32,.cls-33,.cls-5,.cls-6{stroke:#000;}.cls-1,.cls-11,.cls-12,.cls-26,.cls-27,.cls-30,.cls-31,.cls-32,.cls-33,.cls-4,.cls-43,.cls-44,.cls-5,.cls-6{stroke-miterlimit:10;}.cls-1,.cls-4{opacity:0.8;}.cls-2{opacity:0.5;}.cls-3{fill:#999;}.cls-4{fill:#ccc;stroke:#4d4d4d;}.cls-5{font-size:14.98px;}.cls-12,.cls-27,.cls-31,.cls-33,.cls-5,.cls-6{font-family:MyriadPro-Regular, Myriad Pro;}.cls-6{font-size:13.14px;}.cls-7{letter-spacing:-0.02em;}.cls-8{letter-spacing:-0.01em;}.cls-9{letter-spacing:-0.01em;}.cls-10{letter-spacing:0.01em;}.cls-11{fill:#666;}.cls-11,.cls-43,.cls-44{stroke:gray;}.cls-12{font-size:14.06px;}.cls-13{letter-spacing:-0.03em;}.cls-14{letter-spacing:-0.01em;}.cls-15{letter-spacing:-0.01em;}.cls-16{letter-spacing:0.01em;}.cls-17,.cls-26,.cls-30,.cls-32,.cls-35{font-family:NanumGothic, Nanum Gothic;}.cls-18{letter-spacing:-0.02em;}.cls-19{letter-spacing:-0.01em;}.cls-20{letter-spacing:-0.03em;}.cls-21{letter-spacing:-0.09em;}.cls-22{letter-spacing:-0.02em;}.cls-23{letter-spacing:-0.01em;}.cls-24{letter-spacing:-0.01em;}.cls-25{letter-spacing:0.01em;}.cls-26{font-size:12.33px;}.cls-27,.cls-30{font-size:11.82px;}.cls-28{letter-spacing:-0.02em;}.cls-29{letter-spacing:0em;}.cls-31{font-size:11.3px;}.cls-32{font-size:10.61px;}.cls-33{font-size:12.22px;}.cls-34{letter-spacing:-0.01em;}.cls-35{letter-spacing:0em;}.cls-36{letter-spacing:-0.03em;}.cls-37{letter-spacing:0em;}.cls-38{letter-spacing:-0.03em;}.cls-39{letter-spacing:-0.09em;}.cls-40{letter-spacing:0em;}.cls-41{letter-spacing:0.01em;}.cls-42{letter-spacing:0em;}.cls-43,.cls-44{fill:gray;}.cls-43{stroke-width:3px;}</style></defs><title>자산 14@0.2x</title><g id="레이어_2" data-name="레이어 2"><g id="레이어_1-2" data-name="레이어 1"><rect class="cls-1" x="287.19" y="162.35" width="83" height="148" rx="3.4" ry="3.4" transform="translate(92.34 565.04) rotate(-90)"/><rect class="cls-1" x="23.69" y="47.85" width="127" height="148" rx="4.21" ry="4.21" transform="translate(-34.66 209.04) rotate(-90)"/><g class="cls-2"><path class="cls-3" d="M508,354l1.32,0-.19,7.23-1.32,0Zm-.19-2.28a.92.92,0,0,1,1.83,0,.83.83,0,0,1-.93.76A.84.84,0,0,1,507.8,351.72Z"/><path class="cls-3" d="M512,354.1l1.09,0,.08,1h0a3.88,3.88,0,0,1,2.66-1.16c1.65.05,2.36,1.05,2.31,2.89l-.11,4.58-1.33,0,.12-4.42c0-1.34-.4-1.93-1.43-2a3.06,3.06,0,0,0-2.17,1.06l-.14,5.23-1.32,0Z"/><path class="cls-3" d="M520,362.92a2,2,0,0,1,1.19-1.6v-.06a1.31,1.31,0,0,1-.67-1.2,1.7,1.7,0,0,1,.89-1.32v-.06a2.45,2.45,0,0,1-1-2,2.7,2.7,0,0,1,3-2.5,3.31,3.31,0,0,1,1.1.21l2.73.07,0,.94-1.6,0a2,2,0,0,1,.6,1.5,2.6,2.6,0,0,1-2.94,2.43,3,3,0,0,1-1.16-.28,1.08,1.08,0,0,0-.52.85c0,.45.3.79,1.35.81l1.53,0c1.82.05,2.72.6,2.69,1.8s-1.61,2.46-4,2.39C521.22,364.9,519.91,364.17,520,362.92Zm5.91-.22c0-.67-.53-.91-1.56-.94l-1.35,0a4.71,4.71,0,0,1-1-.14,1.49,1.49,0,0,0-.83,1.19c0,.78.81,1.29,2.23,1.33S525.84,363.45,525.86,362.7Zm-.86-5.86a1.66,1.66,0,1,0-3.32-.09,1.66,1.66,0,1,0,3.32.09Z"/><path class="cls-3" d="M528.07,363.14a2,2,0,0,1,1.19-1.61v-.06a1.33,1.33,0,0,1-.67-1.2,1.73,1.73,0,0,1,.9-1.32v-.06a2.4,2.4,0,0,1-1-2,2.69,2.69,0,0,1,3-2.5,3.31,3.31,0,0,1,1.1.21l2.73.07,0,.94-1.61,0a2,2,0,0,1,.6,1.5,2.59,2.59,0,0,1-2.93,2.43,3.12,3.12,0,0,1-1.16-.27,1,1,0,0,0-.52.84c0,.45.3.79,1.35.82l1.52,0c1.82,0,2.73.59,2.69,1.79s-1.6,2.46-4,2.4C529.34,365.11,528,364.38,528.07,363.14Zm5.91-.23c0-.67-.52-.91-1.55-.94l-1.35,0a4.88,4.88,0,0,1-1-.14,1.49,1.49,0,0,0-.83,1.19c0,.78.82,1.29,2.24,1.33S534,363.66,534,362.91Zm-.85-5.86a1.67,1.67,0,1,0-3.33-.09,1.67,1.67,0,1,0,3.33.09Z"/><path class="cls-3" d="M536.57,361.22a.94.94,0,0,1,1-.92.94.94,0,1,1-1,.92Z"/><path class="cls-3" d="M540.2,358.46a3.51,3.51,0,0,1,3.49-3.71,3.31,3.31,0,0,1,2.17.89l0-1.24.08-2.78,1.32,0L547,362.24l-1.1,0-.09-.86h0a3.54,3.54,0,0,1-2.4,1C541.37,362.27,540.14,360.86,540.2,358.46Zm5.48,1.91.1-3.79a2.94,2.94,0,0,0-1.89-.8c-1.25,0-2.28,1.06-2.32,2.7s.7,2.79,2.08,2.82A2.78,2.78,0,0,0,545.68,360.37Z"/><path class="cls-3" d="M549.11,358.69a3.61,3.61,0,0,1,3.62-3.71c2,0,3.09,1.41,3,3.47a4.23,4.23,0,0,1-.08.7l-5.27-.14A2.5,2.5,0,0,0,553,361.6a3.64,3.64,0,0,0,2-.53l.45.82a5,5,0,0,1-2.6.68A3.6,3.6,0,0,1,549.11,358.69Zm5.49-.45c0-1.45-.64-2.25-1.87-2.28a2.3,2.3,0,0,0-2.3,2.17Z"/><path class="cls-3" d="M556.73,355.26l1.37,0,1.37,4.14c.21.71.45,1.45.67,2.15h.06c.25-.68.53-1.41.78-2.11l1.58-4.06,1.3,0-3,7.15-1.54,0Z"/></g><rect class="cls-4" x="41.69" y="65.85" width="91" height="132" rx="4.49" ry="4.49" transform="translate(-44.66 219.04) rotate(-90)"/><text class="cls-5" transform="translate(35 105.89) scale(1.02 1)">name</text><text class="cls-6" transform="translate(46 166.35) scale(1.19 1)">[[<tspan class="cls-7" x="7.46" y="0">P</tspan><tspan class="cls-8" x="14.24" y="0">r</tspan><tspan x="18.41" y="0">o</tspan><tspan class="cls-9" x="25.62" y="0">t</tspan><tspan x="29.89" y="0">o</tspan><tspan class="cls-10" x="37.11" y="0">t</tspan><tspan x="41.57" y="0">ype]]</tspan></text><line class="cls-11" x1="153.69" y1="147.85" x2="20.69" y2="147.85"/><line class="cls-11" x1="152.69" y1="116.85" x2="21.19" y2="116.85"/><text class="cls-12" transform="translate(264 216.12) scale(0.99 1)"><tspan class="cls-13">P</tspan><tspan x="7.13" y="0">erson.p</tspan><tspan class="cls-14" x="50.77" y="0">r</tspan><tspan x="55.23" y="0">o</tspan><tspan class="cls-15" x="62.94" y="0">t</tspan><tspan x="67.51" y="0">o</tspan><tspan class="cls-16" x="75.23" y="0">t</tspan><tspan x="80.01" y="0">ype </tspan><tspan class="cls-17" x="104.66" y="0">객체</tspan></text><text class="cls-5" transform="translate(104 105.89) scale(1.02 1)">‘<tspan class="cls-18" x="3.1" y="0">K</tspan><tspan class="cls-19" x="10.98" y="0">y</tspan><tspan class="cls-20" x="17.89" y="0">o</tspan><tspan class="cls-21" x="25.62" y="0">’</tspan></text><line class="cls-11" x1="87.69" y1="86.35" x2="87.69" y2="116.85"/><text class="cls-6" transform="translate(236 87.35) scale(1.08 1)">[[<tspan class="cls-22" x="7.46" y="0">P</tspan><tspan class="cls-23" x="14.24" y="0">r</tspan><tspan x="18.41" y="0">o</tspan><tspan class="cls-24" x="25.62" y="0">t</tspan><tspan x="29.89" y="0">o</tspan><tspan class="cls-25" x="37.11" y="0">t</tspan><tspan x="41.57" y="0">ype]] </tspan></text><text class="cls-26" transform="translate(313.55 87.35) scale(1.06 1)">링크</text><text class="cls-27" transform="translate(1 268.25) scale(1.15 1)"> <tspan class="cls-17" x="2.51" y="0">객체 : </tspan><tspan class="cls-28" x="34.94" y="0">P</tspan><tspan class="cls-29" x="40.94" y="0">erson( ) </tspan><tspan class="cls-17" x="80.19" y="0">생성자로 생성</tspan></text><text class="cls-27" transform="translate(21 43.25) scale(1.15 1)"> <tspan class="cls-17" x="2.51" y="0">객체 : 객체리터럴로 생성</tspan></text><text class="cls-30" transform="translate(431 10.25) scale(1.15 1)">프로토타입 체이닝 객체</text><text class="cls-31" transform="translate(50 135.81) scale(1.2 1)">hello( ) </text><text class="cls-32" transform="translate(91.69 135.81) scale(1.19 1)">메서드</text><text class="cls-33" transform="translate(52 75.58) scale(1.11 1)"><tspan class="cls-34">m</tspan><tspan x="10.03" y="0">yObj </tspan><tspan class="cls-35" x="36.72" y="0">객체</tspan></text><rect class="cls-1" x="37.69" y="256.85" width="100" height="148" rx="3.73" ry="3.73" transform="translate(-243.16 418.54) rotate(-90)"/><rect class="cls-4" x="57.44" y="276.1" width="59.5" height="132" rx="3.63" ry="3.63" transform="translate(-254.91 429.29) rotate(-90)"/><text class="cls-5" transform="translate(35 331.89) scale(1.02 1)">name</text><text class="cls-6" transform="translate(44 361.35) scale(1.19 1)">[[<tspan class="cls-7" x="7.46" y="0">P</tspan><tspan class="cls-8" x="14.24" y="0">r</tspan><tspan x="18.41" y="0">o</tspan><tspan class="cls-9" x="25.62" y="0">t</tspan><tspan x="29.89" y="0">o</tspan><tspan class="cls-10" x="37.11" y="0">t</tspan><tspan x="41.57" y="0">ype]]</tspan></text><line class="cls-11" x1="152.69" y1="342.85" x2="21.19" y2="342.85"/><text class="cls-5" transform="translate(104 331.89) scale(1.02 1)">‘<tspan class="cls-36" x="3.1" y="0">F</tspan><tspan class="cls-37" x="9.93" y="0">o</tspan><tspan class="cls-38" x="18.16" y="0">o</tspan><tspan class="cls-39" x="25.88" y="0">’</tspan></text><line class="cls-11" x1="87.69" y1="312.35" x2="87.69" y2="342.85"/><text class="cls-33" transform="translate(62 299.58) scale(1.11 1)"><tspan class="cls-34">f</tspan><tspan class="cls-40" x="3.41" y="0">oo </tspan><tspan class="cls-17" x="19.42" y="0">객체</tspan></text><rect class="cls-4" x="313.19" y="187.85" width="30" height="132" rx="2.58" ry="2.58" transform="translate(74.34 582.04) rotate(-90)"/><text class="cls-6" transform="translate(285 258.35) scale(1.19 1)">[[<tspan class="cls-7" x="7.46" y="0">P</tspan><tspan class="cls-8" x="14.24" y="0">r</tspan><tspan x="18.41" y="0">o</tspan><tspan class="cls-9" x="25.62" y="0">t</tspan><tspan x="29.89" y="0">o</tspan><tspan class="cls-10" x="37.11" y="0">t</tspan><tspan x="41.57" y="0">ype]]</tspan></text><rect class="cls-1" x="458.19" y="-1.65" width="83" height="148" rx="3.4" ry="3.4" transform="translate(427.34 572.04) rotate(-90)"/><text class="cls-12" transform="translate(435 52.12) scale(0.99 1)">Obje<tspan class="cls-41" x="28.15" y="0">c</tspan><tspan class="cls-42" x="34.63" y="0">t</tspan><tspan x="39.24" y="0">.p</tspan><tspan class="cls-14" x="50.15" y="0">r</tspan><tspan x="54.61" y="0">o</tspan><tspan class="cls-15" x="62.33" y="0">t</tspan><tspan x="66.89" y="0">o</tspan><tspan class="cls-16" x="74.61" y="0">t</tspan><tspan x="79.39" y="0">ype </tspan><tspan class="cls-17" x="104.04" y="0">객체</tspan></text><rect class="cls-4" x="484.19" y="23.85" width="30" height="132" rx="2.58" ry="2.58" transform="translate(409.34 589.04) rotate(-90)"/><text class="cls-6" transform="translate(456 94.35) scale(1.19 1)">[[<tspan class="cls-7" x="7.46" y="0">P</tspan><tspan class="cls-8" x="14.24" y="0">r</tspan><tspan x="18.41" y="0">o</tspan><tspan class="cls-9" x="25.62" y="0">t</tspan><tspan x="29.89" y="0">o</tspan><tspan class="cls-10" x="37.11" y="0">t</tspan><tspan x="41.57" y="0">ype]]</tspan></text><line class="cls-43" x1="409.73" y1="68.44" x2="149.16" y2="162.92"/><polygon class="cls-44" points="410.54 75.33 405.97 62.76 414.27 66.88 410.54 75.33"/><line class="cls-43" x1="245.07" y1="257.64" x2="144.69" y2="355.85"/><polygon class="cls-44" points="246.76 260.55 242.34 255.82 246.69 256.1 246.76 260.55"/><line class="cls-43" x1="464.91" y1="123.77" x2="387.19" y2="253.35"/><polygon class="cls-44" points="467.48 126.32 461.56 122.63 466.18 121.72 467.48 126.32"/><text class="cls-6" transform="translate(188 332.35) scale(1.08 1)">[[<tspan class="cls-22" x="7.46" y="0">P</tspan><tspan class="cls-23" x="14.24" y="0">r</tspan><tspan x="18.41" y="0">o</tspan><tspan class="cls-24" x="25.62" y="0">t</tspan><tspan x="29.89" y="0">o</tspan><tspan class="cls-25" x="37.11" y="0">t</tspan><tspan x="41.57" y="0">ype]] </tspan></text><text class="cls-26" transform="translate(265.55 332.35) scale(1.06 1)">링크</text><text class="cls-6" transform="translate(440 188.35) scale(1.08 1)">[[<tspan class="cls-22" x="7.46" y="0">P</tspan><tspan class="cls-23" x="14.24" y="0">r</tspan><tspan x="18.41" y="0">o</tspan><tspan class="cls-24" x="25.62" y="0">t</tspan><tspan x="29.89" y="0">o</tspan><tspan class="cls-25" x="37.11" y="0">t</tspan><tspan x="41.57" y="0">ype]] </tspan></text><text class="cls-26" transform="translate(517.55 188.35) scale(1.06 1)">링크</text></g></g></svg>