<svg xmlns="http://www.w3.org/2000/svg" viewBox="0 0 345.83 356.01"><defs><style>.cls-1{fill:#d70000;}.cls-2{fill:#009245;}.cls-3{fill:#fff;}</style></defs><title>자산 11</title><g id="레이어_2" data-name="레이어 2"><g id="레이어_1-2" data-name="레이어 1"><rect class="cls-1" x="156.9" y="230.33" width="32.98" height="218.4" transform="translate(-166.14 512.91) rotate(-90)"/><rect class="cls-1" x="49.51" y="151.93" width="37.12" height="204.08" rx="8.19" ry="8.19"/><rect class="cls-1" x="260.7" y="86.49" width="37.12" height="269.52" rx="8.19" ry="8.19"/><path class="cls-2" d="M340.39,219.07h0a19.61,19.61,0,0,1-26.25,0L160.25,76.38a16.33,16.33,0,0,1,0-24.33h0a19.61,19.61,0,0,1,26.25,0L340.39,194.74A16.33,16.33,0,0,1,340.39,219.07Z"/><path class="cls-2" d="M185.5,52.05h0a16.33,16.33,0,0,1,0,24.33L31.69,219a19.59,19.59,0,0,1-26.25,0h0a16.33,16.33,0,0,1,0-24.33L159.25,52.05A19.61,19.61,0,0,1,185.5,52.05Z"/><path class="cls-3" d="M64.07,27c7.72,0,7.74-12,0-12s-7.73,12,0,12Z"/><path class="cls-3" d="M149.22,26.78c7.72,0,7.74-12,0-12s-7.73,12,0,12Z"/><path class="cls-3" d="M258,36.54c7.72,0,7.74-12,0-12s-7.73,12,0,12Z"/><path class="cls-3" d="M316,98.1c7.72,0,7.73-12,0-12s-7.74,12,0,12Z"/><path class="cls-3" d="M36.68,80.69c7.72,0,7.73-12,0-12s-7.74,12,0,12Z"/><path class="cls-3" d="M100.41,58.12c3.86,0,3.86-6,0-6s-3.87,6,0,6Z"/><path class="cls-3" d="M196.16,6c3.86,0,3.87-6,0-6s-3.87,6,0,6Z"/><path class="cls-3" d="M15.45,137.43c3.86,0,3.87-6,0-6s-3.86,6,0,6Z"/><path class="cls-3" d="M79.66,100.75c3.86,0,3.87-6,0-6s-3.87,6,0,6Z"/><path class="cls-3" d="M27.49,67c5.79,0,5.8-9,0-9s-5.8,9,0,9Z"/><path class="cls-3" d="M253.23,79c5.79,0,5.8-9,0-9s-5.8,9,0,9Z"/><path class="cls-3" d="M220.77,48.53c3.86,0,3.87-6,0-6s-3.86,6,0,6Z"/><path class="cls-3" d="M336.49,151.55c3.86,0,3.86-6,0-6s-3.87,6,0,6Z"/></g></g></svg>