<svg xmlns="http://www.w3.org/2000/svg" viewBox="0 0 1039.22 371.03"><defs><style>.cls-1,.cls-14{fill:#fbb03b;}.cls-1,.cls-10{stroke:#fbb03b;}.cls-1,.cls-10,.cls-15,.cls-17,.cls-2,.cls-5,.cls-6,.cls-7,.cls-8,.cls-9{stroke-miterlimit:10;}.cls-1,.cls-10,.cls-17,.cls-6{stroke-width:2px;}.cls-2,.cls-8,.cls-9{fill:#00aa94;}.cls-15,.cls-2,.cls-5,.cls-7,.cls-8,.cls-9{stroke:#000;}.cls-15,.cls-2,.cls-5{opacity:0.8;}.cls-3,.cls-9{opacity:0.5;}.cls-4{fill:#666;}.cls-5{fill:#00a99d;}.cls-10,.cls-6,.cls-7{fill:none;}.cls-6{stroke:#c1272d;}.cls-8{opacity:0.4;}.cls-11{font-size:12px;}.cls-11,.cls-16{font-family:ComicSansMS, Comic Sans MS;}.cls-12{font-size:31px;}.cls-13{fill:#c1272d;}.cls-15,.cls-17,.cls-18{fill:#0071bc;}.cls-16{font-size:16.54px;}.cls-17{stroke:#0071bc;}</style></defs><title>자산 15</title><g id="레이어_2" data-name="레이어 2"><g id="레이어_1-2" data-name="레이어 1"><line class="cls-1" x1="298.72" y1="96.59" x2="252.86" y2="50.42"/><rect class="cls-2" x="347.05" y="185.59" width="52" height="52" rx="26" ry="26" transform="translate(158.46 583.69) rotate(-89.74)"/><g class="cls-3"><path class="cls-4" d="M1.33,354.63a1,1,0,0,1,1.08-1,1,1,0,0,1,1.07,1,1,1,0,0,1-1.07,1A1,1,0,0,1,1.33,354.63Zm.28,2.91H3.17v9.24H1.61Z" transform="translate(-1.33)"/><path class="cls-4" d="M6.29,357.54H7.58l.13,1.33h.06a4.43,4.43,0,0,1,3.09-1.56c2,0,2.82,1.26,2.82,3.62v5.85H12.12v-5.65c0-1.72-.52-2.46-1.74-2.46a3.5,3.5,0,0,0-2.53,1.42v6.69H6.29Z" transform="translate(-1.33)"/><path class="cls-4" d="M16,368.55a2.59,2.59,0,0,1,1.35-2.09v-.07a1.73,1.73,0,0,1-.83-1.52,2.2,2.2,0,0,1,1-1.71v-.08a3.21,3.21,0,0,1-1.2-2.48,3.29,3.29,0,0,1,3.47-3.29,3.65,3.65,0,0,1,1.3.23h3.22v1.2H22.42a2.71,2.71,0,0,1,.75,1.91,3.16,3.16,0,0,1-3.38,3.2,3.2,3.2,0,0,1-1.38-.32,1.37,1.37,0,0,0-.58,1.1c0,.58.38,1,1.61,1h1.8c2.15,0,3.23.67,3.23,2.2,0,1.72-1.82,3.2-4.67,3.2C17.54,371,16,370.14,16,368.55Zm7-.48c0-.86-.65-1.15-1.86-1.15h-1.6a5.27,5.27,0,0,1-1.2-.14,1.93,1.93,0,0,0-.94,1.55c0,1,1,1.62,2.68,1.62S22.94,369,22.94,368.07Zm-1.19-7.47a2,2,0,1,0-3.92,0,2,2,0,1,0,3.92,0Z" transform="translate(-1.33)"/><path class="cls-4" d="M25.56,368.55a2.59,2.59,0,0,1,1.35-2.09v-.07a1.72,1.72,0,0,1-.82-1.52,2.19,2.19,0,0,1,1-1.71v-.08a3.2,3.2,0,0,1-1.19-2.48,3.28,3.28,0,0,1,3.46-3.29,3.65,3.65,0,0,1,1.3.23H33.9v1.2H32a2.67,2.67,0,0,1,.75,1.91A3.33,3.33,0,0,1,28,363.53a1.35,1.35,0,0,0-.59,1.1c0,.58.38,1,1.62,1h1.79c2.15,0,3.23.67,3.23,2.2,0,1.72-1.82,3.2-4.67,3.2C27.12,371,25.56,370.14,25.56,368.55Zm7-.48c0-.86-.65-1.15-1.86-1.15h-1.6a5.27,5.27,0,0,1-1.2-.14,1.93,1.93,0,0,0-.94,1.55c0,1,1,1.62,2.68,1.62S32.52,369,32.52,368.07Zm-1.19-7.47a2,2,0,1,0-3.92,0,2,2,0,1,0,3.92,0Z" transform="translate(-1.33)"/><path class="cls-4" d="M35.52,365.82A1.13,1.13,0,1,1,36.65,367,1.14,1.14,0,0,1,35.52,365.82Z" transform="translate(-1.33)"/><path class="cls-4" d="M40.29,354.63a1.08,1.08,0,0,1,2.16,0,1.08,1.08,0,0,1-2.16,0Zm.28,2.91h1.57v9.24H40.57Z" transform="translate(-1.33)"/><path class="cls-4" d="M44.57,362.17c0-3.08,2-4.86,4.28-4.86s4.28,1.78,4.28,4.86-2,4.83-4.28,4.83S44.57,365.23,44.57,362.17Zm6.94,0c0-2.11-1.07-3.56-2.66-3.56s-2.67,1.45-2.67,3.56,1.08,3.53,2.67,3.53S51.51,364.29,51.51,362.17Z" transform="translate(-1.33)"/></g><rect class="cls-5" x="206.37" y="-20.47" width="49.78" height="92.08" rx="6.19" ry="6.19" transform="translate(203.35 256.71) rotate(-89.75)"/><line class="cls-6" x1="72.64" y1="231.42" x2="49.22" y2="265.09"/><line class="cls-7" x1="104.64" y1="231.46" x2="133.59" y2="272.5"/><rect class="cls-8" x="259.99" y="186.68" width="52" height="52" rx="26" ry="26" transform="translate(70.7 497.71) rotate(-89.74)"/><path d="M290.18,200.58a9.44,9.44,0,0,0-9.58,1.73c-3.59,3.24-3.65,9.4-3.26,13.83.84,9.42,10.38,13.6,16.76,5.84,1.21-1.48-.9-3.62-2.12-2.12-2.28,2.77-5.66,4.41-9.12,2.11-2.59-1.72-2.66-6.34-2.57-9,.1-2.81.09-6,2.13-8.08a6.25,6.25,0,0,1,7-1.41c1.82.65,2.6-2.24.8-2.9Z" transform="translate(-1.33)"/><path d="M287.92,220.17a24.13,24.13,0,0,0,7.53-1.31l-1.9-1.44-.65,9.35c-.13,1.93,2.87,1.92,3,0l.65-9.35a1.52,1.52,0,0,0-1.9-1.45,21.43,21.43,0,0,1-6.73,1.2c-1.93,0-1.93,3,0,3Z" transform="translate(-1.33)"/><rect class="cls-8" x="117.1" y="96.51" width="52" height="52" rx="26" ry="26" transform="translate(18.63 265.05) rotate(-89.74)"/><path d="M142.51,108l-10.26,22.85c-.58,1.31,1.35,2.46,1.95,1.14l10.25-22.86c.59-1.31-1.35-2.45-1.94-1.13Z" transform="translate(-1.33)"/><path d="M143.13,109.63l12.46,22a1.12,1.12,0,0,0,1.94-1.13l-12.45-22a1.13,1.13,0,0,0-2,1.14Z" transform="translate(-1.33)"/><path d="M137.63,123.21,148.5,121c1.41-.29.81-2.46-.6-2.17L137,121c-1.42.29-.82,2.46.6,2.17Z" transform="translate(-1.33)"/><rect class="cls-8" x="63.99" y="185.44" width="52" height="52" rx="26" ry="26" transform="translate(-123.18 300.48) rotate(-89.74)"/><rect class="cls-9" x="122.05" y="268.59" width="52" height="52" rx="26" ry="26" transform="translate(-148.53 441.32) rotate(-89.74)"/><line class="cls-6" x1="126.89" y1="144.02" x2="103.22" y2="177.09"/><line class="cls-7" x1="156.74" y1="143.52" x2="178.69" y2="186.55"/><path d="M83,199.42,81.64,223c-.12,1.93,2.88,1.92,3,0L86,199.42c.12-1.93-2.88-1.92-3,0Z" transform="translate(-1.33)"/><path d="M85.55,201c2.84-.4,10.36-.2,8.64,4.44-1.39,3.75-6.23,3.37-9.46,3-1.92-.2-1.91,2.8,0,3,5.09.54,12.1-.34,12.68-6.76s-8-7.27-12.66-6.6c-1.9.27-1.09,3.17.8,2.89Z" transform="translate(-1.33)"/><path d="M85.19,212.88a16.53,16.53,0,0,1,6.23-.09c2.09.54,4.5,2.54,3.55,5-1.5,3.8-8.3,3.62-11.49,3.22-1.91-.23-1.89,2.77,0,3,4.94.61,14.86-.37,14.73-7.33-.13-7.17-8.74-7.35-13.81-6.65-1.91.27-1.1,3.16.79,2.9Z" transform="translate(-1.33)"/><rect class="cls-2" x="10.05" y="269.59" width="52" height="52" rx="26" ry="26" transform="translate(-261.03 330.32) rotate(-89.74)"/><line class="cls-7" x1="310.89" y1="144.24" x2="280.69" y2="186.68"/><rect class="cls-8" x="411.05" y="138.59" width="52" height="52" rx="26" ry="26" transform="translate(269.71 601.1) rotate(-89.81)"/><line class="cls-10" x1="338.72" y1="146.59" x2="357.22" y2="178.09"/><line class="cls-6" x1="206.86" y1="50.59" x2="156.22" y2="92.09"/><path d="M40.24,283.71a9.39,9.39,0,0,0-9.58,1.73c-3.59,3.23-3.65,9.39-3.26,13.82.83,9.43,10.38,13.61,16.76,5.84,1.21-1.48-.9-3.61-2.12-2.12-2.28,2.77-5.67,4.42-9.13,2.11-2.58-1.72-2.65-6.34-2.56-9,.09-2.82.09-6,2.13-8.09a6.24,6.24,0,0,1,7-1.41c1.82.66,2.6-2.24.8-2.89Z" transform="translate(-1.33)"/><path d="M141.51,285.09c4.84,1.69,11.49,3.38,12.82,9.14,1.92,8.3-7,10.44-13.08,10.71-1.92.08-1.93,3.08,0,3,7.28-.32,16-2.61,16.29-11.51s-8.36-11.84-15.23-14.23c-1.83-.64-2.61,2.26-.8,2.89Z" transform="translate(-1.33)"/><path d="M139.45,283.85l-.53,21.77c0,1.93,3,1.93,3,0l.53-21.77c.05-1.93-2.95-1.93-3,0Z" transform="translate(-1.33)"/><rect class="cls-8" x="162.05" y="185.59" width="52" height="52" rx="26" ry="26" transform="translate(-25.71 398.69) rotate(-89.74)"/><path d="M181.77,203.44q6.54-.16,13.06-.89c1.9-.22,1.92-3.22,0-3q-6.51.73-13.06.89c-1.93.05-1.94,3.05,0,3Z" transform="translate(-1.33)"/><path d="M178.76,201.93c0,4.53.15,9,.53,13.57.18,2.26-.24,6.68,1.34,8.56,1.28,1.52,4.38,1.49,6.21,1.6a25.84,25.84,0,0,0,10.3-1.63c1.81-.65,1-3.55-.79-2.9a24.35,24.35,0,0,1-7.34,1.54c-4,.19-6.07-.41-6.49-4.63-.53-5.36-.76-10.73-.76-16.11a1.5,1.5,0,0,0-3,0Z" transform="translate(-1.33)"/><path d="M181.53,214.83a70.09,70.09,0,0,0,13.65-.89c1.9-.3,1.1-3.19-.79-2.89a65.91,65.91,0,0,1-12.86.78c-1.93-.07-1.93,2.93,0,3Z" transform="translate(-1.33)"/><rect class="cls-8" x="301.09" y="97.73" width="52" height="52" rx="26" ry="26" transform="translate(200.58 450.27) rotate(-89.74)"/><path d="M320,112.8,318.91,136c-.09,1.93,2.91,1.93,3,0L323,112.8c.09-1.93-2.91-1.92-3,0Z" transform="translate(-1.33)"/><path d="M322.22,114.19a43,43,0,0,0,11.83-.49c1.9-.33,1.09-3.22-.8-2.89a40.76,40.76,0,0,1-11,.38c-1.92-.19-1.9,2.81,0,3Z" transform="translate(-1.33)"/><path d="M323.43,122.56l10.5,0a1.5,1.5,0,0,0,0-3l-10.5,0a1.5,1.5,0,0,0,0,3Z" transform="translate(-1.33)"/><path d="M436.93,152.81a126.35,126.35,0,0,0-2.29,21.06c-.05,1.93,2.95,1.93,3,0a121,121,0,0,1,2.18-20.26c.37-1.89-2.52-2.7-2.89-.8Z" transform="translate(-1.33)"/><path d="M363.55,201.49q-.3,9.38.17,18.74c.09,1.93,3.09,1.94,3,0q-.48-9.36-.17-18.74c.07-1.93-2.93-1.93-3,0Z" transform="translate(-1.33)"/><path d="M366,211.37h12.33a1.5,1.5,0,0,0,0-3H366a1.5,1.5,0,0,0,0,3Z" transform="translate(-1.33)"/><path d="M377.17,202l.62,16.76c.07,1.92,3.07,1.93,3,0L380.17,202c-.07-1.92-3.07-1.93-3,0Z" transform="translate(-1.33)"/><text class="cls-11" transform="translate(199.93 33.05) rotate(0.07)"> <tspan class="cls-12" x="3.59" y="0">App</tspan></text><polygon class="cls-13" points="155.56 83.78 164.91 91.7 152.65 97.03 155.56 83.78"/><polygon class="cls-13" points="100.56 171.78 109.91 179.71 97.65 185.03 100.56 171.78"/><polygon class="cls-13" points="48.56 256.78 57.91 264.7 45.65 270.02 48.56 256.78"/><line class="cls-7" x1="351.72" y1="123.59" x2="412.72" y2="151.59"/><polygon class="cls-14" points="291.74 98.73 301.25 91 304.22 104.03 291.74 98.73"/><polygon class="cls-14" points="350.74 179.73 360.25 172 363.22 185.03 350.74 179.73"/><rect class="cls-2" x="924.05" y="185.59" width="52" height="52" rx="26" ry="26" transform="translate(732.88 1160.68) rotate(-89.74)"/><rect class="cls-5" x="783.37" y="-20.47" width="49.78" height="92.08" rx="6.19" ry="6.19" transform="translate(777.82 833.71) rotate(-89.75)"/><path class="cls-15" d="M1033.73,328.16l-.18,35.59c0,3.26-2.3,5.89-5.1,5.88l-65.26-.25c-2.8,0-5.06-2.66-5-5.91l.17-35.6c0-3.26,2.3-5.89,5.1-5.88l65.26.25C1031.48,322.25,1033.74,324.9,1033.73,328.16Z" transform="translate(-1.33)"/><line class="cls-7" x1="650.59" y1="232.46" x2="621.64" y2="273.5"/><rect class="cls-8" x="836.99" y="186.68" width="52" height="52" rx="26" ry="26" transform="translate(645.12 1074.71) rotate(-89.74)"/><path d="M867.18,200.58a9.44,9.44,0,0,0-9.58,1.73c-3.59,3.24-3.65,9.4-3.26,13.83.84,9.42,10.38,13.6,16.76,5.84,1.21-1.48-.9-3.62-2.12-2.12-2.28,2.77-5.66,4.41-9.12,2.11-2.59-1.72-2.66-6.34-2.57-9,.1-2.81.09-6,2.13-8.08a6.25,6.25,0,0,1,7-1.41c1.82.65,2.6-2.24.8-2.9Z" transform="translate(-1.33)"/><path d="M864.92,220.17a24.13,24.13,0,0,0,7.53-1.31l-1.9-1.44-.65,9.35c-.13,1.93,2.87,1.92,3,0l.65-9.35a1.52,1.52,0,0,0-1.9-1.45,21.43,21.43,0,0,1-6.73,1.2c-1.93,0-1.93,3,0,3Z" transform="translate(-1.33)"/><rect class="cls-8" x="694.1" y="96.51" width="52" height="52" rx="26" ry="26" transform="matrix(0, -1, 1, 0, 593.05, 842.05)"/><path d="M719.51,108l-10.26,22.85c-.58,1.31,1.35,2.46,2,1.14l10.25-22.86c.59-1.31-1.35-2.45-1.94-1.13Z" transform="translate(-1.33)"/><path d="M720.13,109.63l12.46,22a1.12,1.12,0,0,0,1.94-1.13l-12.45-22a1.13,1.13,0,0,0-2,1.14Z" transform="translate(-1.33)"/><path d="M714.63,123.21,725.5,121c1.41-.29.81-2.46-.6-2.17L714,121c-1.42.29-.82,2.46.6,2.17Z" transform="translate(-1.33)"/><rect class="cls-8" x="640.99" y="185.44" width="52" height="52" rx="26" ry="26" transform="translate(451.24 877.48) rotate(-89.74)"/><rect class="cls-2" x="699.05" y="268.59" width="52" height="52" rx="26" ry="26" transform="translate(425.89 1018.32) rotate(-89.74)"/><line class="cls-7" x1="733.74" y1="143.52" x2="755.69" y2="186.55"/><line class="cls-7" x1="752.5" y1="234.43" x2="734.72" y2="270.59"/><line class="cls-7" x1="917.74" y1="144.52" x2="939.69" y2="187.55"/><path d="M660,199.42,658.64,223c-.12,1.93,2.88,1.92,3,0L663,199.42c.12-1.93-2.88-1.92-3,0Z" transform="translate(-1.33)"/><path d="M662.55,201c2.84-.4,10.36-.2,8.64,4.44-1.39,3.75-6.23,3.37-9.46,3-1.92-.2-1.91,2.8,0,3,5.09.54,12.1-.34,12.68-6.76s-8-7.27-12.66-6.6c-1.9.27-1.09,3.17.8,2.89Z" transform="translate(-1.33)"/><path d="M662.19,212.88a16.53,16.53,0,0,1,6.23-.09c2.09.54,4.5,2.54,3.55,5-1.5,3.8-8.3,3.62-11.49,3.22-1.91-.23-1.89,2.77,0,3,4.94.61,14.86-.37,14.73-7.33-.13-7.17-8.74-7.35-13.81-6.65-1.91.27-1.1,3.16.79,2.9Z" transform="translate(-1.33)"/><rect class="cls-8" x="586.05" y="270.59" width="52" height="52" rx="26" ry="26" transform="translate(311.4 907.31) rotate(-89.74)"/><line class="cls-7" x1="887.89" y1="144.24" x2="857.69" y2="186.68"/><rect class="cls-8" x="988.05" y="138.59" width="52" height="52" rx="26" ry="26" transform="translate(844.83 1178.1) rotate(-89.81)"/><path d="M616.24,284.71a9.39,9.39,0,0,0-9.58,1.73c-3.59,3.23-3.65,9.39-3.26,13.82.83,9.43,10.38,13.61,16.76,5.84,1.21-1.48-.9-3.61-2.12-2.12-2.28,2.77-5.67,4.42-9.13,2.11-2.58-1.72-2.65-6.34-2.56-9,.09-2.82.09-6,2.13-8.09a6.24,6.24,0,0,1,7-1.41c1.82.66,2.6-2.24.8-2.89Z" transform="translate(-1.33)"/><path d="M718.51,285.09c4.84,1.69,11.49,3.38,12.82,9.14,1.92,8.3-7,10.44-13.08,10.71-1.92.08-1.93,3.08,0,3,7.28-.32,16-2.61,16.29-11.51s-8.36-11.84-15.23-14.23c-1.83-.64-2.61,2.26-.8,2.89Z" transform="translate(-1.33)"/><path d="M716.45,283.85l-.53,21.77c0,1.93,3,1.93,3,0l.53-21.77c0-1.93-3-1.93-3,0Z" transform="translate(-1.33)"/><rect class="cls-8" x="739.05" y="185.59" width="52" height="52" rx="26" ry="26" transform="translate(548.71 975.69) rotate(-89.74)"/><path d="M758.77,203.44q6.54-.16,13.06-.89c1.9-.22,1.92-3.22,0-3q-6.51.73-13.06.89c-1.93.05-1.94,3.05,0,3Z" transform="translate(-1.33)"/><path d="M755.76,201.93c0,4.53.15,9,.53,13.57.18,2.26-.24,6.68,1.34,8.56,1.28,1.52,4.38,1.49,6.21,1.6a25.84,25.84,0,0,0,10.3-1.63c1.81-.65,1-3.55-.79-2.9a24.35,24.35,0,0,1-7.34,1.54c-4,.19-6.07-.41-6.49-4.63-.53-5.36-.76-10.73-.76-16.11a1.5,1.5,0,0,0-3,0Z" transform="translate(-1.33)"/><path d="M758.53,214.83a70.09,70.09,0,0,0,13.65-.89c1.9-.3,1.1-3.19-.79-2.89a65.91,65.91,0,0,1-12.86.78c-1.93-.07-1.93,2.93,0,3Z" transform="translate(-1.33)"/><rect class="cls-8" x="878.09" y="97.73" width="52" height="52" rx="26" ry="26" transform="translate(775 1027.26) rotate(-89.74)"/><path d="M897,112.8,895.91,136c-.09,1.93,2.91,1.93,3,0L900,112.8c.09-1.93-2.91-1.92-3,0Z" transform="translate(-1.33)"/><path d="M899.22,114.19a43,43,0,0,0,11.83-.49c1.9-.33,1.09-3.22-.8-2.89a40.76,40.76,0,0,1-11,.38c-1.92-.19-1.9,2.81,0,3Z" transform="translate(-1.33)"/><path d="M900.43,122.56l10.5,0a1.5,1.5,0,0,0,0-3l-10.5,0a1.5,1.5,0,0,0,0,3Z" transform="translate(-1.33)"/><path d="M1013.93,152.81a126.35,126.35,0,0,0-2.29,21.06c0,1.93,3,1.93,3,0a121,121,0,0,1,2.18-20.26c.37-1.89-2.52-2.7-2.89-.8Z" transform="translate(-1.33)"/><path d="M940.55,201.49q-.3,9.38.17,18.74c.09,1.93,3.09,1.94,3,0q-.48-9.36-.17-18.74c.07-1.93-2.93-1.93-3,0Z" transform="translate(-1.33)"/><path d="M943,211.37h12.33a1.5,1.5,0,0,0,0-3H943a1.5,1.5,0,0,0,0,3Z" transform="translate(-1.33)"/><path d="M954.17,202l.62,16.76c.07,1.92,3.07,1.93,3,0L957.17,202c-.07-1.92-3.07-1.93-3,0Z" transform="translate(-1.33)"/><text class="cls-11" transform="translate(776.93 33.05) rotate(0.07)"> <tspan class="cls-12" x="3.59" y="0">App</tspan></text><line class="cls-7" x1="928.72" y1="123.59" x2="989.72" y2="151.59"/><text class="cls-16" transform="matrix(1.14, 0, 0, 1, 971.48, 351.01)">store</text><line class="cls-17" x1="756.72" y1="301.59" x2="956.72" y2="346.59"/><line class="cls-17" x1="965.72" y1="238.59" x2="996.98" y2="322.75"/><polygon class="cls-18" points="766.34 298.19 762.12 309.7 752.9 300.03 766.34 298.19"/><polygon class="cls-18" points="974.34 243.11 963.21 248.22 963.58 234.87 974.34 243.11"/><line class="cls-7" x1="703.59" y1="143.46" x2="677.72" y2="188.59"/><line class="cls-7" x1="792.59" y1="50.46" x2="728.72" y2="98.59"/><line class="cls-7" x1="831.72" y1="50.46" x2="895.59" y2="98.59"/></g></g></svg>