<svg xmlns="http://www.w3.org/2000/svg" viewBox="0 0 547 425"><defs><style>.cls-1{fill:#4d4d4d;}.cls-1,.cls-4{opacity:0.8;}.cls-2{opacity:0.5;}.cls-10,.cls-3{fill:#999;}.cls-4{fill:#e6e6e6;}.cls-5{font-size:12.17px;}.cls-19,.cls-21,.cls-23,.cls-5{stroke:#000;}.cls-10,.cls-19,.cls-21,.cls-22,.cls-23,.cls-5{stroke-miterlimit:10;}.cls-19,.cls-5{font-family:MyriadPro-Regular, Myriad Pro;}.cls-6{letter-spacing:-0.01em;}.cls-7{letter-spacing:-0.01em;}.cls-8{letter-spacing:0em;}.cls-9{letter-spacing:0em;}.cls-10,.cls-22{stroke:#999;}.cls-11,.cls-12,.cls-13,.cls-14,.cls-15,.cls-16{fill:#00aa94;}.cls-12{opacity:0.85;}.cls-13{opacity:0.7;}.cls-14{opacity:0.55;}.cls-15{opacity:0.4;}.cls-16{opacity:0.25;}.cls-17{letter-spacing:0em;}.cls-18{letter-spacing:0em;}.cls-19{font-size:12.17px;}.cls-20{letter-spacing:0em;}.cls-21,.cls-22{fill:none;}.cls-24{letter-spacing:0.01em;}</style></defs><g id="레이어_2" data-name="레이어 2"><g id="레이어_1-2" data-name="레이어 1"><rect class="cls-1" x="61" y="-61" width="425" height="547" rx="4.46" transform="translate(61 486) rotate(-90)"/><g class="cls-2"><path class="cls-3" d="M436.37,400.79l1.31,0-.19,5.88-1.31,0Zm-.18-1.86c0-.39.42-.63.93-.62s.9.27.89.66-.42.64-.93.62S436.18,399.31,436.19,398.93Z"/><path class="cls-3" d="M440.3,400.87l1.08,0,.09.85h0a4.31,4.31,0,0,1,2.63-.94c1.64,0,2.35.85,2.3,2.35l-.13,3.73-1.31,0,.12-3.6c0-1.09-.39-1.57-1.41-1.59a3.3,3.3,0,0,0-2.15.86l-.14,4.26-1.31,0Z"/><path class="cls-3" d="M448.21,408c0-.5.46-1,1.18-1.3v-.05a1.06,1.06,0,0,1-.66-1,1.45,1.45,0,0,1,.89-1.07v-.05a1.91,1.91,0,0,1-.95-1.6c0-1.28,1.41-2.06,3-2a4,4,0,0,1,1.09.17l2.71.05,0,.77-1.59,0a1.45,1.45,0,0,1,.59,1.22c0,1.26-1.32,2-2.91,2a3.51,3.51,0,0,1-1.15-.23c-.28.18-.5.37-.51.69s.3.64,1.33.66l1.51,0c1.81,0,2.7.49,2.67,1.47s-1.59,2-4,1.95C449.47,409.65,448.18,409.06,448.21,408Zm5.86-.18c0-.55-.52-.74-1.54-.76l-1.34,0a6.11,6.11,0,0,1-1-.11c-.57.29-.82.63-.83,1,0,.63.81,1.05,2.22,1.08S454.05,408.47,454.07,407.86Zm-.84-4.77c0-.86-.69-1.39-1.6-1.41a1.41,1.41,0,1,0-.09,2.77A1.52,1.52,0,0,0,453.23,403.09Z"/><path class="cls-3" d="M456.26,408.21c0-.5.45-1,1.18-1.31v0a1,1,0,0,1-.66-1c0-.49.48-.87.89-1.07v-.05a1.9,1.9,0,0,1-.95-1.6c0-1.29,1.4-2.07,3-2a4,4,0,0,1,1.09.17l2.7.06,0,.76-1.6,0a1.52,1.52,0,0,1,.6,1.22c0,1.26-1.32,2-2.91,2a3.45,3.45,0,0,1-1.15-.22c-.29.17-.51.36-.52.68s.3.65,1.34.67l1.51,0c1.8,0,2.7.49,2.66,1.46s-1.59,2-4,2C457.52,409.81,456.22,409.22,456.26,408.21Zm5.85-.19c0-.54-.52-.74-1.54-.76l-1.33,0a5.23,5.23,0,0,1-1-.1c-.56.28-.81.63-.82,1,0,.64.8,1.05,2.21,1.08S462.09,408.64,462.11,408Zm-.84-4.77c0-.85-.68-1.39-1.6-1.41a1.49,1.49,0,0,0-1.69,1.34,1.46,1.46,0,0,0,1.6,1.43A1.5,1.5,0,0,0,461.27,403.25Z"/><path class="cls-3" d="M464.68,406.64a.86.86,0,0,1,1-.74.85.85,0,0,1,.93.78.87.87,0,0,1-1,.74C465.08,407.41,464.66,407.09,464.68,406.64Z"/><path class="cls-3" d="M468.27,404.39a3.2,3.2,0,0,1,3.46-3,3.73,3.73,0,0,1,2.15.73l0-1,.07-2.27,1.32,0-.29,8.61-1.08,0-.09-.69h0a4,4,0,0,1-2.39.79A2.87,2.87,0,0,1,468.27,404.39Zm5.43,1.55.1-3.08a3.26,3.26,0,0,0-1.87-.65,2.2,2.2,0,0,0-2.3,2.2,2,2,0,0,0,2.05,2.3A3.07,3.07,0,0,0,473.7,405.94Z"/><path class="cls-3" d="M477.11,404.58a3.31,3.31,0,0,1,3.59-3c2,0,3.06,1.15,3,2.83a2.68,2.68,0,0,1-.08.56l-5.22-.11a2.27,2.27,0,0,0,2.51,2.11,4.2,4.2,0,0,0,1.94-.43l.45.66a5.6,5.6,0,0,1-2.58.56C478.65,407.69,477,406.51,477.11,404.58Zm5.44-.37a1.67,1.67,0,0,0-1.86-1.86,2.16,2.16,0,0,0-2.28,1.77Z"/><path class="cls-3" d="M484.66,401.78l1.35,0,1.36,3.37c.21.58.45,1.18.66,1.75h.06l.78-1.72,1.57-3.31,1.29,0-2.94,5.82-1.52,0Z"/></g><rect class="cls-4" x="102.19" y="-20.38" width="30.6" height="96.3" rx="4.46" transform="translate(89.72 145.26) rotate(-90)"/><text class="cls-5" transform="translate(83.66 30.58) scale(1.26 1)">Click <tspan class="cls-6" x="26.52" y="0">E</tspan><tspan class="cls-7" x="32.43" y="0">v</tspan><tspan x="38.16" y="0">e</tspan><tspan class="cls-8" x="44.26" y="0">n</tspan><tspan class="cls-9" x="50.96" y="0">t</tspan></text><rect class="cls-4" x="256.27" y="354.75" width="30.6" height="96.3" rx="4.46" transform="translate(-131.33 674.47) rotate(-90)"/><text class="cls-5" transform="translate(238.37 405.88) scale(1.26 1)">Click <tspan class="cls-6" x="26.52" y="0">E</tspan><tspan class="cls-7" x="32.43" y="0">v</tspan><tspan x="38.16" y="0">e</tspan><tspan class="cls-8" x="44.26" y="0">n</tspan><tspan class="cls-9" x="50.96" y="0">t</tspan></text><rect class="cls-4" x="397.52" y="-11.32" width="30.6" height="96.3" rx="4.46" transform="translate(375.98 449.65) rotate(-90)"/><text class="cls-5" transform="translate(379.4 40.04) scale(1.26 1)">Click <tspan class="cls-6" x="26.52" y="0">E</tspan><tspan class="cls-7" x="32.43" y="0">v</tspan><tspan x="38.16" y="0">e</tspan><tspan class="cls-8" x="44.26" y="0">n</tspan><tspan class="cls-9" x="50.96" y="0">t</tspan></text><polygon class="cls-10" points="202.24 395.68 202.2 384.23 209.45 389.96 202.24 395.68"/><rect class="cls-11" x="246.45" y="-13.28" width="37.4" height="91.17" rx="2.13" transform="translate(232.85 297.45) rotate(-90)"/><rect class="cls-12" x="246.45" y="50.18" width="37.4" height="91.17" rx="2.13" transform="translate(169.39 360.92) rotate(-90)"/><rect class="cls-13" x="246.45" y="114.78" width="37.4" height="91.17" rx="2.13" transform="translate(104.79 425.52) rotate(-90)"/><rect class="cls-14" x="246.45" y="179.38" width="37.4" height="91.17" rx="2.13" transform="translate(40.19 490.12) rotate(-90)"/><rect class="cls-15" x="246.45" y="243.98" width="37.4" height="91.17" rx="2.13" transform="translate(-24.41 554.72) rotate(-90)"/><rect class="cls-16" x="246.45" y="307.45" width="37.4" height="91.17" rx="2.13" transform="translate(-87.88 618.19) rotate(-90)"/><text class="cls-5" transform="translate(233.24 35.99) scale(1.26 1)"><tspan class="cls-17">D</tspan><tspan class="cls-9" x="8.15" y="0">ocume</tspan><tspan class="cls-18" x="43.25" y="0">n</tspan><tspan x="49.95" y="0">t</tspan></text><text class="cls-19" transform="matrix(1.26, -0.01, 0.01, 1, 239.24, 90.89)">Eleme<tspan class="cls-20" x="31.21" y="0">n</tspan><tspan x="37.92" y="0">t</tspan></text><path class="cls-21" d="M212.32,85C183.48,67.18,181.08,44.6,207,34.48"/><path class="cls-22" d="M109.24,67.36C29.58,192.87,72.5,337.08,205.2,389.8"/><polygon class="cls-23" points="206.89 85.62 212.95 82.02 213.88 85.57 206.89 85.62"/><path class="cls-21" d="M212.32,153.21c-28.84-17.78-31.24-40.35-5.37-50.47"/><polygon class="cls-23" points="206.89 153.62 212.95 150.02 213.88 153.57 206.89 153.62"/><path class="cls-21" d="M212.32,220.83c-28.84-17.78-31.24-40.35-5.37-50.47"/><polygon class="cls-23" points="206.89 221.62 212.95 218.02 213.88 221.57 206.89 221.62"/><path class="cls-21" d="M212.32,288.45C183.48,270.67,181.08,248.1,207,238"/><polygon class="cls-23" points="206.89 288.49 212.95 284.89 213.88 288.43 206.89 288.49"/><path class="cls-21" d="M212.32,356.07c-28.84-17.77-31.24-40.35-5.37-50.47"/><polygon class="cls-23" points="206.89 356.49 212.95 352.89 213.88 356.43 206.89 356.49"/><text class="cls-5" transform="translate(243.77 107.38) scale(1.26 1)">&lt;<tspan class="cls-8" x="7.25" y="0">h</tspan><tspan class="cls-9" x="13.96" y="0">tml&gt;</tspan></text><text class="cls-19" transform="matrix(1.26, -0.01, 0.01, 1, 239.24, 155.13)">Eleme<tspan class="cls-20" x="31.21" y="0">n</tspan><tspan x="37.92" y="0">t</tspan></text><text class="cls-5" transform="translate(243.77 171.62) scale(1.26 1)">&lt;body&gt;</text><text class="cls-19" transform="matrix(1.26, -0.01, 0.01, 1, 239.24, 219.37)">Eleme<tspan class="cls-20" x="31.21" y="0">n</tspan><tspan x="37.92" y="0">t</tspan></text><text class="cls-5" transform="translate(233.51 235.86) scale(1.26 1)">&lt;se<tspan class="cls-24" x="18.17" y="0">c</tspan><tspan class="cls-9" x="23.78" y="0">tion&gt;</tspan></text><text class="cls-19" transform="matrix(1.26, -0.01, 0.01, 1, 239.24, 284.97)">Eleme<tspan class="cls-20" x="31.21" y="0">n</tspan><tspan x="37.92" y="0">t</tspan></text><text class="cls-5" transform="translate(252.32 301.46) scale(1.26 1)">&lt;p&gt;</text><text class="cls-19" transform="matrix(1.26, -0.01, 0.01, 1, 239.24, 349.89)">Eleme<tspan class="cls-20" x="31.21" y="0">n</tspan><tspan x="37.92" y="0">t</tspan></text><text class="cls-5" transform="translate(252.32 366.38) scale(1.26 1)">&lt;a&gt;</text><path class="cls-21" d="M317.65,297.75c28.83,17.77,31.23,40.35,5.37,50.47"/><polygon class="cls-23" points="323.07 297.45 317.02 301.05 316.09 297.5 323.07 297.45"/><path class="cls-21" d="M317.65,232.15c28.83,17.78,31.23,40.35,5.37,50.47"/><polygon class="cls-23" points="323.07 231.71 317.02 235.31 316.09 231.77 323.07 231.71"/><path class="cls-21" d="M317.65,166.56c28.83,17.78,31.23,40.35,5.37,50.47"/><polygon class="cls-23" points="323.07 165.98 317.02 169.58 316.09 166.03 323.07 165.98"/><path class="cls-21" d="M317.65,101c28.83,17.78,31.23,40.36,5.37,50.47"/><polygon class="cls-23" points="323.07 100.25 317.02 103.84 316.09 100.3 323.07 100.25"/><path class="cls-21" d="M317.65,35.37c28.83,17.78,31.23,40.35,5.37,50.47"/><polygon class="cls-23" points="323.07 34.51 317.02 38.11 316.09 34.57 323.07 34.51"/><polygon class="cls-10" points="385.08 57.88 379.37 68.57 373.69 61.08 385.08 57.88"/><path class="cls-22" d="M329.79,391.64c157.11-93.57,179-240.79,48.81-329.16"/></g></g></svg>