<svg xmlns="http://www.w3.org/2000/svg" viewBox="0 0 684 433"><defs><style>.cls-1{fill:#ccc;}.cls-16,.cls-17,.cls-2,.cls-36,.cls-7{fill:#fff;}.cls-3{stroke:#000;stroke-miterlimit:10;stroke-width:4px;}.cls-4{opacity:0.5;}.cls-5{fill:#e6e6e6;}.cls-6{fill:#29abe2;}.cls-42,.cls-7{font-size:22px;}.cls-10,.cls-16,.cls-17,.cls-29,.cls-36,.cls-7{font-family:ChalkboardSE-Regular, Chalkboard SE;}.cls-8{letter-spacing:-0.1em;}.cls-9{letter-spacing:0.01em;}.cls-10{font-size:20.57px;}.cls-11{letter-spacing:-0.01em;}.cls-12{letter-spacing:-0.04em;}.cls-13{letter-spacing:0.04em;}.cls-14{letter-spacing:0.03em;}.cls-15{fill:#00a99d;}.cls-16{font-size:19px;}.cls-17{font-size:18px;}.cls-18{letter-spacing:0.02em;}.cls-19{letter-spacing:-0.03em;}.cls-20{letter-spacing:0.02em;}.cls-21{letter-spacing:-0.05em;}.cls-22{letter-spacing:-0.04em;}.cls-23{letter-spacing:-0.04em;}.cls-24{letter-spacing:0em;}.cls-25{letter-spacing:-0.03em;}.cls-26{letter-spacing:0.02em;}.cls-27{letter-spacing:0.03em;}.cls-28{letter-spacing:-0.06em;}.cls-29{font-size:23px;}.cls-30{letter-spacing:-0.07em;}.cls-31{letter-spacing:0em;}.cls-32{letter-spacing:-0.07em;}.cls-33{letter-spacing:0.03em;}.cls-34{fill:#fbb03b;}.cls-35{fill:#f7691e;}.cls-36{font-size:26px;}.cls-37{letter-spacing:-0.01em;}.cls-38{letter-spacing:-0.02em;}.cls-39{letter-spacing:-0.08em;}.cls-40{letter-spacing:-0.03em;}.cls-41{letter-spacing:-0.02em;}.cls-42{font-family:AppleSDGothicNeo-Medium-KSCpc-EUC-H, Apple SD Gothic Neo;}.cls-43{letter-spacing:0em;}</style></defs><title>t3</title><g id="레이어_2" data-name="레이어 2"><g id="레이어_1-2" data-name="레이어 1"><rect class="cls-1" width="684" height="433"/><ellipse class="cls-2" cx="222.42" cy="319.5" rx="45.58" ry="44.5"/><path d="M222.42,277c24,0,43.58,19.07,43.58,42.5S246.45,362,222.42,362s-43.58-19.07-43.58-42.5S198.39,277,222.42,277m0-4c-26.28,0-47.58,20.82-47.58,46.5s21.3,46.5,47.58,46.5S270,345.18,270,319.5,248.7,273,222.42,273Z"/><polygon class="cls-2" points="193.03 286.68 190.93 283.94 206.33 283.26 193.03 286.68"/><polygon class="cls-3" points="188.13 284.63 195.13 283.26 193.03 289.41 188.13 284.63"/><ellipse class="cls-1" cx="222.5" cy="320" rx="43.5" ry="43"/><g class="cls-4"><path class="cls-5" d="M8.92,405.89a1.1,1.1,0,0,1,1.19-1.11,1.1,1.1,0,0,1,1.19,1.11A1.13,1.13,0,0,1,10.11,407,1.13,1.13,0,0,1,8.92,405.89Zm.31,3.22H11v10.2H9.23Z"/><path class="cls-5" d="M14.41,409.11h1.42l.15,1.47H16a4.85,4.85,0,0,1,3.42-1.72c2.15,0,3.12,1.38,3.12,4v6.46H20.85v-6.24c0-1.9-.58-2.72-1.93-2.72-1,0-1.76.54-2.79,1.57v7.39H14.41Z"/><path class="cls-5" d="M25.11,421.27a2.86,2.86,0,0,1,1.5-2.3v-.09a1.89,1.89,0,0,1-.92-1.67,2.47,2.47,0,0,1,1.13-1.9v-.08a3.53,3.53,0,0,1-1.32-2.74,3.62,3.62,0,0,1,3.83-3.63,4,4,0,0,1,1.44.25h3.56v1.33h-2.1a3,3,0,0,1,.83,2.1,3.49,3.49,0,0,1-3.73,3.54,3.67,3.67,0,0,1-1.52-.35,1.51,1.51,0,0,0-.66,1.21c0,.64.42,1.1,1.79,1.1h2c2.37,0,3.56.75,3.56,2.44,0,1.9-2,3.53-5.16,3.53C26.83,424,25.11,423,25.11,421.27Zm7.69-.53c0-.95-.71-1.27-2-1.27H29a5.83,5.83,0,0,1-1.33-.15,2.13,2.13,0,0,0-1,1.71c0,1.1,1.1,1.79,3,1.79S32.8,421.8,32.8,420.74Zm-1.31-8.25a2.17,2.17,0,1,0-4.33,0,2.18,2.18,0,1,0,4.33,0Z"/><path class="cls-5" d="M35.7,421.27a2.86,2.86,0,0,1,1.5-2.3v-.09a1.89,1.89,0,0,1-.92-1.67,2.47,2.47,0,0,1,1.13-1.9v-.08a3.53,3.53,0,0,1-1.32-2.74,3.62,3.62,0,0,1,3.83-3.63,4,4,0,0,1,1.44.25h3.56v1.33h-2.1a3,3,0,0,1,.83,2.1,3.49,3.49,0,0,1-3.73,3.54,3.67,3.67,0,0,1-1.52-.35,1.51,1.51,0,0,0-.66,1.21c0,.64.42,1.1,1.79,1.1h2c2.37,0,3.56.75,3.56,2.44,0,1.9-2,3.53-5.16,3.53C37.42,424,35.7,423,35.7,421.27Zm7.69-.53c0-.95-.71-1.27-2-1.27H39.58a5.83,5.83,0,0,1-1.33-.15,2.13,2.13,0,0,0-1,1.71c0,1.1,1.1,1.79,3,1.79S43.39,421.8,43.39,420.74Zm-1.31-8.25a2.17,2.17,0,1,0-4.33,0,2.18,2.18,0,1,0,4.33,0Z"/><path class="cls-5" d="M46.71,418.26a1.25,1.25,0,1,1,1.25,1.3A1.26,1.26,0,0,1,46.71,418.26Z"/><path class="cls-5" d="M52,405.89a1.2,1.2,0,0,1,2.39,0,1.2,1.2,0,0,1-2.39,0Zm.32,3.22H54v10.2H52.3Z"/><path class="cls-5" d="M56.71,414.22c0-3.4,2.23-5.36,4.73-5.36s4.73,2,4.73,5.36-2.23,5.34-4.73,5.34S56.71,417.6,56.71,414.22Zm7.68,0c0-2.34-1.19-3.93-3-3.93s-2.94,1.59-2.94,3.93,1.19,3.91,2.94,3.91S64.39,416.56,64.39,414.22Z"/></g><rect class="cls-6" x="434.5" y="187.5" width="65" height="400" rx="9.65" ry="9.65" transform="translate(854.5 -79.5) rotate(90)"/><text class="cls-7" transform="translate(557.13 409.52) scale(0.9 1)"><tspan class="cls-8">T</tspan><tspan class="cls-9" x="10.4" y="0">a</tspan><tspan x="22.46" y="0">sk Queue</tspan></text><text class="cls-10" transform="translate(65.5 326.07) scale(1.02 1)">E<tspan class="cls-11" x="11.25" y="0">v</tspan><tspan x="20.66" y="0">e</tspan><tspan class="cls-12" x="31.47" y="0">n</tspan><tspan x="41.2" y="0">t L</tspan><tspan class="cls-13" x="69.13" y="0">o</tspan><tspan class="cls-14" x="79.95" y="0">o</tspan><tspan x="90.61" y="0">p</tspan></text><rect class="cls-15" x="517.58" y="-20.42" width="40.12" height="258.72" rx="9.65" ry="9.65" transform="translate(428.7 646.58) rotate(-90)"/><rect class="cls-15" x="517.58" y="28.58" width="40.12" height="258.72" rx="9.65" ry="9.65" transform="translate(379.7 695.58) rotate(-90)"/><rect class="cls-15" x="517.58" y="77.58" width="40.12" height="258.72" rx="9.65" ry="9.65" transform="translate(330.7 744.58) rotate(-90)"/><text class="cls-16" transform="translate(515.5 115.02)">DOM</text><text class="cls-17" transform="translate(449 162.19)"><tspan class="cls-18">A</tspan><tspan x="11.89" y="0">jax(XMLH</tspan><tspan class="cls-19" x="91.43" y="0">t</tspan><tspan x="99.13" y="0">tpRequ</tspan><tspan class="cls-20" x="156.37" y="0">e</tspan><tspan class="cls-21" x="166.25" y="0">s</tspan><tspan class="cls-22" x="173.16" y="0">t</tspan><tspan x="180.69" y="0">)</tspan></text><text class="cls-16" transform="translate(495 212.02)">S<tspan class="cls-23" x="11.17" y="0">e</tspan><tspan class="cls-24" x="20.32" y="0">t</tspan><tspan class="cls-25" x="29.01" y="0">T</tspan><tspan x="39.26" y="0">i</tspan><tspan class="cls-26" x="44" y="0">m</tspan><tspan x="58.47" y="0">e</tspan><tspan class="cls-27" x="68.46" y="0">o</tspan><tspan class="cls-28" x="78.31" y="0">u</tspan><tspan x="87.19" y="0">t</tspan></text><text class="cls-29" transform="translate(488.5 76.35)"><tspan class="cls-30">W</tspan><tspan class="cls-31" x="21.2" y="0">e</tspan><tspan x="33.32" y="0">b</tspan><tspan class="cls-32" x="46.18" y="0"> </tspan><tspan class="cls-33" x="53.4" y="0">A</tspan><tspan x="68.9" y="0">PI</tspan></text><polyline points="191 290 196 294 198 281"/><polygon class="cls-1" points="197.59 283.64 199 276 203 282 198.63 284.05 197.59 283.64"/><polyline class="cls-1" points="195.42 281.21 199 280 198.59 278.26"/><polygon class="cls-1" points="197.21 285.01 198 284 198 284 197.21 285.01"/><polyline class="cls-1" points="199 284 198 284 198 285 198 284 198 284 198 284 198 284 197.46 284.8 197.41 284.87 212 282 209 289 198 283 198 285 198 284 198 284 197.53 284.05 198 284 198 284"/><rect class="cls-34" x="45" y="13" width="263" height="237" rx="9.65" ry="9.65"/><rect class="cls-35" x="65.27" y="141" width="221.54" height="41.53" rx="1.42" ry="1.42"/><rect class="cls-35" x="65.27" y="193" width="221.54" height="41.53" rx="1.42" ry="1.42"/><text class="cls-36" transform="translate(50.48 38.69) scale(0.92 1)">C<tspan class="cls-37" x="15.26" y="0">a</tspan><tspan class="cls-38" x="28.99" y="0">l</tspan><tspan x="36.4" y="0">l S</tspan><tspan class="cls-39" x="69.44" y="0">t</tspan><tspan class="cls-40" x="79.26" y="0">a</tspan><tspan class="cls-41" x="92.39" y="0">c</tspan><tspan x="104.78" y="0">k</tspan></text><text class="cls-42" transform="translate(116.35 168.1)">s<tspan class="cls-43" x="9" y="0">e</tspan><tspan x="19.98" y="0">tTimeout()</tspan></text><text class="cls-42" transform="translate(146.35 220.1)">main()</text></g></g></svg>