<svg xmlns="http://www.w3.org/2000/svg" viewBox="0 0 684 433"><defs><style>.cls-1{fill:#ccc;}.cls-16,.cls-17,.cls-2,.cls-35,.cls-7{fill:#fff;}.cls-3{stroke:#000;stroke-miterlimit:10;stroke-width:4px;}.cls-4{opacity:0.5;}.cls-5{fill:#e6e6e6;}.cls-6{fill:#29abe2;}.cls-7{font-size:22px;}.cls-10,.cls-16,.cls-17,.cls-29,.cls-35,.cls-43,.cls-7{font-family:ChalkboardSE-Regular, Chalkboard SE;}.cls-8{letter-spacing:-0.1em;}.cls-9{letter-spacing:0.01em;}.cls-10{font-size:20.57px;}.cls-11{letter-spacing:-0.01em;}.cls-12{letter-spacing:-0.04em;}.cls-13{letter-spacing:0.04em;}.cls-14{letter-spacing:0.03em;}.cls-15{fill:#00a99d;}.cls-16{font-size:19px;}.cls-17,.cls-43{font-size:18px;}.cls-18{letter-spacing:0.02em;}.cls-19{letter-spacing:-0.03em;}.cls-20{letter-spacing:0.02em;}.cls-21{letter-spacing:-0.05em;}.cls-22{letter-spacing:-0.04em;}.cls-23{letter-spacing:-0.04em;}.cls-24{letter-spacing:0em;}.cls-25{letter-spacing:-0.03em;}.cls-26{letter-spacing:0.02em;}.cls-27{letter-spacing:0.03em;}.cls-28{letter-spacing:-0.06em;}.cls-29{font-size:23px;}.cls-30{letter-spacing:-0.07em;}.cls-31{letter-spacing:0em;}.cls-32{letter-spacing:-0.07em;}.cls-33{letter-spacing:0.03em;}.cls-34{fill:#fbb03b;}.cls-35{font-size:26px;}.cls-36{letter-spacing:-0.01em;}.cls-37{letter-spacing:-0.02em;}.cls-38{letter-spacing:-0.08em;}.cls-39{letter-spacing:-0.03em;}.cls-40{letter-spacing:-0.02em;}.cls-41{fill:#4d4d4d;}.cls-42{fill:#662d91;opacity:0.8;}.cls-44{letter-spacing:-0.01em;}.cls-45{letter-spacing:-0.02em;}.cls-46{letter-spacing:-0.02em;}.cls-47{letter-spacing:-0.03em;}.cls-48{letter-spacing:-0.02em;}</style></defs><title>t8</title><g id="레이어_2" data-name="레이어 2"><g id="레이어_1-2" data-name="레이어 1"><rect class="cls-1" width="684" height="433"/><ellipse class="cls-2" cx="223.42" cy="321.5" rx="45.58" ry="44.5"/><path d="M223.42,279c24,0,43.58,19.07,43.58,42.5S247.45,364,223.42,364s-43.58-19.07-43.58-42.5S199.39,279,223.42,279m0-4c-26.28,0-47.58,20.82-47.58,46.5s21.3,46.5,47.58,46.5S271,347.18,271,321.5,249.7,275,223.42,275Z"/><polygon class="cls-2" points="194.03 288.68 191.93 285.94 207.33 285.26 194.03 288.68"/><polygon class="cls-3" points="189.13 286.63 196.13 285.26 194.03 291.41 189.13 286.63"/><ellipse class="cls-1" cx="223.5" cy="322" rx="43.5" ry="43"/><g class="cls-4"><path class="cls-5" d="M9.92,407.89a1.1,1.1,0,0,1,1.19-1.11,1.1,1.1,0,0,1,1.19,1.11A1.13,1.13,0,0,1,11.11,409,1.13,1.13,0,0,1,9.92,407.89Zm.31,3.22H12v10.2H10.23Z"/><path class="cls-5" d="M15.41,411.11h1.42l.15,1.47H17a4.85,4.85,0,0,1,3.42-1.72c2.15,0,3.12,1.38,3.12,4v6.46H21.85v-6.24c0-1.9-.58-2.72-1.93-2.72-1,0-1.76.54-2.79,1.57v7.39H15.41Z"/><path class="cls-5" d="M26.11,423.27a2.86,2.86,0,0,1,1.5-2.3v-.09a1.89,1.89,0,0,1-.92-1.67,2.47,2.47,0,0,1,1.13-1.9v-.08a3.53,3.53,0,0,1-1.32-2.74,3.62,3.62,0,0,1,3.83-3.63,4,4,0,0,1,1.44.25h3.56v1.33h-2.1a3,3,0,0,1,.83,2.1,3.49,3.49,0,0,1-3.73,3.54,3.67,3.67,0,0,1-1.52-.35,1.51,1.51,0,0,0-.66,1.21c0,.64.42,1.1,1.79,1.1h2c2.37,0,3.56.75,3.56,2.44,0,1.9-2,3.53-5.16,3.53C27.83,426,26.11,425,26.11,423.27Zm7.69-.53c0-.95-.71-1.27-2-1.27H30a5.83,5.83,0,0,1-1.33-.15,2.13,2.13,0,0,0-1,1.71c0,1.1,1.1,1.79,3,1.79S33.8,423.8,33.8,422.74Zm-1.31-8.25a2.17,2.17,0,1,0-4.33,0,2.18,2.18,0,1,0,4.33,0Z"/><path class="cls-5" d="M36.7,423.27a2.86,2.86,0,0,1,1.5-2.3v-.09a1.89,1.89,0,0,1-.92-1.67,2.47,2.47,0,0,1,1.13-1.9v-.08a3.53,3.53,0,0,1-1.32-2.74,3.62,3.62,0,0,1,3.83-3.63,4,4,0,0,1,1.44.25h3.56v1.33h-2.1a3,3,0,0,1,.83,2.1,3.49,3.49,0,0,1-3.73,3.54,3.67,3.67,0,0,1-1.52-.35,1.51,1.51,0,0,0-.66,1.21c0,.64.42,1.1,1.79,1.1h2c2.37,0,3.56.75,3.56,2.44,0,1.9-2,3.53-5.16,3.53C38.42,426,36.7,425,36.7,423.27Zm7.69-.53c0-.95-.71-1.27-2-1.27H40.58a5.83,5.83,0,0,1-1.33-.15,2.13,2.13,0,0,0-1,1.71c0,1.1,1.1,1.79,3,1.79S44.39,423.8,44.39,422.74Zm-1.31-8.25a2.17,2.17,0,1,0-4.33,0,2.18,2.18,0,1,0,4.33,0Z"/><path class="cls-5" d="M47.71,420.26a1.25,1.25,0,1,1,1.25,1.3A1.26,1.26,0,0,1,47.71,420.26Z"/><path class="cls-5" d="M53,407.89a1.2,1.2,0,0,1,2.39,0,1.2,1.2,0,0,1-2.39,0Zm.32,3.22H55v10.2H53.3Z"/><path class="cls-5" d="M57.71,416.22c0-3.4,2.23-5.36,4.73-5.36s4.73,2,4.73,5.36-2.23,5.34-4.73,5.34S57.71,419.6,57.71,416.22Zm7.68,0c0-2.34-1.19-3.93-3-3.93s-2.94,1.59-2.94,3.93,1.19,3.91,2.94,3.91S65.39,418.56,65.39,416.22Z"/></g><rect class="cls-6" x="435.5" y="189.5" width="65" height="400" rx="9.65" ry="9.65" transform="translate(857.5 -78.5) rotate(90)"/><text class="cls-7" transform="translate(558.13 411.52) scale(0.9 1)"><tspan class="cls-8">T</tspan><tspan class="cls-9" x="10.4" y="0">a</tspan><tspan x="22.46" y="0">sk Queue</tspan></text><text class="cls-10" transform="translate(66.5 328.07) scale(1.02 1)">E<tspan class="cls-11" x="11.25" y="0">v</tspan><tspan x="20.66" y="0">e</tspan><tspan class="cls-12" x="31.47" y="0">n</tspan><tspan x="41.2" y="0">t L</tspan><tspan class="cls-13" x="69.13" y="0">o</tspan><tspan class="cls-14" x="79.95" y="0">o</tspan><tspan x="90.61" y="0">p</tspan></text><rect class="cls-15" x="518.58" y="-18.42" width="40.12" height="258.72" rx="9.65" ry="9.65" transform="translate(427.7 649.58) rotate(-90)"/><rect class="cls-15" x="518.58" y="30.58" width="40.12" height="258.72" rx="9.65" ry="9.65" transform="translate(378.7 698.58) rotate(-90)"/><rect class="cls-15" x="518.58" y="79.58" width="40.12" height="258.72" rx="9.65" ry="9.65" transform="translate(329.7 747.58) rotate(-90)"/><text class="cls-16" transform="translate(516.5 117.02)">DOM</text><text class="cls-17" transform="translate(450 164.19)"><tspan class="cls-18">A</tspan><tspan x="11.89" y="0">jax(XMLH</tspan><tspan class="cls-19" x="91.43" y="0">t</tspan><tspan x="99.13" y="0">tpRequ</tspan><tspan class="cls-20" x="156.37" y="0">e</tspan><tspan class="cls-21" x="166.25" y="0">s</tspan><tspan class="cls-22" x="173.16" y="0">t</tspan><tspan x="180.69" y="0">)</tspan></text><text class="cls-16" transform="translate(496 214.02)">S<tspan class="cls-23" x="11.17" y="0">e</tspan><tspan class="cls-24" x="20.32" y="0">t</tspan><tspan class="cls-25" x="29.01" y="0">T</tspan><tspan x="39.26" y="0">i</tspan><tspan class="cls-26" x="44" y="0">m</tspan><tspan x="58.47" y="0">e</tspan><tspan class="cls-27" x="68.46" y="0">o</tspan><tspan class="cls-28" x="78.31" y="0">u</tspan><tspan x="87.19" y="0">t</tspan></text><text class="cls-29" transform="translate(489.5 78.35)"><tspan class="cls-30">W</tspan><tspan class="cls-31" x="21.2" y="0">e</tspan><tspan x="33.32" y="0">b</tspan><tspan class="cls-32" x="46.18" y="0"> </tspan><tspan class="cls-33" x="53.4" y="0">A</tspan><tspan x="68.9" y="0">PI</tspan></text><polyline points="192 292 197 296 199 283"/><polygon class="cls-1" points="198.59 285.64 200 278 204 284 199.63 286.05 198.59 285.64"/><polyline class="cls-1" points="196.42 283.21 200 282 199.59 280.26"/><polygon class="cls-1" points="198.21 287.01 199 286 199 286 198.21 287.01"/><polyline class="cls-1" points="200 286 199 286 199 287 199 286 199 286 199 286 199 286 198.46 286.8 198.41 286.87 213 284 210 291 199 285 199 287 199 286 199 286 198.53 286.05 199 286 199 286"/><rect class="cls-34" x="46" y="15" width="263" height="237" rx="9.65" ry="9.65"/><text class="cls-35" transform="translate(51.48 40.69) scale(0.92 1)">C<tspan class="cls-36" x="15.26" y="0">a</tspan><tspan class="cls-37" x="28.99" y="0">l</tspan><tspan x="36.4" y="0">l S</tspan><tspan class="cls-38" x="69.44" y="0">t</tspan><tspan class="cls-39" x="79.26" y="0">a</tspan><tspan class="cls-40" x="92.39" y="0">c</tspan><tspan x="104.78" y="0">k</tspan></text><polygon class="cls-41" points="635.83 218.09 638.89 223.37 394.94 348.31 391.88 343.03 635.83 218.09"/><polygon class="cls-41" points="398.47 326.39 412.15 350.03 354.02 365.18 398.47 326.39"/><rect class="cls-42" x="288.08" y="353.08" width="51.12" height="72.72" rx="9.65" ry="9.65" transform="translate(-75.8 703.08) rotate(-90)"/><text class="cls-43" transform="translate(283.09 395.24) scale(0.92 1)">C<tspan class="cls-44" x="10.56" y="0">a</tspan><tspan class="cls-45" x="20.07" y="0">l</tspan><tspan x="25.2" y="0">l</tspan><tspan class="cls-46" x="30.61" y="0">b</tspan><tspan class="cls-47" x="40.26" y="0">a</tspan><tspan class="cls-48" x="49.35" y="0">c</tspan><tspan x="57.92" y="0">k</tspan></text></g></g></svg>