<svg xmlns="http://www.w3.org/2000/svg" viewBox="0 0 775.84 312.31"><defs><style>.cls-1{opacity:0.5;}.cls-2{fill:#666;}.cls-3{fill:#00aa94;opacity:0.8;}.cls-4{fill:none;stroke:#000;stroke-miterlimit:10;stroke-width:3px;}.cls-5{fill:#999;}</style></defs><title>자산 4</title><g id="레이어_2" data-name="레이어 2"><g id="레이어_1-2" data-name="레이어 1"><g class="cls-1"><path class="cls-2" d="M688.73,294.19a1.19,1.19,0,0,1,2.38,0,1.19,1.19,0,0,1-2.38,0Zm.31,3.22h1.73v10.2H689Z"/><path class="cls-2" d="M694.22,297.41h1.42l.15,1.47h.06a4.85,4.85,0,0,1,3.42-1.72c2.15,0,3.12,1.38,3.12,4v6.46h-1.73v-6.24c0-1.9-.58-2.71-1.93-2.71-1,0-1.76.53-2.79,1.56v7.39h-1.72Z"/><path class="cls-2" d="M704.92,309.58a2.86,2.86,0,0,1,1.5-2.31v-.09a1.89,1.89,0,0,1-.92-1.67,2.43,2.43,0,0,1,1.13-1.89v-.09a3.53,3.53,0,0,1-1.32-2.74,3.62,3.62,0,0,1,3.83-3.63,4.23,4.23,0,0,1,1.44.25h3.56v1.33H712a3,3,0,0,1,.83,2.1,3.49,3.49,0,0,1-3.73,3.54,3.6,3.6,0,0,1-1.53-.35,1.5,1.5,0,0,0-.65,1.21c0,.64.42,1.1,1.79,1.1h2c2.37,0,3.56.75,3.56,2.44,0,1.9-2,3.53-5.16,3.53C706.64,312.31,704.92,311.33,704.92,309.58Zm7.69-.54c0-.94-.71-1.27-2.05-1.27h-1.77a5.81,5.81,0,0,1-1.32-.15,2.13,2.13,0,0,0-1,1.71c0,1.1,1.1,1.79,3,1.79S712.61,310.11,712.61,309Zm-1.31-8.25a2.17,2.17,0,1,0-4.33,0,2.18,2.18,0,1,0,4.33,0Z"/><path class="cls-2" d="M715.51,309.58a2.86,2.86,0,0,1,1.5-2.31v-.09a1.89,1.89,0,0,1-.92-1.67,2.43,2.43,0,0,1,1.13-1.89v-.09a3.53,3.53,0,0,1-1.32-2.74,3.62,3.62,0,0,1,3.83-3.63,4.23,4.23,0,0,1,1.44.25h3.56v1.33h-2.1a3,3,0,0,1,.83,2.1,3.49,3.49,0,0,1-3.73,3.54,3.6,3.6,0,0,1-1.53-.35,1.5,1.5,0,0,0-.65,1.21c0,.64.42,1.1,1.79,1.1h2c2.37,0,3.56.75,3.56,2.44,0,1.9-2,3.53-5.16,3.53C717.23,312.31,715.51,311.33,715.51,309.58Zm7.69-.54c0-.94-.71-1.27-2.05-1.27h-1.77a5.81,5.81,0,0,1-1.32-.15,2.13,2.13,0,0,0-1,1.71c0,1.1,1.1,1.79,3,1.79S723.2,310.11,723.2,309Zm-1.31-8.25a2.17,2.17,0,1,0-4.33,0,2.18,2.18,0,1,0,4.33,0Z"/><path class="cls-2" d="M726.52,306.56a1.25,1.25,0,1,1,2.5,0,1.25,1.25,0,1,1-2.5,0Z"/><path class="cls-2" d="M731.79,294.19a1.2,1.2,0,0,1,2.39,0,1.2,1.2,0,0,1-2.39,0Zm.32,3.22h1.72v10.2h-1.72Z"/><path class="cls-2" d="M736.52,302.52c0-3.4,2.23-5.36,4.73-5.36s4.73,2,4.73,5.36-2.23,5.35-4.73,5.35S736.52,305.9,736.52,302.52Zm7.68,0c0-2.33-1.19-3.93-3-3.93s-2.94,1.6-2.94,3.93,1.18,3.91,2.94,3.91S744.2,304.86,744.2,302.52Z"/></g><rect class="cls-3" x="101.81" y="60.3" width="35" height="163" rx="9.65" ry="9.65" transform="translate(-22.49 261.11) rotate(-90)"/><rect class="cls-3" x="101.81" y="100.3" width="35" height="163" rx="9.65" ry="9.65" transform="translate(-62.49 301.11) rotate(-90)"/><rect class="cls-3" x="101.81" y="140.3" width="35" height="163" rx="9.65" ry="9.65" transform="translate(-102.49 341.11) rotate(-90)"/><rect class="cls-3" x="427.81" y="164.3" width="52" height="60" rx="9.65" ry="9.65" transform="translate(259.51 648.11) rotate(-90)"/><rect class="cls-3" x="101.81" y="180.3" width="35" height="163" rx="9.65" ry="9.65" transform="translate(-142.49 381.11) rotate(-90)"/><polygon points="81.88 100.61 98.81 100.2 90.5 108.87 81.88 100.61"/><rect class="cls-3" x="561.81" y="164.3" width="52" height="60" rx="9.65" ry="9.65" transform="translate(393.51 782.11) rotate(-90)"/><rect class="cls-3" x="494.81" y="164.3" width="52" height="60" rx="9.65" ry="9.65" transform="translate(326.51 715.11) rotate(-90)"/><rect class="cls-3" x="627.81" y="164.3" width="52" height="60" rx="9.65" ry="9.65" transform="translate(459.51 848.11) rotate(-90)"/><path class="cls-4" d="M.09,34.66C47.33,31.81,87.53,62.37,90,103"/><path class="cls-4" d="M165.7,100.57C179,55.15,221.33,27.64,260.37,39.06"/><polygon points="254.68 46.04 262.01 30.78 265.95 42.12 254.68 46.04"/><polygon points="394.91 198.68 395.87 181.78 403.84 190.75 394.91 198.68"/><path class="cls-4" d="M340.81,261.3c.82-39.6,26.36-71.13,57.1-70.5"/><polygon points="764.82 117.52 747.95 118.94 755.72 109.79 764.82 117.52"/><path class="cls-4" d="M700.61,189.28c39.26-11,64.2-44.46,55.75-74.86"/><rect class="cls-5" x="391.81" y="143.3" width="318" height="13"/><rect class="cls-5" x="391.81" y="233.3" width="318" height="13"/><path d="M21.66,10.9a130.25,130.25,0,0,0,.63,19.15c.15,1.42,2.41,1.44,2.25,0a130.25,130.25,0,0,1-.63-19.15c.05-1.44-2.2-1.44-2.25,0Z"/><path d="M22.82,12c2.51-.21,5.65-.09,5.88,3.11S25.59,19.69,23,19a1.13,1.13,0,0,0-.6,2.17c3.77,1,8.35-1.17,8.56-5.44A5.85,5.85,0,0,0,29,11C27.28,9.52,25,9.58,22.82,9.76c-1.44.12-1.45,2.37,0,2.25Z"/><path d="M31.71,10.45c-.2,3.18-.06,10.54,4.83,10S41.6,13,41.48,9.5a1.13,1.13,0,0,0-2.25,0c0,3-.9,7.7,2.24,9.49a1.13,1.13,0,0,0,1.14-1.94c-1.9-1.08-1.12-5.69-1.13-7.55H39.23c.08,2.33.21,7.24-2.27,8.52-3.22,1.65-3.09-6.1-3-7.57s-2.16-1.44-2.25,0Z"/><path d="M51.57,9.23C50,8.51,48.2,7.45,46.43,8.17a2.74,2.74,0,0,0-1.6,3.37c.45,1.55,1.83,2.33,3.25,2.85,1.14.43,3.75,1.17,2.29,2.73a2.62,2.62,0,0,1-4-.58c-.7-1.27-2.64-.13-1.95,1.14,1.52,2.78,7.62,3.6,8.58-.05a3.89,3.89,0,0,0-1.55-4.2,13,13,0,0,0-2.78-1.21l-.83-.37c-1-.44-1-.83-.15-1.15.9-.8,1.81.05,2.74.48,1.31.6,2.45-1.34,1.14-1.95Z"/><path d="M53.82,1.07Q54.93,10,55.67,18.9c.12,1.44,2.37,1.45,2.25,0Q57.17,10,56.07,1.07c-.17-1.42-2.42-1.44-2.25,0Z"/><path d="M57.16,11.72c.33-.73.91-2.2,1.83-2.34,1.53-.23,2,2,2.24,3,.42,1.82.67,3.67.92,5.52.2,1.43,2.37.82,2.17-.6-.4-2.89-.42-7.53-3-9.47s-5,.39-6.09,2.76c-.59,1.31,1.35,2.45,1.94,1.13Z"/><path d="M223.66,12.9a130.25,130.25,0,0,0,.63,19.15c.15,1.42,2.41,1.44,2.25,0a130.25,130.25,0,0,1-.63-19.15c.05-1.44-2.2-1.44-2.25,0Z"/><path d="M224.82,14c2.51-.21,5.65-.09,5.88,3.11S227.59,21.69,225,21a1.13,1.13,0,0,0-.6,2.17c3.77,1,8.35-1.17,8.56-5.44a5.85,5.85,0,0,0-2-4.7c-1.72-1.49-4.05-1.43-6.18-1.25-1.44.12-1.45,2.37,0,2.25Z"/><path d="M246.66,11.9a130.25,130.25,0,0,0,.63,19.15c.15,1.42,2.41,1.44,2.25,0a130.25,130.25,0,0,1-.63-19.15c.05-1.44-2.2-1.44-2.25,0Z"/><path d="M247.82,13c2.51-.21,5.65-.09,5.88,3.11S250.59,20.69,248,20a1.13,1.13,0,0,0-.6,2.17c3.77,1,8.35-1.17,8.56-5.44a5.85,5.85,0,0,0-2-4.7c-1.72-1.49-4.05-1.43-6.18-1.25-1.44.12-1.45,2.37,0,2.25Z"/><path d="M237.92,11.63c-2.52.61-3.67,3.29-3.29,5.71.45,2.85,2.87,3.89,5.53,3.51s4.14-2.53,4.15-5.16a4.12,4.12,0,0,0-1.53-3.35c-1.16-.87-2.75-.87-4.14-1.05s-1.42,2.07,0,2.25c1.62.21,3.55.23,3.42,2.38a2.64,2.64,0,0,1-2.33,2.74c-1.32.17-2.54-.08-2.86-1.5s.2-3,1.65-3.36a1.13,1.13,0,0,0-.6-2.17Z"/><path d="M322.11,183a51.48,51.48,0,0,0,6.8-.51,2.73,2.73,0,0,0,2.42-3c-.47-3.94-6-4.1-8.77-3-1.73.68-1.95,2-2.11,3.66a9.88,9.88,0,0,0,.87,5.82c2.3,4.05,6.68,3.07,9.88.74,1.54-1.13,0-3.73-1.52-2.59s-3.85,2.74-5.42.87c-.86-1-1.67-4.81-.38-5.8a4.29,4.29,0,0,1,2.35-.34,5.1,5.1,0,0,1,1.62.5c.37.15.76,0,.45.17a10.12,10.12,0,0,1-2.88.22l-3.31.23c-1.92.13-1.93,3.14,0,3Z"/><path d="M331.62,176.6c.23,3.31.63,6.6,1.18,9.87.29,1.73,2.88,1.22,2.95-.4.09-2.28-.58-7.28,1.77-8.62,1.46-.83,1.75,2.3,2,3.29a27.32,27.32,0,0,1,.48,4.86c0,1.93,3,1.94,3,0a28.46,28.46,0,0,0-1.37-8.58c-.65-1.94-1.8-3.12-4-2.74-5.27.91-4.69,7.88-4.84,11.79l2.94-.4c-.51-3-.86-6-1.07-9.07-.13-1.91-3.13-1.93-3,0Z"/><path d="M351.5,174.07a6.06,6.06,0,0,0-7.73,6.36,5.65,5.65,0,0,0,2.84,4.48c2.05,1,4.19-.08,5.84-1.3s0-3.74-1.51-2.59c-.68.5-1.73,1.43-2.65,1.29s-1.51-1.44-1.56-2.33a3,3,0,0,1,4-3,1.5,1.5,0,0,0,.8-2.89Z"/><path d="M350.23,174.71c.94,5.24.92,10.58,1.83,15.83.33,1.9,3.23,1.09,2.9-.8-.92-5.24-.89-10.59-1.83-15.83-.34-1.89-3.24-1.09-2.9.8Z"/><path d="M354.71,173.45c-.2,3.18-.06,10.54,4.83,10,4.74-.51,5.06-7.42,4.94-11a1.13,1.13,0,0,0-2.25,0c0,3-.9,7.7,2.24,9.49a1.13,1.13,0,0,0,1.14-1.94c-1.9-1.08-1.12-5.69-1.13-7.55h-2.25c.08,2.33.21,7.24-2.27,8.52-3.22,1.65-3.09-6.1-3-7.57s-2.16-1.44-2.25,0Z"/><path d="M367.11,177a51.48,51.48,0,0,0,6.8-.51,2.73,2.73,0,0,0,2.42-3c-.47-3.94-6-4.1-8.77-3-1.73.68-1.95,2-2.11,3.66a9.88,9.88,0,0,0,.87,5.82c2.3,4.05,6.68,3.07,9.88.74,1.54-1.13,0-3.73-1.52-2.59s-3.85,2.74-5.42.87c-.86-1-1.67-4.81-.38-5.8a4.29,4.29,0,0,1,2.35-.34,5.1,5.1,0,0,1,1.62.5c.37.15.76,0,.45.17a10.12,10.12,0,0,1-2.88.22l-3.31.23c-1.92.13-1.93,3.14,0,3Z"/><path d="M376.71,170.45c-.2,3.18-.06,10.54,4.83,10,4.74-.51,5.06-7.42,4.94-11a1.13,1.13,0,0,0-2.25,0c0,3-.9,7.7,2.24,9.49a1.13,1.13,0,0,0,1.14-1.94c-1.9-1.08-1.12-5.69-1.13-7.55h-2.25c.08,2.33.21,7.24-2.27,8.52-3.22,1.65-3.09-6.1-3-7.57s-2.16-1.44-2.25,0Z"/><path d="M390.11,174a51.48,51.48,0,0,0,6.8-.51,2.73,2.73,0,0,0,2.42-3c-.47-3.94-6-4.1-8.77-3-1.73.68-1.95,2-2.11,3.66a9.88,9.88,0,0,0,.87,5.82c2.3,4.05,6.68,3.07,9.88.74,1.54-1.13,0-3.73-1.52-2.59s-3.85,2.74-5.42.87c-.86-1-1.67-4.81-.38-5.8a4.29,4.29,0,0,1,2.35-.34,5.1,5.1,0,0,1,1.62.5c.37.15.76,0,.45.17a10.12,10.12,0,0,1-2.88.22l-3.31.23c-1.92.13-1.93,3.14,0,3Z"/><path d="M727.5,95.07a6.06,6.06,0,0,0-7.73,6.36,5.65,5.65,0,0,0,2.84,4.48c2,1,4.19-.08,5.84-1.3s0-3.74-1.51-2.59c-.68.5-1.73,1.43-2.65,1.29s-1.51-1.44-1.56-2.33a3,3,0,0,1,4-3,1.5,1.5,0,0,0,.8-2.89Z"/><path d="M726.23,95.71c.94,5.24.92,10.58,1.83,15.83.33,1.9,3.23,1.09,2.9-.8-.92-5.24-.89-10.59-1.83-15.83-.34-1.89-3.24-1.09-2.9.8Z"/><path d="M730.71,94.45c-.2,3.18-.06,10.54,4.83,10s5.06-7.42,4.94-11a1.13,1.13,0,0,0-2.25,0c0,3-.9,7.7,2.24,9.49a1.13,1.13,0,0,0,1.14-1.94c-1.9-1.08-1.12-5.69-1.13-7.55h-2.25c.08,2.33.21,7.24-2.27,8.52-3.22,1.65-3.09-6.1-3-7.57s-2.16-1.44-2.25,0Z"/><path d="M743.11,98a51.48,51.48,0,0,0,6.8-.51,2.73,2.73,0,0,0,2.42-3c-.47-3.94-6-4.1-8.77-3-1.73.68-1.95,2-2.11,3.66a9.88,9.88,0,0,0,.87,5.82c2.3,4,6.68,3.07,9.88.74,1.54-1.13,0-3.73-1.52-2.59s-3.85,2.74-5.42.87c-.86-1-1.67-4.81-.38-5.8a4.29,4.29,0,0,1,2.35-.34,5.1,5.1,0,0,1,1.62.5c.37.15.76,0,.45.17a10.12,10.12,0,0,1-2.88.22l-3.31.23c-1.92.13-1.93,3.14,0,3Z"/><path d="M752.71,91.45c-.2,3.18-.06,10.54,4.83,10s5.06-7.42,4.94-11a1.13,1.13,0,0,0-2.25,0c0,3-.9,7.7,2.24,9.49a1.13,1.13,0,0,0,1.14-1.94c-1.9-1.08-1.12-5.69-1.13-7.55h-2.25c.08,2.33.21,7.24-2.27,8.52-3.22,1.65-3.09-6.1-3-7.57s-2.16-1.44-2.25,0Z"/><path d="M766.11,95a51.48,51.48,0,0,0,6.8-.51,2.73,2.73,0,0,0,2.42-3c-.47-3.94-6-4.1-8.77-3-1.73.68-1.95,2-2.11,3.66a9.88,9.88,0,0,0,.87,5.82c2.3,4,6.68,3.07,9.88.74,1.54-1.13,0-3.73-1.52-2.59s-3.85,2.74-5.42.87c-.86-1-1.67-4.81-.38-5.8a4.29,4.29,0,0,1,2.35-.34,5.1,5.1,0,0,1,1.62.5c.37.15.76,0,.45.17a10.12,10.12,0,0,1-2.88.22l-3.31.23c-1.92.13-1.93,3.14,0,3Z"/><path d="M701,90.4l2.35,17.8c.25,1.89,3.25,1.91,3,0L704,90.4c-.24-1.88-3.25-1.91-3,0Z"/><path d="M701.77,98.64a5.45,5.45,0,0,0-5.16,6.23,5.22,5.22,0,0,0,2,3.62c1.44.94,3.65.94,5.3.94a1.5,1.5,0,0,0,0-3c-1.48,0-3.7.23-4.25-1.48a2.47,2.47,0,0,1,2.1-3.31c1.91-.13,1.93-3.13,0-3Z"/><path d="M709.11,103a51.48,51.48,0,0,0,6.8-.51,2.73,2.73,0,0,0,2.42-3c-.47-3.94-6-4.1-8.77-3-1.73.68-1.95,2-2.11,3.66a9.88,9.88,0,0,0,.87,5.82c2.3,4,6.68,3.07,9.88.74,1.54-1.13,0-3.73-1.52-2.59s-3.85,2.74-5.42.87c-.86-1-1.67-4.81-.38-5.8a4.29,4.29,0,0,1,2.35-.34,5.1,5.1,0,0,1,1.62.5c.37.15.76,0,.45.17a10.12,10.12,0,0,1-2.88.22l-3.31.23c-1.92.13-1.93,3.14,0,3Z"/><polygon class="cls-5" points="15.97 66.3 15.97 297.3 222.3 297.3 222.3 66.3 211.63 66.3 211.31 287.8 26.31 287.8 26.49 66.3 15.97 66.3"/></g></g></svg>