<svg xmlns="http://www.w3.org/2000/svg" viewBox="0 0 688.36 132.97"><defs><style>.cls-1{fill:#00aa94;}.cls-1,.cls-2{opacity:0.8;}.cls-2{fill:#c9feff;}.cls-3{font-size:18px;}.cls-3,.cls-6,.cls-7{stroke:#000;stroke-miterlimit:10;}.cls-3,.cls-6{font-family:MyriadPro-Regular, Myriad Pro;}.cls-4{letter-spacing:-0.01em;}.cls-5{letter-spacing:0em;}.cls-6{font-size:22px;}.cls-7{stroke-width:3px;}.cls-8{opacity:0.5;}.cls-9{fill:#666;}.cls-10{fill:#4d4d4d;}</style></defs><title>자산 7</title><g id="레이어_2" data-name="레이어 2"><g id="레이어_1-2" data-name="레이어 1"><rect class="cls-1" x="230.05" y="-2.5" width="35" height="40" rx="4.92" ry="4.92" transform="translate(228.86 265.05) rotate(-90)"/><rect class="cls-1" x="189.05" y="-2.5" width="35" height="40" rx="4.92" ry="4.92" transform="translate(187.86 224.05) rotate(-90)"/><rect class="cls-1" x="312.05" y="-2.5" width="35" height="40" rx="4.92" ry="4.92" transform="translate(310.86 347.05) rotate(-90)"/><rect class="cls-1" x="271.05" y="-2.5" width="35" height="40" rx="4.92" ry="4.92" transform="translate(269.86 306.05) rotate(-90)"/><rect class="cls-1" x="394.05" y="-2.5" width="35" height="40" rx="4.92" ry="4.92" transform="translate(392.86 429.05) rotate(-90)"/><rect class="cls-1" x="353.05" y="-2.5" width="35" height="40" rx="4.92" ry="4.92" transform="translate(351.86 388.05) rotate(-90)"/><rect class="cls-1" x="476.05" y="-2.5" width="35" height="40" rx="4.92" ry="4.92" transform="translate(474.86 511.05) rotate(-90)"/><rect class="cls-2" x="517.05" y="-2.5" width="35" height="40" rx="4.92" ry="4.92" transform="translate(515.86 552.05) rotate(-90)"/><rect class="cls-2" x="148.05" y="-2.5" width="35" height="40" rx="4.92" ry="4.92" transform="translate(146.86 183.05) rotate(-90)"/><rect class="cls-1" x="435.05" y="-2.5" width="35" height="40" rx="4.92" ry="4.92" transform="translate(433.86 470.05) rotate(-90)"/><text class="cls-3" transform="translate(141.45 120.07)">f<tspan class="cls-4" x="5.26" y="0">r</tspan><tspan x="10.96" y="0">o</tspan><tspan class="cls-5" x="20.84" y="0">n</tspan><tspan x="30.76" y="0">t</tspan></text><text class="cls-6" transform="translate(11.36 24.41)">dequeue</text><text class="cls-6" transform="translate(600.36 25.41)">enqueue</text><line class="cls-7" x1="115.43" y1="17.62" x2="135.93" y2="17.62"/><polygon points="115.88 7 115.92 28.74 107.43 17.84 115.88 7"/><line class="cls-7" x1="569.43" y1="17.62" x2="589.93" y2="17.62"/><polygon points="569.88 7 569.92 28.74 561.43 17.84 569.88 7"/><g class="cls-8"><path class="cls-9" d="M1.19,118.3a.89.89,0,0,1,1-.9.9.9,0,0,1,1,.9.91.91,0,0,1-1,.9A.91.91,0,0,1,1.19,118.3Zm.25,2.6h1.4v8.27H1.44Z" transform="translate(-1.19)"/><path class="cls-9" d="M5.63,120.9H6.78l.12,1.19H7a4,4,0,0,1,2.77-1.39c1.74,0,2.52,1.12,2.52,3.23v5.24h-1.4v-5.06c0-1.54-.46-2.2-1.55-2.2A3.12,3.12,0,0,0,7,123.18v6H5.63Z" transform="translate(-1.19)"/><path class="cls-9" d="M14.29,130.75a2.34,2.34,0,0,1,1.22-1.87v-.06a1.55,1.55,0,0,1-.74-1.36,2,2,0,0,1,.91-1.53v-.07a2.86,2.86,0,0,1-1.07-2.22,2.93,2.93,0,0,1,3.1-2.94,3.45,3.45,0,0,1,1.16.2h2.89V122h-1.7a2.38,2.38,0,0,1,.67,1.7,2.82,2.82,0,0,1-3,2.86,2.8,2.8,0,0,1-1.23-.28,1.22,1.22,0,0,0-.53,1c0,.52.34.9,1.45.9H19c1.93,0,2.89.6,2.89,2,0,1.54-1.62,2.86-4.18,2.86C15.69,133,14.29,132.18,14.29,130.75Zm6.23-.43c0-.76-.58-1-1.66-1H17.43a4.62,4.62,0,0,1-1.07-.12,1.73,1.73,0,0,0-.85,1.39c0,.88.9,1.44,2.4,1.44S20.52,131.18,20.52,130.32Zm-1.06-6.68a1.76,1.76,0,1,0-3.51,0,1.77,1.77,0,1,0,3.51,0Z" transform="translate(-1.19)"/><path class="cls-9" d="M22.87,130.75a2.33,2.33,0,0,1,1.21-1.87v-.06a1.55,1.55,0,0,1-.74-1.36,2,2,0,0,1,.91-1.53v-.07a2.86,2.86,0,0,1-1.07-2.22,2.93,2.93,0,0,1,3.1-2.94,3.51,3.51,0,0,1,1.17.2h2.88V122h-1.7a2.38,2.38,0,0,1,.67,1.7,3,3,0,0,1-4.25,2.58,1.22,1.22,0,0,0-.53,1c0,.52.34.9,1.45.9h1.61c1.92,0,2.88.6,2.88,2,0,1.54-1.62,2.86-4.17,2.86C24.26,133,22.87,132.18,22.87,130.75Zm6.22-.43c0-.76-.58-1-1.66-1H26a4.67,4.67,0,0,1-1.07-.12,1.72,1.72,0,0,0-.84,1.39c0,.88.89,1.44,2.39,1.44S29.09,131.18,29.09,130.32ZM28,123.64a1.77,1.77,0,1,0-3.52,0,1.77,1.77,0,1,0,3.52,0Z" transform="translate(-1.19)"/><path class="cls-9" d="M31.78,128.31a1,1,0,1,1,1,1.06A1,1,0,0,1,31.78,128.31Z" transform="translate(-1.19)"/><path class="cls-9" d="M36.05,118.3a1,1,0,0,1,1.93,0,1,1,0,0,1-1.93,0Zm.25,2.6h1.4v8.27H36.3Z" transform="translate(-1.19)"/><path class="cls-9" d="M39.88,125c0-2.75,1.8-4.34,3.82-4.34s3.83,1.59,3.83,4.34-1.8,4.33-3.83,4.33S39.88,127.78,39.88,125Zm6.21,0c0-1.89-1-3.18-2.39-3.18s-2.38,1.29-2.38,3.18,1,3.17,2.38,3.17S46.09,126.94,46.09,125Z" transform="translate(-1.19)"/></g><polygon class="cls-10" points="163.12 103.07 161.94 102.72 163.35 50.5 164.53 50.86 163.12 103.07"/><polygon class="cls-10" points="166.75 54.22 161.47 52.63 164.29 42.34 166.75 54.22"/><text class="cls-3" transform="translate(516.45 120.07)"><tspan class="cls-4">r</tspan><tspan x="5.71" y="0">ear</tspan></text><polygon class="cls-10" points="531.12 102.07 529.94 101.72 531.36 49.5 532.53 49.86 531.12 102.07"/><polygon class="cls-10" points="534.75 53.22 529.47 51.63 532.29 41.34 534.75 53.22"/></g></g></svg>