<svg xmlns="http://www.w3.org/2000/svg" viewBox="0 0 664 264.77"><defs><style>.cls-1,.cls-9{fill:#00aa94;}.cls-1,.cls-10{opacity:0.8;}.cls-2{opacity:0.5;}.cls-3{fill:#666;}.cls-4{font-size:15.32px;font-family:MyriadPro-Regular, Myriad Pro;}.cls-13,.cls-4{stroke:#000;stroke-miterlimit:10;}.cls-5{letter-spacing:0em;}.cls-6{letter-spacing:-0.03em;}.cls-7{letter-spacing:-0.01em;}.cls-8{letter-spacing:0em;}.cls-10,.cls-11{fill:#008194;}.cls-12{letter-spacing:-0.01em;}.cls-13{stroke-width:3px;}.cls-14{fill:#ff1f39;}.cls-15{opacity:0.3;}.cls-16{fill:#4d4d4d;}</style></defs><title>자산 12</title><g id="레이어_2" data-name="레이어 2"><g id="레이어_1-2" data-name="레이어 1"><rect class="cls-1" x="301.55" y="135.61" width="6" height="6" rx="3" ry="3" transform="translate(164.8 443.16) rotate(-90)"/><rect class="cls-1" x="311.55" y="135.61" width="6" height="6" rx="3" ry="3" transform="translate(174.8 453.16) rotate(-90)"/><rect class="cls-1" x="321.55" y="135.61" width="6" height="6" rx="3" ry="3" transform="translate(184.8 463.16) rotate(-90)"/><g class="cls-2"><path class="cls-3" d="M1.14,210.4a.82.82,0,0,1,.92-.77.83.83,0,0,1,.93.77.84.84,0,0,1-.93.77A.83.83,0,0,1,1.14,210.4Zm.24,2.21H2.72v7H1.38Z" transform="translate(-1.14)"/><path class="cls-3" d="M5.4,212.61H6.5l.12,1h0a4,4,0,0,1,2.66-1.19c1.67,0,2.42,1,2.42,2.75v4.45H10.4v-4.3c0-1.31-.45-1.87-1.5-1.87a3.12,3.12,0,0,0-2.16,1.08v5.09H5.4Z" transform="translate(-1.14)"/><path class="cls-3" d="M13.71,221a2,2,0,0,1,1.16-1.59v-.05a1.28,1.28,0,0,1-.71-1.16,1.67,1.67,0,0,1,.87-1.3v-.06a2.37,2.37,0,0,1-1-1.89c0-1.53,1.37-2.5,3-2.5a3.88,3.88,0,0,1,1.12.17h2.76v.92H19.23a1.91,1.91,0,0,1,.65,1.45c0,1.5-1.28,2.43-2.9,2.43a3.14,3.14,0,0,1-1.18-.23,1,1,0,0,0-.51.83c0,.44.33.76,1.39.76h1.54c1.84,0,2.77.51,2.77,1.68s-1.56,2.43-4,2.43C15,222.88,13.71,222.21,13.71,221Zm6-.36c0-.65-.56-.88-1.6-.88H16.71a5.59,5.59,0,0,1-1-.1,1.43,1.43,0,0,0-.8,1.18c0,.75.85,1.23,2.29,1.23S19.68,221.36,19.68,220.63Zm-1-5.69A1.59,1.59,0,0,0,17,213.3a1.59,1.59,0,0,0-1.69,1.64,1.69,1.69,0,0,0,3.37,0Z" transform="translate(-1.14)"/><path class="cls-3" d="M21.93,221a2,2,0,0,1,1.16-1.59v-.05a1.28,1.28,0,0,1-.71-1.16,1.67,1.67,0,0,1,.87-1.3v-.06a2.37,2.37,0,0,1-1-1.89c0-1.53,1.37-2.5,3-2.5a3.75,3.75,0,0,1,1.11.17h2.77v.92H27.45A1.91,1.91,0,0,1,28.1,215c0,1.5-1.28,2.43-2.9,2.43a3.14,3.14,0,0,1-1.18-.23,1,1,0,0,0-.51.83c0,.44.33.76,1.39.76h1.54c1.84,0,2.77.51,2.77,1.68s-1.56,2.43-4,2.43C23.26,222.88,21.93,222.21,21.93,221Zm6-.36c0-.65-.56-.88-1.6-.88H24.93a5.51,5.51,0,0,1-1-.1,1.45,1.45,0,0,0-.81,1.18c0,.75.86,1.23,2.3,1.23S27.9,221.36,27.9,220.63Zm-1-5.69a1.69,1.69,0,0,0-3.37,0,1.69,1.69,0,0,0,3.37,0Z" transform="translate(-1.14)"/><path class="cls-3" d="M30.47,218.92a1,1,0,1,1,1,.9A.92.92,0,0,1,30.47,218.92Z" transform="translate(-1.14)"/><path class="cls-3" d="M34.56,210.4a.83.83,0,0,1,.93-.77.82.82,0,0,1,.92.77.83.83,0,0,1-.92.77A.84.84,0,0,1,34.56,210.4Zm.25,2.21h1.34v7H34.81Z" transform="translate(-1.14)"/><path class="cls-3" d="M38.23,216.14a3.67,3.67,0,1,1,3.67,3.68A3.55,3.55,0,0,1,38.23,216.14Zm6,0c0-1.61-.92-2.71-2.29-2.71s-2.28,1.1-2.28,2.71.92,2.69,2.28,2.69S44.19,217.75,44.19,216.14Z" transform="translate(-1.14)"/></g><text class="cls-4" transform="translate(66.55 13.32) scale(1.13 1)"><tspan class="cls-5">R</tspan><tspan x="8.3" y="0">ear</tspan></text><text class="cls-4" transform="translate(593.79 106.44) scale(1.13 1)"><tspan class="cls-6">F</tspan><tspan class="cls-7" x="7.06" y="0">r</tspan><tspan x="11.92" y="0">o</tspan><tspan class="cls-8" x="20.33" y="0">n</tspan><tspan x="28.77" y="0">t</tspan></text><rect class="cls-1" x="420.91" y="107.41" width="31.49" height="69.99" rx="2.26" ry="2.26" transform="translate(293.11 579.05) rotate(-90)"/><path class="cls-9" d="M480.28,115.77l-8.21,9.5a1.76,1.76,0,0,1-1.31.54h-34.1c-1.28,0-2-1.13-1.26-1.93l9.07-9.5a1.73,1.73,0,0,1,1.26-.49H479C480.23,113.89,481,115,480.28,115.77Z" transform="translate(-1.14)"/><path class="cls-9" d="M447.41,115.77l-8.22,9.5a1.75,1.75,0,0,1-1.3.54h-34.1c-1.29,0-2-1.13-1.27-1.93l9.07-9.5a1.78,1.78,0,0,1,1.27-.49H446.1C447.35,113.89,448.1,115,447.41,115.77Z" transform="translate(-1.14)"/><rect class="cls-10" x="366.56" y="123.71" width="31.49" height="37.39" rx="2.26" ry="2.26" transform="translate(238.76 524.71) rotate(-90)"/><path class="cls-11" d="M408.36,115.77l-8.14,9.5a1.73,1.73,0,0,1-1.29.54H365.12c-1.27,0-2-1.13-1.25-1.93l9-9.5a1.73,1.73,0,0,1,1.25-.49h33C408.31,113.89,409.05,115,408.36,115.77Z" transform="translate(-1.14)"/><path class="cls-9" d="M474.06,157.38l7.65-7.29a1.62,1.62,0,0,0,.43-1.16V118.69c0-1.14-.91-1.8-1.55-1.12l-7.64,8a1.64,1.64,0,0,0-.4,1.12v29.49C472.55,157.33,473.42,158,474.06,157.38Z" transform="translate(-1.14)"/><rect class="cls-1" x="603.91" y="107.41" width="31.49" height="69.99" rx="2.26" ry="2.26" transform="translate(476.11 762.05) rotate(-90)"/><path class="cls-9" d="M663.28,115.77l-8.21,9.5a1.76,1.76,0,0,1-1.31.54h-34.1c-1.28,0-2-1.13-1.26-1.93l9.07-9.5a1.73,1.73,0,0,1,1.26-.49H662C663.23,113.89,664,115,663.28,115.77Z" transform="translate(-1.14)"/><path class="cls-9" d="M630.41,115.77l-8.22,9.5a1.75,1.75,0,0,1-1.3.54h-34.1c-1.29,0-2-1.13-1.27-1.93l9.07-9.5a1.78,1.78,0,0,1,1.27-.49H629.1C630.35,113.89,631.1,115,630.41,115.77Z" transform="translate(-1.14)"/><rect class="cls-10" x="549.56" y="123.71" width="31.49" height="37.39" rx="2.26" ry="2.26" transform="translate(421.76 707.71) rotate(-90)"/><path class="cls-11" d="M591.36,115.77l-8.14,9.5a1.73,1.73,0,0,1-1.29.54H548.12c-1.27,0-2-1.13-1.25-1.93l9-9.5a1.73,1.73,0,0,1,1.25-.49h33C591.31,113.89,592.05,115,591.36,115.77Z" transform="translate(-1.14)"/><path class="cls-9" d="M657.06,157.38l7.65-7.29a1.62,1.62,0,0,0,.43-1.16V118.69c0-1.14-.91-1.8-1.55-1.12l-7.64,8a1.64,1.64,0,0,0-.4,1.12v29.49C655.55,157.33,656.42,158,657.06,157.38Z" transform="translate(-1.14)"/><rect class="cls-1" x="499.91" y="193.41" width="31.49" height="69.99" rx="2.26" ry="2.26" transform="translate(286.11 744.05) rotate(-90)"/><path class="cls-9" d="M559.28,201.77l-8.21,9.5a1.76,1.76,0,0,1-1.31.54h-34.1c-1.28,0-2-1.13-1.26-1.93l9.07-9.5a1.73,1.73,0,0,1,1.26-.49H558C559.23,199.89,560,201,559.28,201.77Z" transform="translate(-1.14)"/><path class="cls-9" d="M526.41,201.77l-8.22,9.5a1.75,1.75,0,0,1-1.3.54h-34.1c-1.29,0-2-1.13-1.27-1.93l9.07-9.5a1.78,1.78,0,0,1,1.27-.49H525.1C526.35,199.89,527.1,201,526.41,201.77Z" transform="translate(-1.14)"/><rect class="cls-10" x="445.56" y="209.71" width="31.49" height="37.39" rx="2.26" ry="2.26" transform="translate(231.76 689.71) rotate(-90)"/><path class="cls-11" d="M487.36,201.77l-8.14,9.5a1.73,1.73,0,0,1-1.29.54H444.12c-1.27,0-2-1.13-1.25-1.93l9-9.5a1.73,1.73,0,0,1,1.25-.49h33C487.31,199.89,488.05,201,487.36,201.77Z" transform="translate(-1.14)"/><path class="cls-9" d="M553.06,243.38l7.65-7.29a1.62,1.62,0,0,0,.43-1.16V204.69c0-1.14-.91-1.8-1.55-1.12l-7.64,8a1.64,1.64,0,0,0-.4,1.12v29.49C551.55,243.33,552.42,244,553.06,243.38Z" transform="translate(-1.14)"/><rect class="cls-1" x="204.91" y="107.41" width="31.49" height="69.99" rx="2.26" ry="2.26" transform="translate(77.11 363.05) rotate(-90)"/><path class="cls-9" d="M264.28,115.77l-8.21,9.5a1.76,1.76,0,0,1-1.31.54h-34.1c-1.28,0-2-1.13-1.26-1.93l9.07-9.5a1.73,1.73,0,0,1,1.26-.49H263C264.23,113.89,265,115,264.28,115.77Z" transform="translate(-1.14)"/><path class="cls-9" d="M231.41,115.77l-8.22,9.5a1.75,1.75,0,0,1-1.3.54h-34.1c-1.29,0-2-1.13-1.27-1.93l9.07-9.5a1.78,1.78,0,0,1,1.27-.49H230.1C231.35,113.89,232.1,115,231.41,115.77Z" transform="translate(-1.14)"/><rect class="cls-10" x="150.56" y="123.71" width="31.49" height="37.39" rx="2.26" ry="2.26" transform="translate(22.76 308.71) rotate(-90)"/><path class="cls-11" d="M192.36,115.77l-8.14,9.5a1.73,1.73,0,0,1-1.29.54H149.12c-1.27,0-2-1.13-1.25-1.93l9-9.5a1.73,1.73,0,0,1,1.25-.49h33C192.31,113.89,193.05,115,192.36,115.77Z" transform="translate(-1.14)"/><path class="cls-9" d="M258.06,157.38l7.65-7.29a1.62,1.62,0,0,0,.43-1.16V118.69c0-1.14-.91-1.8-1.55-1.12l-7.64,8a1.64,1.64,0,0,0-.4,1.12v29.49C256.55,157.33,257.42,158,258.06,157.38Z" transform="translate(-1.14)"/><rect class="cls-1" x="59.91" y="108.41" width="31.49" height="69.99" rx="2.26" ry="2.26" transform="translate(-68.89 219.05) rotate(-90)"/><path class="cls-9" d="M119.28,116.77l-8.21,9.5a1.76,1.76,0,0,1-1.31.54H75.66c-1.28,0-2-1.13-1.26-1.93l9.07-9.5a1.73,1.73,0,0,1,1.26-.49H118C119.23,114.89,120,116,119.28,116.77Z" transform="translate(-1.14)"/><path class="cls-9" d="M86.41,116.77l-8.22,9.5a1.75,1.75,0,0,1-1.3.54H42.79c-1.29,0-2-1.13-1.27-1.93l9.07-9.5a1.78,1.78,0,0,1,1.27-.49H85.1C86.35,114.89,87.1,116,86.41,116.77Z" transform="translate(-1.14)"/><rect class="cls-10" x="5.56" y="124.71" width="31.49" height="37.39" rx="2.26" ry="2.26" transform="translate(-123.24 164.71) rotate(-90)"/><path class="cls-11" d="M47.36,116.77l-8.14,9.5a1.73,1.73,0,0,1-1.29.54H4.12c-1.27,0-2-1.13-1.25-1.93l9-9.5a1.73,1.73,0,0,1,1.25-.49h33C47.31,114.89,48.05,116,47.36,116.77Z" transform="translate(-1.14)"/><path class="cls-9" d="M113.06,158.38l7.65-7.29a1.62,1.62,0,0,0,.43-1.16V119.69c0-1.14-.91-1.8-1.55-1.12l-7.64,8a1.64,1.64,0,0,0-.4,1.12v29.49C111.55,158.33,112.42,159,113.06,158.38Z" transform="translate(-1.14)"/><rect class="cls-1" x="78.91" y="16.41" width="31.49" height="69.99" rx="2.26" ry="2.26" transform="translate(42.11 146.05) rotate(-90)"/><path class="cls-9" d="M138.28,24.77l-8.21,9.5a1.76,1.76,0,0,1-1.31.54H94.66c-1.28,0-2-1.13-1.26-1.93l9.07-9.5a1.73,1.73,0,0,1,1.26-.49H137C138.23,22.89,139,24,138.28,24.77Z" transform="translate(-1.14)"/><path class="cls-9" d="M105.41,24.77l-8.22,9.5a1.75,1.75,0,0,1-1.3.54H61.79c-1.29,0-2-1.13-1.27-1.93l9.07-9.5a1.78,1.78,0,0,1,1.27-.49H104.1C105.35,22.89,106.1,24,105.41,24.77Z" transform="translate(-1.14)"/><rect class="cls-10" x="24.56" y="32.71" width="31.49" height="37.39" rx="2.26" ry="2.26" transform="translate(-12.24 91.71) rotate(-90)"/><path class="cls-11" d="M66.36,24.77l-8.14,9.5a1.73,1.73,0,0,1-1.29.54H23.12c-1.27,0-2-1.13-1.25-1.93l9-9.5a1.73,1.73,0,0,1,1.25-.49h33C66.31,22.89,67.05,24,66.36,24.77Z" transform="translate(-1.14)"/><path class="cls-9" d="M132.06,66.38l7.65-7.29a1.62,1.62,0,0,0,.43-1.16V27.69c0-1.14-.91-1.8-1.55-1.12l-7.64,8a1.64,1.64,0,0,0-.4,1.12V65.22C130.55,66.33,131.42,67,132.06,66.38Z" transform="translate(-1.14)"/><text class="cls-4" transform="translate(458.14 260.44) scale(1.13 1)">dele<tspan class="cls-12" x="27.61" y="0">t</tspan><tspan x="32.59" y="0">eNode</tspan></text><polygon points="456.41 222.89 454.74 223.61 430.33 169.09 431.99 168.36 456.41 222.89"/><polygon points="436.48 169.75 429.01 173 427.41 159.92 436.48 169.75"/><line class="cls-13" x1="346.41" y1="139.11" x2="366.91" y2="139.11"/><polygon points="347.8 130.25 348.09 147.18 339.48 138.82 347.8 130.25"/><line class="cls-13" x1="266.41" y1="139.11" x2="286.91" y2="139.11"/><polygon points="267.8 130.25 268.09 147.18 259.48 138.82 267.8 130.25"/><line class="cls-13" x1="122.41" y1="141.11" x2="142.91" y2="141.11"/><polygon points="123.8 132.25 124.09 149.18 115.48 140.82 123.8 132.25"/><polygon class="cls-14" points="556.99 137.95 556.78 139.98 493.09 137.88 493.3 135.85 556.99 137.95"/><polygon class="cls-14" points="496.98 132.02 496.02 141.11 483.01 136.33 496.98 132.02"/><g class="cls-15"><polygon class="cls-16" points="567.63 150.24 569.03 151.32 534.03 194.41 532.63 193.32 567.63 150.24"/><polygon class="cls-16" points="531.14 189.62 537.37 194.58 529.41 198.61 531.14 189.62"/></g><polygon points="43.41 56.21 46.9 55.61 68.86 106.64 65.37 107.24 43.41 56.21"/><polygon points="57.73 106.56 73.41 103.97 69.46 112.61 57.73 106.56"/><polygon points="22.63 136.61 20.41 134.63 72.4 74.5 74.62 76.48 22.63 136.61"/><polygon points="77.07 82.55 67.26 73.56 79.34 68.87 77.07 82.55"/></g></g></svg>