<svg xmlns="http://www.w3.org/2000/svg" viewBox="0 0 810.08 203.01"><defs><style>.cls-1{fill:#00aa94;opacity:0.8;}.cls-2{opacity:0.5;}.cls-3{fill:#666;}.cls-4{font-size:29px;font-family:MyriadPro-Regular, Myriad Pro;}.cls-4,.cls-6{stroke:#000;}.cls-4,.cls-5,.cls-6{stroke-miterlimit:10;}.cls-5{fill:#fff;stroke:#fff;}.cls-6{stroke-width:3px;}.cls-7{letter-spacing:-0.07em;}</style></defs><title>자산 3</title><g id="레이어_2" data-name="레이어 2"><g id="레이어_1-2" data-name="레이어 1"><rect class="cls-1" x="97.55" y="-64" width="35" height="163" rx="9.65" ry="9.65" transform="translate(96.08 132.55) rotate(-90)"/><g class="cls-2"><path class="cls-3" d="M1.47,184.89a1.11,1.11,0,0,1,1.19-1.11,1.11,1.11,0,0,1,1.19,1.11A1.12,1.12,0,0,1,2.66,186,1.12,1.12,0,0,1,1.47,184.89Zm.31,3.22H3.51v10.2H1.78Z" transform="translate(-1.47)"/><path class="cls-3" d="M7,188.11H8.38l.15,1.47h.05A4.89,4.89,0,0,1,12,187.86c2.15,0,3.11,1.38,3.11,4v6.46H13.4v-6.24c0-1.9-.58-2.72-1.93-2.72-1,0-1.77.54-2.79,1.57v7.39H7Z" transform="translate(-1.47)"/><path class="cls-3" d="M17.66,200.27a2.87,2.87,0,0,1,1.49-2.3v-.09a1.9,1.9,0,0,1-.91-1.67,2.45,2.45,0,0,1,1.12-1.89v-.09A3.56,3.56,0,0,1,18,191.49a3.62,3.62,0,0,1,3.83-3.63,4.18,4.18,0,0,1,1.44.25h3.56v1.33H24.78a3,3,0,0,1,.83,2.1,3.49,3.49,0,0,1-3.74,3.54,3.71,3.71,0,0,1-1.52-.35,1.5,1.5,0,0,0-.65,1.21c0,.64.42,1.1,1.79,1.1h2c2.37,0,3.56.75,3.56,2.44,0,1.9-2,3.53-5.16,3.53C19.38,203,17.66,202,17.66,200.27Zm7.69-.53c0-.94-.72-1.27-2.06-1.27H21.53a5.75,5.75,0,0,1-1.32-.15A2.15,2.15,0,0,0,19.16,200c0,1.1,1.11,1.79,3,1.79S25.35,200.8,25.35,199.74ZM24,191.49a2.18,2.18,0,1,0-4.34,0,2.18,2.18,0,1,0,4.34,0Z" transform="translate(-1.47)"/><path class="cls-3" d="M28.25,200.27a2.87,2.87,0,0,1,1.49-2.3v-.09a1.9,1.9,0,0,1-.91-1.67A2.45,2.45,0,0,1,30,194.32v-.09a3.56,3.56,0,0,1-1.32-2.74,3.62,3.62,0,0,1,3.83-3.63,4.18,4.18,0,0,1,1.44.25h3.56v1.33H35.37a3,3,0,0,1,.83,2.1,3.49,3.49,0,0,1-3.74,3.54,3.71,3.71,0,0,1-1.52-.35,1.5,1.5,0,0,0-.65,1.21c0,.64.42,1.1,1.79,1.1h2c2.37,0,3.56.75,3.56,2.44,0,1.9-2,3.53-5.16,3.53C30,203,28.25,202,28.25,200.27Zm7.69-.53c0-.94-.72-1.27-2.06-1.27H32.12a5.75,5.75,0,0,1-1.32-.15A2.15,2.15,0,0,0,29.75,200c0,1.1,1.11,1.79,3,1.79S35.94,200.8,35.94,199.74Zm-1.31-8.25a2.18,2.18,0,1,0-4.34,0,2.18,2.18,0,1,0,4.34,0Z" transform="translate(-1.47)"/><path class="cls-3" d="M39.26,197.26a1.25,1.25,0,1,1,1.25,1.31A1.26,1.26,0,0,1,39.26,197.26Z" transform="translate(-1.47)"/><path class="cls-3" d="M44.53,184.89a1.19,1.19,0,0,1,2.38,0,1.19,1.19,0,0,1-2.38,0Zm.32,3.22h1.72v10.2H44.85Z" transform="translate(-1.47)"/><path class="cls-3" d="M49.26,193.22c0-3.4,2.23-5.36,4.73-5.36s4.73,2,4.73,5.36-2.23,5.35-4.73,5.35S49.26,196.6,49.26,193.22Zm7.67,0c0-2.34-1.19-3.93-2.94-3.93s-3,1.59-3,3.93,1.19,3.91,3,3.91S56.93,195.56,56.93,193.22Z" transform="translate(-1.47)"/></g><text class="cls-4" transform="translate(97.17 175.05)">(1)</text><path class="cls-5" d="M108,8.65a39.86,39.86,0,0,1,5.45-.41c3.86,0,6.81,1.06,8.51,2.92a8.35,8.35,0,0,1,2.18,5.94,9.7,9.7,0,0,1-2.51,6.64c-1.75,1.86-4.83,3-8.91,3-1.64,0-3.15,0-4.72-.16Zm1.32,16.84a26,26,0,0,0,3.62.16c6.91,0,9.85-3.8,9.85-8.53.06-4.45-2.8-7.77-9.44-7.77a20.63,20.63,0,0,0-4,.35Z" transform="translate(-1.47)"/><rect class="cls-1" x="634.55" y="-63" width="35" height="163" rx="9.65" ry="9.65" transform="translate(632.08 670.55) rotate(-90)"/><path class="cls-5" d="M656.43,18.56h-8.1v7.93h9V27.6H647V9.41h9.88v1.1h-8.56v6.94h8.1Z" transform="translate(-1.47)"/><rect class="cls-1" x="97.55" y="-27" width="35" height="163" rx="9.65" ry="9.65" transform="translate(59.08 169.55) rotate(-90)"/><path class="cls-5" d="M122,62.87a13.83,13.83,0,0,1-5.7,1.05c-4.91,0-9.61-3-9.61-9.34,0-4.75,3.51-9.5,10.34-9.5a11.13,11.13,0,0,1,4.91.92l-.43,1.11a10.33,10.33,0,0,0-4.4-.92c-5.91,0-9,3.59-9,8.5,0,4.48,3,8.1,8.72,8.1a11.28,11.28,0,0,0,4.8-1Z" transform="translate(-1.47)"/><rect class="cls-1" x="97.55" y="10" width="35" height="163" rx="9.65" ry="9.65" transform="translate(22.08 206.55) rotate(-90)"/><path class="cls-5" d="M110,82.65a20.06,20.06,0,0,1,4.08-.41c2.48,0,4,.52,5.13,1.6a4,4,0,0,1,1.13,3,4.5,4.5,0,0,1-3.21,4V91a4.75,4.75,0,0,1,4,4.56A4.62,4.62,0,0,1,119.73,99c-1.27,1.27-3.35,1.81-6.29,1.81-1.4,0-2.62-.11-3.43-.16Zm1.32,7.8h3.19c2.86,0,4.48-1.59,4.48-3.56,0-2.78-2.29-3.54-5-3.54a11.88,11.88,0,0,0-2.68.22Zm0,9a13,13,0,0,0,2.57.16c2.86,0,5.83-.83,5.83-4.07,0-2.86-2.59-4-5.67-4h-2.73Z" transform="translate(-1.47)"/><rect class="cls-1" x="97.55" y="47" width="35" height="163" rx="9.65" ry="9.65" transform="translate(-14.92 243.55) rotate(-90)"/><path class="cls-5" d="M111.33,131.2l-2.51,6.4h-1.37l7.34-18.19h1.29l7.29,18.19H122l-2.57-6.4Zm7.67-1.1-2.57-6.4c-.48-1.22-.72-2-1-2.89h-.06c-.27.92-.57,1.73-1,2.81l-2.59,6.48Z" transform="translate(-1.47)"/><text class="cls-4" transform="translate(369.17 175.05)">(2)</text><rect class="cls-1" x="369.55" y="-27" width="35" height="163" rx="9.65" ry="9.65" transform="translate(331.08 441.55) rotate(-90)"/><path class="cls-5" d="M394,62.87a13.83,13.83,0,0,1-5.7,1.05c-4.91,0-9.61-3-9.61-9.34,0-4.75,3.51-9.5,10.34-9.5a11.13,11.13,0,0,1,4.91.92l-.43,1.11a10.33,10.33,0,0,0-4.4-.92c-5.91,0-9,3.59-9,8.5,0,4.48,3,8.1,8.72,8.1a11.28,11.28,0,0,0,4.8-1Z" transform="translate(-1.47)"/><rect class="cls-1" x="369.55" y="10" width="35" height="163" rx="9.65" ry="9.65" transform="translate(294.08 478.55) rotate(-90)"/><path class="cls-5" d="M382,82.65a20.06,20.06,0,0,1,4.08-.41c2.48,0,4.05.52,5.13,1.6a4,4,0,0,1,1.13,3,4.5,4.5,0,0,1-3.21,4V91a4.75,4.75,0,0,1,4,4.56A4.62,4.62,0,0,1,391.73,99c-1.27,1.27-3.35,1.81-6.29,1.81-1.4,0-2.62-.11-3.43-.16Zm1.32,7.8h3.19c2.86,0,4.48-1.59,4.48-3.56,0-2.78-2.29-3.54-5-3.54a11.88,11.88,0,0,0-2.68.22Zm0,9a13,13,0,0,0,2.57.16c2.86,0,5.83-.83,5.83-4.07,0-2.86-2.59-4-5.67-4h-2.73Z" transform="translate(-1.47)"/><rect class="cls-1" x="369.55" y="47" width="35" height="163" rx="9.65" ry="9.65" transform="translate(257.08 515.55) rotate(-90)"/><path class="cls-5" d="M383.33,131.2l-2.51,6.4h-1.37l7.34-18.19h1.29l7.29,18.19H394l-2.57-6.4Zm7.67-1.1-2.57-6.4c-.48-1.22-.72-2-1-2.89h-.06c-.27.92-.57,1.73-1,2.81l-2.59,6.48Z" transform="translate(-1.47)"/><text class="cls-4" transform="translate(634.17 176.05)">(3)</text><rect class="cls-1" x="634.55" y="-26" width="35" height="163" rx="9.65" ry="9.65" transform="translate(595.08 707.55) rotate(-90)"/><path class="cls-5" d="M659,63.87a13.83,13.83,0,0,1-5.7,1.05c-4.91,0-9.61-3-9.61-9.34,0-4.75,3.51-9.5,10.34-9.5a11.13,11.13,0,0,1,4.91.92l-.43,1.11a10.33,10.33,0,0,0-4.4-.92c-5.91,0-9,3.59-9,8.5,0,4.48,3,8.1,8.72,8.1a11.28,11.28,0,0,0,4.8-1Z" transform="translate(-1.47)"/><rect class="cls-1" x="634.55" y="11" width="35" height="163" rx="9.65" ry="9.65" transform="translate(558.08 744.55) rotate(-90)"/><path class="cls-5" d="M647,83.65a20.06,20.06,0,0,1,4.08-.41c2.48,0,4,.52,5.13,1.6a4,4,0,0,1,1.13,3,4.5,4.5,0,0,1-3.21,4V92a4.75,4.75,0,0,1,4,4.56,4.62,4.62,0,0,1-1.38,3.43c-1.27,1.27-3.35,1.81-6.29,1.81-1.4,0-2.62-.11-3.43-.16Zm1.32,7.8h3.19c2.86,0,4.48-1.59,4.48-3.56,0-2.78-2.29-3.54-5-3.54a11.88,11.88,0,0,0-2.68.22Zm0,9a13,13,0,0,0,2.57.16c2.86,0,5.83-.83,5.83-4.07,0-2.86-2.59-4-5.67-4h-2.73Z" transform="translate(-1.47)"/><rect class="cls-1" x="634.55" y="48" width="35" height="163" rx="9.65" ry="9.65" transform="translate(521.08 781.55) rotate(-90)"/><path class="cls-5" d="M648.33,132.2l-2.51,6.4h-1.37l7.34-18.19h1.29l7.29,18.19H659l-2.57-6.4Zm7.67-1.1-2.57-6.4c-.48-1.22-.72-2-1-2.89h-.06c-.27.92-.57,1.73-1,2.81l-2.59,6.48Z" transform="translate(-1.47)"/><line class="cls-6" x1="202.08" y1="17.5" x2="222.58" y2="17.5"/><polygon points="203.47 8.64 203.76 25.57 195.15 17.21 203.47 8.64"/><text class="cls-4" transform="translate(225.17 27.27)"><tspan class="cls-7">T</tspan><tspan x="12.35" y="0">op</tspan></text><line class="cls-6" x1="474.08" y1="53.5" x2="494.58" y2="53.5"/><polygon points="475.47 44.64 475.76 61.57 467.15 53.21 475.47 44.64"/><text class="cls-4" transform="translate(497.17 63.27)"><tspan class="cls-7">T</tspan><tspan x="12.35" y="0">op</tspan></text><line class="cls-6" x1="739.08" y1="17.5" x2="759.58" y2="17.5"/><polygon points="740.47 8.64 740.76 25.57 732.15 17.21 740.47 8.64"/><text class="cls-4" transform="translate(762.17 27.27)"><tspan class="cls-7">T</tspan><tspan x="12.35" y="0">op</tspan></text></g></g></svg>