<svg xmlns="http://www.w3.org/2000/svg" viewBox="0 0 659 366"><defs><style>.cls-1{fill:#ccc;}.cls-2{fill:#fbb03b;}.cls-3{font-size:27.21px;fill:#fff;font-family:ChalkboardSE-Regular, Chalkboard SE;}.cls-4{letter-spacing:-0.01em;}.cls-5{letter-spacing:-0.02em;}.cls-6{letter-spacing:-0.08em;}.cls-7{letter-spacing:-0.03em;}.cls-8{letter-spacing:-0.02em;}.cls-9{fill:#f7691e;}.cls-10{fill:#4d4d4d;}.cls-11{font-size:24px;font-family:NanumPen, Nanum Pen Script;}.cls-12{opacity:0.5;}.cls-13{fill:#e6e6e6;}</style></defs><title>work3</title><g id="레이어_2" data-name="레이어 2"><g id="레이어_1-2" data-name="레이어 1"><rect class="cls-1" width="659" height="366"/><rect class="cls-2" x="242.48" y="55" width="173.52" height="277" rx="9.65" ry="9.65"/><text class="cls-3" transform="translate(250.11 82.84) scale(0.92 1)">C<tspan class="cls-4" x="15.96" y="0">a</tspan><tspan class="cls-5" x="30.33" y="0">l</tspan><tspan x="38.09" y="0">l S</tspan><tspan class="cls-6" x="72.66" y="0">t</tspan><tspan class="cls-7" x="82.94" y="0">a</tspan><tspan class="cls-8" x="96.68" y="0">c</tspan><tspan x="109.63" y="0">k</tspan></text><rect class="cls-9" x="254" y="240" width="150" height="33" rx="1.41" ry="1.41"/><path d="M307.05,254.68l1.08-.1h3.08v1.81h-4.16Zm1-1.11c0-2,.7-3.49,2.44-3.49a2.88,2.88,0,0,1,1.35.34l-.33,1.7a1.62,1.62,0,0,0-.79-.23c-.62,0-.94.51-.94,1.64V264.3H308Z"/><path d="M312.3,251.58a1.09,1.09,0,1,1,1.07,1.29A1.15,1.15,0,0,1,312.3,251.58Zm.2,3h1.73v9.72H312.5Z"/><path d="M316.42,254.58h1.42l.13,1.73h0c.52-1.27,1.3-2,2.09-2a1.47,1.47,0,0,1,.84.2l-.3,2a1.88,1.88,0,0,0-.76-.16c-.59,0-1.3.53-1.74,2v5.93h-1.73Z"/><path d="M321.2,263.19l.8-1.45a2.9,2.9,0,0,0,2,1.08,1.08,1.08,0,0,0,1.18-1.16c0-.82-.8-1.18-1.59-1.58a3.08,3.08,0,0,1-2.06-2.83,2.65,2.65,0,0,1,2.68-2.91,3.46,3.46,0,0,1,2.44,1.16l-.79,1.4a2.43,2.43,0,0,0-1.61-.84,1,1,0,0,0-1.09,1.07c0,.77.74,1.07,1.54,1.45a3.05,3.05,0,0,1,2.11,2.94,2.78,2.78,0,0,1-2.86,3A4,4,0,0,1,321.2,263.19Z"/><path d="M328.36,261v-4.63h-1.05v-1.71l1.14-.1.2-2.66h1.43v2.66H332v1.81h-1.88V261c0,1.15.34,1.71,1.05,1.71a1.77,1.77,0,0,0,.77-.23l.29,1.68a3.65,3.65,0,0,1-1.51.36C329,264.54,328.36,263.12,328.36,261Z"/><path d="M333.57,258.8a20.83,20.83,0,0,1,2-9l1.09.62a22.11,22.11,0,0,0,0,16.81l-1.09.62A20.78,20.78,0,0,1,333.57,258.8Z"/><path d="M337.92,267.2a22.23,22.23,0,0,0,0-16.81l1.08-.62a21.56,21.56,0,0,1,0,18Z"/><rect class="cls-9" x="254" y="285" width="150" height="33" rx="1.41" ry="1.41"/><path d="M307.75,299.58h1.41l.13,1.32h0a3,3,0,0,1,2.27-1.56c1.08,0,1.69.65,2,1.74.7-1,1.43-1.74,2.37-1.74,1.55,0,2.27,1.41,2.27,3.86v6.1h-1.73v-5.8c0-1.6-.35-2.21-1.13-2.21-.47,0-1,.4-1.54,1.22v6.79h-1.73v-5.8c0-1.6-.36-2.21-1.13-2.21-.46,0-1,.4-1.54,1.22v6.79h-1.73Z"/><path d="M320,306.69c0-2.08,1.31-3.17,4.33-3.6,0-1-.34-1.91-1.34-1.91a3.51,3.51,0,0,0-2.07.95l-.63-1.52a4.87,4.87,0,0,1,3-1.27c1.84,0,2.75,1.49,2.75,4.2v5.76h-1.42l-.13-1.07h-.05a3.22,3.22,0,0,1-2.28,1.31C320.89,309.54,320,308.38,320,306.69Zm4.33,0v-2.19c-2,.33-2.66,1-2.66,2s.44,1.24,1.06,1.24S323.79,307.36,324.33,306.7Z"/><path d="M327.94,296.58c0-.77.45-1.29,1.06-1.29a1.31,1.31,0,1,1-1.06,1.29Zm.19,3h1.73v9.72h-1.73Z"/><path d="M332.06,299.58h1.41l.14,1.31h.05a3.17,3.17,0,0,1,2.41-1.55c1.58,0,2.27,1.41,2.27,3.86v6.1h-1.73v-5.8c0-1.6-.35-2.21-1.14-2.21s-1.08.42-1.68,1.22v6.79h-1.73Z"/><path d="M340.51,303.8a20.69,20.69,0,0,1,2-9l1.08.62a22.23,22.23,0,0,0,0,16.81l-1.08.62A20.64,20.64,0,0,1,340.51,303.8Z"/><path d="M344.86,312.2a22.23,22.23,0,0,0,0-16.81l1.08-.62a21.56,21.56,0,0,1,0,18.05Z"/><rect class="cls-9" x="254" y="195" width="150" height="33" rx="1.41" ry="1.41"/><path d="M301,218.19l.8-1.45a2.88,2.88,0,0,0,2,1.08,1.08,1.08,0,0,0,1.19-1.16c0-.82-.8-1.18-1.59-1.58a3.09,3.09,0,0,1-2.07-2.84,2.65,2.65,0,0,1,2.68-2.9,3.47,3.47,0,0,1,2.45,1.16l-.79,1.4a2.43,2.43,0,0,0-1.61-.84,1,1,0,0,0-1.1,1.07c0,.77.75,1.06,1.55,1.45a3,3,0,0,1,2.11,2.94,2.78,2.78,0,0,1-2.86,3A4,4,0,0,1,301,218.19Z"/><path d="M307.73,214.45c0-3.16,1.66-5.11,3.4-5.11,2,0,3,1.9,3,4.62a7.33,7.33,0,0,1-.08,1.1h-4.67c.14,1.73,1,2.71,2.17,2.71a2.66,2.66,0,0,0,1.71-.7l.58,1.42a3.88,3.88,0,0,1-2.52,1C309.33,219.54,307.73,217.66,307.73,214.45Zm4.94-.94c0-1.5-.5-2.41-1.51-2.41s-1.61.85-1.76,2.41Z"/><path d="M315.33,214.45c0-3.24,1.73-5.11,3.7-5.11a2.78,2.78,0,0,1,2.15,1.09l-.84,1.48a1.63,1.63,0,0,0-1.22-.71c-1.19,0-2,1.3-2,3.25s.81,3.23,1.95,3.23a2.17,2.17,0,0,0,1.53-.84l.7,1.5a3.19,3.19,0,0,1-2.41,1.2C316.87,219.54,315.33,217.67,315.33,214.45Z"/><path d="M321.9,214.45c0-3.24,1.66-5.11,3.5-5.11s3.5,1.87,3.5,5.11-1.66,5.09-3.5,5.09S321.9,217.67,321.9,214.45Zm5.23,0c0-1.95-.65-3.25-1.73-3.25s-1.73,1.3-1.73,3.25.65,3.23,1.73,3.23S327.13,216.4,327.13,214.45Z"/><path d="M330.61,209.57H332l.13,1.32h0a3.21,3.21,0,0,1,2.42-1.55c1.58,0,2.27,1.41,2.27,3.86v6.1h-1.73v-5.8c0-1.6-.35-2.21-1.15-2.21-.65,0-1.07.42-1.68,1.21v6.8h-1.73Z"/><path d="M338.56,214.45c0-3.17,1.5-5.11,3.12-5.11a2.44,2.44,0,0,1,1.93,1.07l-.07-1.57v-3.53h1.73v14h-1.42l-.13-1.05h-.05a2.84,2.84,0,0,1-2.09,1.29C339.75,219.54,338.56,217.66,338.56,214.45Zm5,2.11V212a1.94,1.94,0,0,0-1.5-.81c-.93,0-1.71,1.17-1.71,3.2s.62,3.24,1.68,3.24C342.58,217.66,343.06,217.32,343.54,216.56Z"/><path d="M347.52,213.8a20.69,20.69,0,0,1,2-9l1.08.62a22.23,22.23,0,0,0,0,16.81l-1.08.62A20.67,20.67,0,0,1,347.52,213.8Z"/><path d="M351.88,222.2a22.23,22.23,0,0,0,0-16.81l1.08-.62a21.56,21.56,0,0,1,0,18Z"/><rect class="cls-9" x="254" y="150" width="150" height="33" rx="1.41" ry="1.41"/><path d="M308,171v-4.63h-1v-1.71l1.14-.1.2-2.66h1.43v2.66h1.88v1.81h-1.88V171c0,1.15.34,1.71,1,1.71a1.69,1.69,0,0,0,.76-.23l.3,1.68a3.69,3.69,0,0,1-1.51.36C308.64,174.54,308,173.12,308,171Z"/><path d="M313.16,160.31h1.73v3.62l-.07,1.88a3.14,3.14,0,0,1,2.35-1.47c1.58,0,2.27,1.41,2.27,3.86v6.1h-1.73v-5.8c0-1.6-.34-2.21-1.14-2.21-.65,0-1.08.42-1.68,1.22v6.79h-1.73Z"/><path d="M321.33,161.58a1.09,1.09,0,1,1,1.07,1.29A1.15,1.15,0,0,1,321.33,161.58Zm.2,3h1.73v9.72h-1.73Z"/><path d="M325.45,164.58h1.42l.13,1.73h.05c.52-1.27,1.3-2,2.09-2a1.47,1.47,0,0,1,.84.2l-.3,2a1.88,1.88,0,0,0-.76-.16c-.59,0-1.29.53-1.74,2v5.93h-1.73Z"/><path d="M330.45,169.45c0-3.17,1.51-5.11,3.12-5.11a2.44,2.44,0,0,1,1.93,1.07l-.06-1.57v-3.53h1.72v14h-1.41l-.13-1.05h-.05a2.85,2.85,0,0,1-2.1,1.29C331.64,174.54,330.45,172.66,330.45,169.45Zm5,2.11V167a2,2,0,0,0-1.5-.81c-.94,0-1.71,1.18-1.71,3.2s.61,3.24,1.67,3.24C334.47,172.66,335,172.32,335.44,171.56Z"/><path d="M339.42,168.8a20.83,20.83,0,0,1,2-9l1.08.62a22.23,22.23,0,0,0,0,16.81l-1.08.62A20.78,20.78,0,0,1,339.42,168.8Z"/><path d="M343.77,177.2a22.23,22.23,0,0,0,0-16.81l1.08-.62a21.56,21.56,0,0,1,0,18Z"/><rect class="cls-10" x="450" y="152" width="6" height="156"/><polygon class="cls-10" points="439.95 295 466.82 295 454 328 439.95 295"/><rect class="cls-10" x="203" y="177" width="6" height="156"/><polygon class="cls-10" points="220.63 185 193.76 185 206.58 152 220.63 185"/><text class="cls-11" transform="translate(492.28 249.79)">실행되는 순서</text><text class="cls-11" transform="translate(95.28 251.79)">쌓이는 순서</text><g class="cls-12"><path class="cls-13" d="M9.92,336.89a1.1,1.1,0,0,1,1.19-1.11,1.1,1.1,0,0,1,1.19,1.11A1.13,1.13,0,0,1,11.11,338,1.13,1.13,0,0,1,9.92,336.89Zm.31,3.22H12v10.2H10.23Z"/><path class="cls-13" d="M15.41,340.11h1.42l.15,1.47H17a4.85,4.85,0,0,1,3.42-1.72c2.15,0,3.12,1.38,3.12,4v6.46H21.85v-6.24c0-1.9-.58-2.72-1.93-2.72-1,0-1.76.54-2.79,1.57v7.39H15.41Z"/><path class="cls-13" d="M26.11,352.27a2.86,2.86,0,0,1,1.5-2.3v-.09a1.89,1.89,0,0,1-.92-1.67,2.47,2.47,0,0,1,1.13-1.9v-.08a3.53,3.53,0,0,1-1.32-2.74,3.62,3.62,0,0,1,3.83-3.63,4,4,0,0,1,1.44.25h3.56v1.33h-2.1a3,3,0,0,1,.83,2.1,3.49,3.49,0,0,1-3.73,3.54,3.67,3.67,0,0,1-1.52-.35,1.51,1.51,0,0,0-.66,1.21c0,.64.42,1.1,1.79,1.1h2c2.37,0,3.56.75,3.56,2.44,0,1.9-2,3.53-5.16,3.53C27.83,355,26.11,354,26.11,352.27Zm7.69-.53c0-.95-.71-1.27-2-1.27H30a5.83,5.83,0,0,1-1.33-.15,2.13,2.13,0,0,0-1,1.71c0,1.1,1.1,1.79,3,1.79S33.8,352.8,33.8,351.74Zm-1.31-8.25a2.17,2.17,0,1,0-4.33,0,2.18,2.18,0,1,0,4.33,0Z"/><path class="cls-13" d="M36.7,352.27a2.86,2.86,0,0,1,1.5-2.3v-.09a1.89,1.89,0,0,1-.92-1.67,2.47,2.47,0,0,1,1.13-1.9v-.08a3.53,3.53,0,0,1-1.32-2.74,3.62,3.62,0,0,1,3.83-3.63,4,4,0,0,1,1.44.25h3.56v1.33h-2.1a3,3,0,0,1,.83,2.1,3.49,3.49,0,0,1-3.73,3.54,3.67,3.67,0,0,1-1.52-.35,1.51,1.51,0,0,0-.66,1.21c0,.64.42,1.1,1.79,1.1h2c2.37,0,3.56.75,3.56,2.44,0,1.9-2,3.53-5.16,3.53C38.42,355,36.7,354,36.7,352.27Zm7.69-.53c0-.95-.71-1.27-2-1.27H40.58a5.83,5.83,0,0,1-1.33-.15,2.13,2.13,0,0,0-1,1.71c0,1.1,1.1,1.79,3,1.79S44.39,352.8,44.39,351.74Zm-1.31-8.25a2.17,2.17,0,1,0-4.33,0,2.18,2.18,0,1,0,4.33,0Z"/><path class="cls-13" d="M47.71,349.26a1.25,1.25,0,1,1,1.25,1.3A1.26,1.26,0,0,1,47.71,349.26Z"/><path class="cls-13" d="M53,336.89a1.2,1.2,0,0,1,2.39,0,1.2,1.2,0,0,1-2.39,0Zm.32,3.22H55v10.2H53.3Z"/><path class="cls-13" d="M57.71,345.22c0-3.4,2.23-5.36,4.73-5.36s4.73,2,4.73,5.36-2.23,5.34-4.73,5.34S57.71,348.6,57.71,345.22Zm7.68,0c0-2.34-1.19-3.93-3-3.93s-2.94,1.59-2.94,3.93,1.19,3.91,2.94,3.91S65.39,347.56,65.39,345.22Z"/></g></g></g></svg>