<svg xmlns="http://www.w3.org/2000/svg" viewBox="0 0 646 311"><defs><style>.cls-1{fill:#ccc;}.cls-2{fill:#fbb03b;}.cls-3{fill:#c7b299;}.cls-4{font-size:20.25px;}.cls-4,.cls-8{fill:#fff;}.cls-14,.cls-4,.cls-8{font-family:ChalkboardSE-Regular, Chalkboard SE;}.cls-5{letter-spacing:0.02em;}.cls-6{letter-spacing:0.04em;}.cls-7{letter-spacing:0em;}.cls-8{font-size:21.21px;}.cls-9{letter-spacing:-0.01em;}.cls-10{letter-spacing:-0.02em;}.cls-11{letter-spacing:-0.08em;}.cls-12{letter-spacing:-0.03em;}.cls-13{letter-spacing:-0.02em;}.cls-14{font-size:23px;}.cls-15{letter-spacing:-0.04em;}.cls-16{letter-spacing:0em;}.cls-17{letter-spacing:-0.05em;}.cls-18{letter-spacing:0.01em;}.cls-19{letter-spacing:-0.01em;}.cls-20{letter-spacing:0.03em;}.cls-21{letter-spacing:-0.02em;}.cls-22{letter-spacing:-0.07em;}.cls-23{letter-spacing:0.02em;}.cls-24{letter-spacing:0.04em;}.cls-25{fill:#f7691e;}.cls-26{opacity:0.5;}.cls-27{fill:#e6e6e6;}.cls-28{fill:#8c6239;}.cls-29{fill:#c69c6d;}.cls-30{fill:#998675;}</style></defs><title>자산 16</title><g id="레이어_2" data-name="레이어 2"><g id="레이어_1-2" data-name="레이어 1"><rect class="cls-1" width="646" height="311"/><rect class="cls-2" x="328.48" y="65" width="136.52" height="216" rx="9.65" ry="9.65"/><rect class="cls-3" x="182" y="65" width="136.52" height="216" rx="9.65" ry="9.65"/><text class="cls-4" transform="translate(188.68 85.91) scale(0.92 1)">Mem<tspan class="cls-5" x="42.33" y="0">o</tspan><tspan class="cls-6" x="52.52" y="0">r</tspan><tspan x="62.11" y="0">y He</tspan><tspan class="cls-7" x="103.96" y="0">a</tspan><tspan x="114.83" y="0">p</tspan></text><text class="cls-8" transform="translate(334.48 86.71) scale(0.92 1)">C<tspan class="cls-9" x="12.45" y="0">a</tspan><tspan class="cls-10" x="23.65" y="0">l</tspan><tspan x="29.7" y="0">l S</tspan><tspan class="cls-11" x="56.66" y="0">t</tspan><tspan class="cls-12" x="64.67" y="0">a</tspan><tspan class="cls-13" x="75.39" y="0">c</tspan><tspan x="85.49" y="0">k</tspan></text><text class="cls-14" transform="translate(231.5 46.35)"><tspan class="cls-15">J</tspan><tspan class="cls-16" x="11.84" y="0">a</tspan><tspan class="cls-17" x="24.07" y="0">v</tspan><tspan class="cls-18" x="33.52" y="0">a</tspan><tspan class="cls-19" x="46.13" y="0">s</tspan><tspan x="55.81" y="0">c</tspan><tspan class="cls-20" x="67.14" y="0">r</tspan><tspan class="cls-21" x="77.82" y="0">i</tspan><tspan class="cls-22" x="83.03" y="0">p</tspan><tspan x="93.63" y="0">t E</tspan><tspan class="cls-23" x="125.52" y="0">n</tspan><tspan class="cls-24" x="137.62" y="0">g</tspan><tspan x="150.55" y="0">i</tspan><tspan class="cls-23" x="156.3" y="0">n</tspan><tspan x="168.39" y="0">e</tspan></text><rect class="cls-25" x="339" y="195" width="115" height="20" rx="1.41" ry="1.41"/><rect class="cls-25" x="339" y="223" width="115" height="20" rx="1.42" ry="1.42"/><rect class="cls-25" x="339" y="251" width="115" height="20" rx="1.42" ry="1.42"/><g class="cls-26"><path class="cls-27" d="M8.92,281.89a1.1,1.1,0,0,1,1.19-1.11,1.1,1.1,0,0,1,1.19,1.11A1.13,1.13,0,0,1,10.11,283,1.13,1.13,0,0,1,8.92,281.89Zm.31,3.22H11v10.2H9.23Z"/><path class="cls-27" d="M14.41,285.11h1.42l.15,1.47H16a4.85,4.85,0,0,1,3.42-1.72c2.15,0,3.12,1.38,3.12,4v6.46H20.85v-6.24c0-1.9-.58-2.72-1.93-2.72-1,0-1.76.54-2.79,1.57v7.39H14.41Z"/><path class="cls-27" d="M25.11,297.27a2.86,2.86,0,0,1,1.5-2.3v-.09a1.88,1.88,0,0,1-.91-1.67,2.46,2.46,0,0,1,1.12-1.9v-.08a3.53,3.53,0,0,1-1.32-2.74,3.62,3.62,0,0,1,3.83-3.63,4,4,0,0,1,1.44.25h3.56v1.33h-2.1a3,3,0,0,1,.83,2.1,3.49,3.49,0,0,1-3.73,3.54,3.75,3.75,0,0,1-1.53-.35,1.52,1.52,0,0,0-.65,1.21c0,.64.42,1.1,1.79,1.1h2c2.37,0,3.56.75,3.56,2.44,0,1.9-2,3.53-5.16,3.53C26.83,300,25.11,299,25.11,297.27Zm7.69-.53c0-.95-.71-1.27-2-1.27H29a5.83,5.83,0,0,1-1.33-.15,2.13,2.13,0,0,0-1,1.71c0,1.1,1.1,1.79,3,1.79S32.8,297.8,32.8,296.74Zm-1.31-8.25a2.17,2.17,0,1,0-4.33,0,2.18,2.18,0,1,0,4.33,0Z"/><path class="cls-27" d="M35.7,297.27a2.86,2.86,0,0,1,1.5-2.3v-.09a1.88,1.88,0,0,1-.91-1.67,2.46,2.46,0,0,1,1.12-1.9v-.08a3.53,3.53,0,0,1-1.32-2.74,3.62,3.62,0,0,1,3.83-3.63,4,4,0,0,1,1.44.25h3.56v1.33h-2.1a3,3,0,0,1,.83,2.1,3.49,3.49,0,0,1-3.73,3.54,3.75,3.75,0,0,1-1.53-.35,1.52,1.52,0,0,0-.65,1.21c0,.64.42,1.1,1.79,1.1h2c2.37,0,3.56.75,3.56,2.44,0,1.9-2,3.53-5.16,3.53C37.42,300,35.7,299,35.7,297.27Zm7.69-.53c0-.95-.71-1.27-2-1.27H39.58a5.83,5.83,0,0,1-1.33-.15,2.13,2.13,0,0,0-1,1.71c0,1.1,1.1,1.79,3,1.79S43.39,297.8,43.39,296.74Zm-1.31-8.25a2.17,2.17,0,1,0-4.33,0,2.18,2.18,0,1,0,4.33,0Z"/><path class="cls-27" d="M46.71,294.26a1.25,1.25,0,1,1,1.25,1.3A1.26,1.26,0,0,1,46.71,294.26Z"/><path class="cls-27" d="M52,281.89a1.2,1.2,0,0,1,2.39,0,1.2,1.2,0,0,1-2.39,0Zm.32,3.22H54v10.2H52.3Z"/><path class="cls-27" d="M56.71,290.22c0-3.4,2.23-5.36,4.73-5.36s4.73,2,4.73,5.36-2.23,5.34-4.73,5.34S56.71,293.6,56.71,290.22Zm7.68,0c0-2.34-1.19-3.93-3-3.93s-2.94,1.59-2.94,3.93,1.19,3.91,2.94,3.91S64.39,292.56,64.39,290.22Z"/></g><rect class="cls-28" x="193" y="126" width="35" height="35" rx="1.41" ry="1.41"/><rect class="cls-29" x="242" y="172" width="35" height="35" rx="1.41" ry="1.41"/><rect class="cls-30" x="210" y="230" width="35" height="35" rx="1.41" ry="1.41"/></g></g></svg>