<svg xmlns="http://www.w3.org/2000/svg" viewBox="0 0 526.3 237.2"><defs><style>.cls-1,.cls-6{fill:#0089b4;}.cls-1,.cls-5{opacity:0.5;}.cls-2{fill:#00aa94;opacity:0.8;}.cls-2,.cls-3{stroke:#000;stroke-miterlimit:10;}.cls-3{fill:none;}.cls-4{fill:#be202d;}</style></defs><title>자산 14</title><g id="레이어_2" data-name="레이어 2"><g id="레이어_1-2" data-name="레이어 1"><path class="cls-1" d="M246.79,209.68,133.85,61.78c-4.65-6.09-12.19-6.12-16.84-.06L3.52,209.42C-4,219.2,1.33,236,12,236l226.43.2C249,236.21,254.28,219.49,246.79,209.68Z"/><path class="cls-1" d="M522.79,210.68,409.85,62.78c-4.65-6.09-12.19-6.12-16.84-.06L279.52,210.42C272,220.2,277.33,237,288,237l226.43.2C525,237.21,530.28,220.49,522.79,210.68Z"/><rect class="cls-2" x="235.77" y="0.5" width="52" height="52" rx="26" ry="26" transform="translate(234.42 288.18) rotate(-89.81)"/><path d="M261.16,12,250.94,34.86c-.59,1.31,1.35,2.46,1.94,1.13l10.23-22.86c.58-1.31-1.35-2.46-1.95-1.14Z"/><path d="M261.79,13.62l12.48,22a1.12,1.12,0,0,0,1.94-1.13l-12.47-22a1.13,1.13,0,0,0-1.95,1.14Z"/><path d="M256.3,27.21,267.17,25c1.42-.28.82-2.45-.6-2.17L255.71,25c-1.42.29-.82,2.46.59,2.17Z"/><rect class="cls-2" x="98.77" y="97.29" width="52" height="52" rx="26" ry="26" transform="translate(1.08 247.66) rotate(-89.81)"/><rect class="cls-2" x="372.8" y="86.9" width="52" height="52" rx="26" ry="26" transform="translate(284.6 511.33) rotate(-89.81)"/><rect class="cls-2" x="39.53" y="173.1" width="52" height="52" rx="26" ry="26" transform="translate(-133.78 263.98) rotate(-89.81)"/><rect class="cls-2" x="157.54" y="170.48" width="52" height="52" rx="26" ry="26" transform="translate(-13.54 379.38) rotate(-89.81)"/><line class="cls-3" x1="238.77" y1="39.5" x2="142.83" y2="104.35"/><line class="cls-3" x1="286.77" y1="35.5" x2="381.86" y2="92.85"/><line class="cls-3" x1="105.91" y1="141.03" x2="72.61" y2="174.12"/><line class="cls-3" x1="146.1" y1="138.81" x2="180.44" y2="170.82"/><rect class="cls-2" x="314.53" y="168.71" width="52" height="52" rx="26" ry="26" transform="translate(144.71 534.61) rotate(-89.81)"/><line class="cls-3" x1="346.61" y1="169.73" x2="382.93" y2="133.65"/><path d="M117.8,111.27l-1.36,23.54c-.11,1.92,2.89,1.92,3,0l1.36-23.54c.11-1.93-2.89-1.92-3,0Z"/><path d="M120.32,112.82c2.83-.41,10.36-.22,8.65,4.42-1.39,3.76-6.23,3.38-9.46,3-1.92-.2-1.9,2.8,0,3,5.1.54,12.11-.35,12.68-6.77.58-6.57-8-7.26-12.66-6.58-1.91.27-1.1,3.16.79,2.89Z"/><path d="M120,124.73a16.48,16.48,0,0,1,6.22-.09c2.1.53,4.51,2.53,3.57,4.94-1.5,3.8-8.3,3.63-11.49,3.24-1.91-.24-1.89,2.77,0,3,4.94.6,14.86-.39,14.72-7.35-.14-7.17-8.75-7.34-13.82-6.63-1.9.26-1.09,3.15.8,2.89Z"/><path d="M59.16,186.76l-.51,21.78c0,1.93,3,1.93,3,0l.51-21.78c.05-1.93-2.95-1.93-3,0Z"/><path d="M60.22,188c4.84,1.68,11.5,3.36,12.84,9.12,1.92,8.3-6.94,10.45-13.07,10.72-1.92.09-1.93,3.09,0,3,7.28-.33,16-2.63,16.27-11.52S67.89,187.5,61,185.12c-1.83-.64-2.61,2.26-.8,2.89Z"/><path d="M177.24,188.34q6.56-.18,13.06-.92c1.9-.21,1.92-3.21,0-3q-6.51.75-13.06.92c-1.92,0-1.93,3,0,3Z"/><path d="M174.23,186.83c0,4.53.17,9,.55,13.57.19,2.26-.23,6.68,1.35,8.55,1.29,1.53,4.39,1.49,6.22,1.6a25.86,25.86,0,0,0,10.3-1.65c1.8-.65,1-3.55-.8-2.89a24.61,24.61,0,0,1-7.34,1.55c-4,.19-6.07-.41-6.49-4.63-.54-5.35-.77-10.72-.79-16.1a1.5,1.5,0,0,0-3,0Z"/><path d="M177,199.72a69.32,69.32,0,0,0,13.65-.9c1.9-.31,1.1-3.2-.79-2.89a65.92,65.92,0,0,1-12.86.79c-1.93-.06-1.93,2.94,0,3Z"/><path d="M333.39,183.79l-1,23.24c-.08,1.93,2.92,1.93,3,0l1-23.24c.09-1.93-2.91-1.92-3,0Z"/><path d="M335.65,185.18a43,43,0,0,0,11.82-.5c1.9-.34,1.1-3.23-.8-2.89a40.29,40.29,0,0,1-11,.39c-1.92-.19-1.91,2.81,0,3Z"/><path d="M336.87,193.55l10.5,0a1.5,1.5,0,0,0,0-3l-10.5,0a1.5,1.5,0,0,0,0,3Z"/><path d="M403,102.4a9.42,9.42,0,0,0-9.58,1.74c-3.58,3.24-3.64,9.4-3.24,13.83.84,9.4,10.39,13.59,16.76,5.82,1.22-1.48-.89-3.62-2.12-2.12-2.06,2.52-5.07,4.27-8.39,2.68s-3.4-6.65-3.3-9.55.08-6,2.11-8.08a6.26,6.26,0,0,1,7-1.43c1.81.66,2.6-2.24.79-2.89Z"/><rect class="cls-2" x="441.77" y="166.5" width="52" height="52" rx="26" ry="26" transform="matrix(0, -1, 1, 0, 273.75, 659.64)"/><line class="cls-3" x1="419.77" y1="128.5" x2="464.68" y2="166.84"/><path d="M472,180.4a9.42,9.42,0,0,0-9.58,1.74c-3.58,3.24-3.64,9.4-3.24,13.83.84,9.4,10.39,13.59,16.76,5.82,1.22-1.48-.89-3.62-2.12-2.12-2.06,2.52-5.07,4.27-8.39,2.68s-3.4-6.65-3.3-9.55.08-6,2.11-8.08a6.26,6.26,0,0,1,7-1.43c1.81.66,2.6-2.24.79-2.89Z"/><path d="M467.72,200a24.42,24.42,0,0,0,7.52-1.32l-1.9-1.45-.64,9.36c-.13,1.93,2.87,1.92,3,0l.64-9.36a1.51,1.51,0,0,0-1.9-1.44,21.43,21.43,0,0,1-6.72,1.21c-1.93,0-1.94,3,0,3Z"/><path class="cls-4" d="M232.57,122.76a307.28,307.28,0,0,1,32.1-42.36h-2.12a139.07,139.07,0,0,1,34.1,39.13,1.5,1.5,0,0,0,2.6-1.51,141.41,141.41,0,0,0-34.58-39.74,1.52,1.52,0,0,0-2.12,0,311.89,311.89,0,0,0-32.57,43c-1,1.64,1.56,3.15,2.59,1.52Z"/><path class="cls-4" d="M293.17,120.81l6.06,3a1.52,1.52,0,0,0,2.26-1.29,29.75,29.75,0,0,1,.64-6.46c.47-1.87-2.43-2.67-2.89-.8a34.09,34.09,0,0,0-.75,7.26l2.25-1.3-6.05-3c-1.73-.86-3.25,1.73-1.52,2.59Z"/><g class="cls-5"><path class="cls-6" d="M110.08,33.32l10-8.08-2.5-1.46a123.91,123.91,0,0,1-11.31,23.1c-1,1.64,1.57,3.15,2.59,1.51a127,127,0,0,0,11.61-23.81c.57-1.56-1.47-2.3-2.51-1.46L108,31.2c-1.5,1.21.63,3.32,2.12,2.12Z"/></g><g class="cls-5"><path class="cls-6" d="M392.06,27.06a23.13,23.13,0,0,1,9.76-9.26l-2.26-1.29c1.09,9.25-6.28,16-12.71,21.53-1.36,1.15.37,3.08,1.81,2.35A41.47,41.47,0,0,1,410.82,36c1.92.14,1.92-2.86,0-3a44.43,44.43,0,0,0-23.67,4.77L389,40.16c7-6,14.77-13.59,13.59-23.65a1.53,1.53,0,0,0-2.26-1.3,26,26,0,0,0-10.83,10.34,1.5,1.5,0,0,0,2.59,1.51Z"/></g></g></g></svg>