<svg xmlns="http://www.w3.org/2000/svg" viewBox="0 0 772.24 300"><defs><style>.cls-1{fill:#d372b4;}.cls-2{opacity:0.5;}.cls-3{fill:#666;}.cls-4{fill:#00aa94;}.cls-4,.cls-5,.cls-6,.cls-7{stroke:#000;stroke-miterlimit:10;}.cls-4,.cls-5,.cls-7,.cls-8{opacity:0.8;}.cls-5{fill:#007694;}.cls-6{fill:none;}.cls-7{fill:#007594;}</style></defs><title>자산 15</title><g id="레이어_2" data-name="레이어 2"><g id="레이어_1-2" data-name="레이어 1"><path class="cls-1" d="M384.49,149.28l23,12.45c.94.51.94,1.36,0,1.89l-23.2,12.87c-1.53.85-4.15.28-4.15-.91l.17-25.33C380.35,149.07,383,148.45,384.49,149.28Z"/><g class="cls-2"><path class="cls-3" d="M702,275.54a1.08,1.08,0,1,1,1.08,1A1,1,0,0,1,702,275.54Zm.29,2.91h1.56v9.23h-1.56Z"/><path class="cls-3" d="M707,278.45h1.29l.13,1.33h.05a4.43,4.43,0,0,1,3.1-1.56c2,0,2.82,1.26,2.82,3.61v5.85h-1.56V282c0-1.73-.52-2.46-1.74-2.46a3.5,3.5,0,0,0-2.53,1.42v6.68H707Z"/><path class="cls-3" d="M716.67,289.46a2.6,2.6,0,0,1,1.36-2.09v-.08a1.7,1.7,0,0,1-.83-1.51,2.19,2.19,0,0,1,1-1.71V284a3.22,3.22,0,0,1-1.2-2.48,3.28,3.28,0,0,1,3.47-3.29,3.65,3.65,0,0,1,1.3.23H725v1.2h-1.89a2.68,2.68,0,0,1,.75,1.9,3.15,3.15,0,0,1-3.38,3.2,3.34,3.34,0,0,1-1.38-.31,1.37,1.37,0,0,0-.59,1.09c0,.59.38,1,1.62,1h1.8c2.14,0,3.22.67,3.22,2.2,0,1.72-1.81,3.19-4.66,3.19C718.23,291.93,716.67,291.05,716.67,289.46Zm7-.49c0-.85-.64-1.14-1.86-1.14h-1.59a5.27,5.27,0,0,1-1.2-.14,1.93,1.93,0,0,0-.94,1.55c0,1,1,1.62,2.68,1.62S723.63,289.94,723.63,289Zm-1.18-7.46a2,2,0,1,0-3.92,0,2,2,0,1,0,3.92,0Z"/><path class="cls-3" d="M726.26,289.46a2.59,2.59,0,0,1,1.35-2.09v-.08a1.7,1.7,0,0,1-.83-1.51,2.19,2.19,0,0,1,1-1.71V284a3.22,3.22,0,0,1-1.2-2.48,3.29,3.29,0,0,1,3.47-3.29,3.65,3.65,0,0,1,1.3.23h3.22v1.2H732.7a2.68,2.68,0,0,1,.75,1.9,3.15,3.15,0,0,1-3.38,3.2,3.34,3.34,0,0,1-1.38-.31,1.36,1.36,0,0,0-.58,1.09c0,.59.38,1,1.61,1h1.8c2.15,0,3.23.67,3.23,2.2,0,1.72-1.82,3.19-4.67,3.19C727.82,291.93,726.26,291.05,726.26,289.46Zm7-.49c0-.85-.65-1.14-1.87-1.14h-1.59a5.27,5.27,0,0,1-1.2-.14,1.93,1.93,0,0,0-.94,1.55c0,1,1,1.62,2.68,1.62S733.22,289.94,733.22,289ZM732,281.51a2,2,0,1,0-3.92,0,2,2,0,1,0,3.92,0Z"/><path class="cls-3" d="M736.22,286.73a1.13,1.13,0,1,1,1.13,1.18A1.14,1.14,0,0,1,736.22,286.73Z"/><path class="cls-3" d="M741,275.54a1.08,1.08,0,0,1,2.16,0,1.08,1.08,0,0,1-2.16,0Zm.28,2.91h1.56v9.23h-1.56Z"/><path class="cls-3" d="M745.27,283.08c0-3.08,2-4.86,4.27-4.86s4.28,1.78,4.28,4.86-2,4.83-4.28,4.83S745.27,286.14,745.27,283.08Zm6.94,0c0-2.12-1.08-3.56-2.67-3.56s-2.66,1.44-2.66,3.56,1.08,3.53,2.66,3.53S752.21,285.2,752.21,283.08Z"/></g><rect class="cls-4" x="148.74" y="0.5" width="52" height="52" rx="26" ry="26" transform="translate(147.68 201.16) rotate(-89.81)"/><rect class="cls-4" x="59.75" y="86.29" width="52" height="52" rx="26" ry="26" transform="translate(-26.82 197.67) rotate(-89.81)"/><rect class="cls-4" x="0.5" y="162.1" width="52" height="52" rx="26" ry="26" transform="translate(-161.68 213.98) rotate(-89.81)"/><rect class="cls-5" x="118.51" y="159.48" width="52" height="52" rx="26" ry="26" transform="translate(-41.44 329.39) rotate(-89.81)"/><line class="cls-6" x1="155.74" y1="44.5" x2="103.81" y2="93.35"/><line class="cls-6" x1="66.89" y1="130.03" x2="33.58" y2="163.12"/><line class="cls-6" x1="107.07" y1="127.81" x2="141.41" y2="159.82"/><rect class="cls-7" x="71.74" y="247.5" width="52" height="52" rx="26" ry="26" transform="translate(-176.07 370.36) rotate(-89.81)"/><rect class="cls-7" x="169.74" y="245.5" width="52" height="52" rx="26" ry="26" transform="translate(-76.39 466.36) rotate(-89.81)"/><line class="cls-6" x1="126.89" y1="205.03" x2="97.74" y2="247.5"/><line class="cls-6" x1="164.74" y1="202.5" x2="195.74" y2="245.5"/><path d="M142.47,178v15.83a1.13,1.13,0,0,0,2.25,0V178a1.13,1.13,0,0,0-2.25,0Z"/><path d="M136,180.92c2.35,1.74,4.59,3.58,6.76,5.53l.5-1.88a23.84,23.84,0,0,0-7.75,5.08c-1,1,.56,2.61,1.59,1.59a21,21,0,0,1,6.76-4.5,1.14,1.14,0,0,0,.49-1.88q-3.47-3.11-7.21-5.88c-1.16-.86-2.29,1.09-1.14,1.94Z"/><path d="M150.53,178.71c-2.35,2.2-4.77,4.3-7.29,6.3a1.13,1.13,0,0,0,.23,1.77c2.61,1.43,4.65,3.71,7.36,4.94,1.31.59,2.45-1.35,1.14-1.94-2.7-1.23-4.76-3.52-7.37-4.94l.23,1.77c2.52-2,4.95-4.1,7.29-6.31,1-1-.54-2.58-1.59-1.59Z"/><path d="M82,102.84l.94,19c.07,1.44,2.32,1.45,2.25,0l-.94-19c-.07-1.44-2.32-1.45-2.25,0Z"/><path d="M74.83,113.09q9.39-.27,18.74-1.13c1.43-.13,1.45-2.38,0-2.25q-9.36.86-18.74,1.13a1.13,1.13,0,0,0,0,2.25Z"/><path d="M166.54,28.08A141.74,141.74,0,0,0,184,27.13c1.42-.17,1.43-2.42,0-2.25a141.74,141.74,0,0,1-17.47.95,1.13,1.13,0,0,0,0,2.25Z"/><rect class="cls-4" x="238.74" y="85.5" width="52" height="52" rx="26" ry="26" transform="translate(152.38 375.88) rotate(-89.81)"/><line class="cls-6" x1="195.74" y1="42.5" x2="251.74" y2="88.5"/><rect class="cls-4" x="629.74" y="26.5" width="52" height="52" rx="26" ry="26" transform="translate(601.11 708.07) rotate(-89.81)"/><rect class="cls-4" x="540.75" y="112.29" width="52" height="52" rx="26" ry="26" transform="translate(426.62 704.58) rotate(-89.81)"/><rect class="cls-4" x="481.5" y="188.1" width="52" height="52" rx="26" ry="26" transform="translate(291.75 720.9) rotate(-89.81)"/><rect class="cls-7" x="599.51" y="185.48" width="52" height="52" rx="26" ry="26" transform="translate(412 836.3) rotate(-89.81)"/><line class="cls-6" x1="636.74" y1="70.5" x2="584.81" y2="119.35"/><line class="cls-6" x1="547.89" y1="156.03" x2="514.58" y2="189.12"/><line class="cls-6" x1="588.07" y1="153.81" x2="622.41" y2="185.82"/><path d="M563,128.84l.94,19c.07,1.44,2.32,1.45,2.25,0l-.94-19c-.07-1.44-2.32-1.45-2.25,0Z"/><path d="M555.83,139.09q9.39-.27,18.74-1.13c1.43-.13,1.45-2.38,0-2.25q-9.36.85-18.74,1.13a1.13,1.13,0,0,0,0,2.25Z"/><path d="M647.54,54.08A141.74,141.74,0,0,0,665,53.13c1.42-.17,1.43-2.42,0-2.25a141.74,141.74,0,0,1-17.47.95,1.13,1.13,0,0,0,0,2.25Z"/><rect class="cls-4" x="719.74" y="111.5" width="52" height="52" rx="26" ry="26" transform="translate(605.82 882.79) rotate(-89.81)"/><line class="cls-6" x1="676.74" y1="68.5" x2="732.74" y2="114.5"/><g class="cls-8"><path d="M260.24,105.16l8-8.14-2.5-1.46A172.67,172.67,0,0,0,262.79,122c-.07,1.93,2.93,1.93,3,0a167.21,167.21,0,0,1,2.83-25.64,1.51,1.51,0,0,0-2.51-1.46l-8,8.14c-1.35,1.38.77,3.5,2.12,2.12Z"/></g><g class="cls-8"><path d="M741.24,134.16l8-8.14-2.5-1.46A172.67,172.67,0,0,0,743.79,151c-.07,1.93,2.93,1.93,3,0a167.21,167.21,0,0,1,2.83-25.64,1.51,1.51,0,0,0-2.51-1.46l-8,8.14c-1.35,1.38.77,3.5,2.12,2.12Z"/></g><g class="cls-8"><path d="M91.05,266.91c2.32-3.8,11.13-4.57,8.38,2.63a8.41,8.41,0,0,1-5.34,4.85l1.9,1.45a7.28,7.28,0,0,1,5,3.68q.47,3.6-2.86,6.17c-1.29.54-5.85,1-6.82-.48s-3.65-.1-2.59,1.52c3.06,4.66,12.84,2.75,14.75-2.24,2.43-6.4-2.51-13.8-9.72-10.54a1.51,1.51,0,0,0-.74,1.3l-.05.59a1.52,1.52,0,0,0,1.9,1.45c4.64-1.31,11.27-8.72,7.76-13.66-3.74-5.26-11.34-2.89-14.19,1.77-1,1.65,1.59,3.16,2.59,1.51Z"/></g><g class="cls-8"><path d="M189,268.87c.84-2,4.41-7.07,6.16-3.46.7,1.44-.68,6-.91,7.4-.69,4.2-1.34,8.75-3.91,12.26-1,1.3.84,2.68,2,2.05l14.65-7.64c1.71-.9.2-3.49-1.51-2.59l-14.65,7.64,2,2.05c2.74-3.73,3.47-8.5,4.22-13,.47-2.85,2.46-9.32.71-11.85-3.34-4.83-10.56,3.44-11.75,6.31-.74,1.78,2.16,2.55,2.89.8Z"/></g><g class="cls-8"><path d="M18.64,182.71q6.32-3.75,12.89-7l-2.05-2.05c-3.7,8.18-4.53,17.39-6.1,26.16-.34,1.88,2.55,2.69,2.89.79,1.51-8.42,2.24-17.56,5.8-25.43A1.52,1.52,0,0,0,30,173.13q-6.59,3.24-12.89,7a1.5,1.5,0,0,0,1.51,2.6Z"/></g><g class="cls-8"><path d="M501.64,209.71q6.32-3.75,12.89-7l-2-2.05c-3.7,8.18-4.53,17.39-6.1,26.16-.34,1.88,2.55,2.69,2.89.79,1.51-8.42,2.24-17.56,5.8-25.43a1.52,1.52,0,0,0-2.05-2.06q-6.58,3.24-12.89,7a1.5,1.5,0,0,0,1.51,2.6Z"/></g><g class="cls-8"><path d="M627.12,195c-5.21,3.69-10.24,9.81-9.88,16.58.27,5.22,2.6,12.19,8.45,13.15,2.67.44,5.35.42,6.7-2.09,1.28-2.36,1.91-6.22,1-8.83-2.13-5.91-10.54-3.86-14.82-1.89-1.75.8-.23,3.39,1.52,2.59a13.62,13.62,0,0,1,5.85-1.51c2.83.12,6,4.4,4.25,7-3.58,5.43-8.33-1.49-9.29-5.24-1.78-7,2.14-13.17,7.77-17.15,1.56-1.11.06-3.71-1.52-2.59Z"/></g></g></g></svg>