<svg xmlns="http://www.w3.org/2000/svg" viewBox="0 0 737.58 236.93"><defs><style>.cls-1,.cls-6{fill:#00aa94;opacity:0.8;}.cls-2{fill:#b2ecff;}.cls-3,.cls-7{fill:none;}.cls-3,.cls-6,.cls-7{stroke:#000;stroke-miterlimit:10;}.cls-3{stroke-width:0.25px;}.cls-4{opacity:0.5;}.cls-5{fill:#666;}</style></defs><title>자산 15</title><g id="레이어_2" data-name="레이어 2"><g id="레이어_1-2" data-name="레이어 1"><path class="cls-1" d="M719.68,97.61v33.94c0,1.35-.78,2.45-1.74,2.45H679c-1,0-1.74-1.1-1.74-2.45V97.61c0-1.36.78-2.45,1.74-2.45h38.91C718.9,95.16,719.68,96.25,719.68,97.61Z"/><path class="cls-2" d="M704.9,106.9h38.84a0,0,0,0,1,0,0v11.35a4,4,0,0,1-4,4H708.35a3.45,3.45,0,0,1-3.45-3.45V106.9a0,0,0,0,1,0,0Z" transform="translate(609.75 838.9) rotate(-90)"/><path class="cls-2" d="M656.77,106.9h31.39a4,4,0,0,1,4,4v11.35a0,0,0,0,1,0,0H653.31a0,0,0,0,1,0,0v-11.9a3.45,3.45,0,0,1,3.45-3.45Z" transform="translate(558.16 787.31) rotate(-90)"/><line class="cls-3" x1="716.78" y1="133.92" x2="730" y2="96"/><line class="cls-3" x1="667" y1="133" x2="680.28" y2="95.25"/><path class="cls-1" d="M468.68,194.61v33.94c0,1.35-.78,2.45-1.74,2.45H428c-1,0-1.74-1.1-1.74-2.45V194.61c0-1.36.78-2.45,1.74-2.45h38.91C467.9,192.16,468.68,193.25,468.68,194.61Z"/><path class="cls-2" d="M453.9,203.9h38.84a0,0,0,0,1,0,0v11.35a4,4,0,0,1-4,4H457.35a3.45,3.45,0,0,1-3.45-3.45V203.9A0,0,0,0,1,453.9,203.9Z" transform="translate(261.75 684.9) rotate(-90)"/><path class="cls-2" d="M405.77,203.9h31.39a4,4,0,0,1,4,4v11.35a0,0,0,0,1,0,0H402.31a0,0,0,0,1,0,0v-11.9A3.45,3.45,0,0,1,405.77,203.9Z" transform="translate(210.16 633.31) rotate(-90)"/><line class="cls-3" x1="465.78" y1="230.92" x2="479" y2="193"/><line class="cls-3" x1="416" y1="230" x2="429.28" y2="192.25"/><g class="cls-4"><path class="cls-5" d="M685.78,220.54a1.08,1.08,0,0,1,2.16,0,1.08,1.08,0,0,1-2.16,0Zm.29,2.91h1.56v9.23h-1.56Z"/><path class="cls-5" d="M690.74,223.45H692l.13,1.33h.05a4.43,4.43,0,0,1,3.1-1.56c1.94,0,2.82,1.26,2.82,3.61v5.85h-1.57V227c0-1.73-.52-2.46-1.74-2.46a3.48,3.48,0,0,0-2.52,1.42v6.68h-1.57Z"/><path class="cls-5" d="M700.43,234.46a2.59,2.59,0,0,1,1.35-2.09v-.08a1.69,1.69,0,0,1-.82-1.51,2.2,2.2,0,0,1,1-1.71V229a3.22,3.22,0,0,1-1.19-2.48,3.28,3.28,0,0,1,3.46-3.29,3.75,3.75,0,0,1,1.31.23h3.22v1.2h-1.9a2.64,2.64,0,0,1,.75,1.9,3.15,3.15,0,0,1-3.38,3.2,3.3,3.3,0,0,1-1.37-.31,1.34,1.34,0,0,0-.59,1.09c0,.59.38,1,1.62,1h1.79c2.15,0,3.23.67,3.23,2.2,0,1.72-1.82,3.19-4.67,3.19C702,236.93,700.43,236.05,700.43,234.46Zm7-.49c0-.85-.65-1.14-1.86-1.14h-1.6a5.27,5.27,0,0,1-1.2-.14,1.93,1.93,0,0,0-.94,1.55c0,1,1,1.62,2.68,1.62S707.39,234.94,707.39,234Zm-1.18-7.46a2,2,0,1,0-3.93,0,2,2,0,1,0,3.93,0Z"/><path class="cls-5" d="M710,234.46a2.6,2.6,0,0,1,1.36-2.09v-.08a1.7,1.7,0,0,1-.83-1.51,2.2,2.2,0,0,1,1-1.71V229a3.22,3.22,0,0,1-1.19-2.48,3.28,3.28,0,0,1,3.46-3.29,3.75,3.75,0,0,1,1.31.23h3.22v1.2h-1.9a2.65,2.65,0,0,1,.76,1.9,3.16,3.16,0,0,1-3.39,3.2,3.33,3.33,0,0,1-1.37-.31,1.34,1.34,0,0,0-.59,1.09c0,.59.38,1,1.62,1h1.8c2.14,0,3.22.67,3.22,2.2,0,1.72-1.81,3.19-4.67,3.19C711.57,236.93,710,236.05,710,234.46Zm7-.49c0-.85-.65-1.14-1.86-1.14h-1.59a5.21,5.21,0,0,1-1.2-.14,1.93,1.93,0,0,0-.94,1.55c0,1,1,1.62,2.67,1.62S717,234.94,717,234Zm-1.18-7.46a2,2,0,1,0-3.93,0,2,2,0,1,0,3.93,0Z"/><path class="cls-5" d="M720,231.73a1.13,1.13,0,1,1,1.13,1.18A1.14,1.14,0,0,1,720,231.73Z"/><path class="cls-5" d="M724.74,220.54a1.08,1.08,0,0,1,2.16,0,1.08,1.08,0,0,1-2.16,0Zm.29,2.91h1.56v9.23H725Z"/><path class="cls-5" d="M729,228.08c0-3.08,2-4.86,4.28-4.86s4.28,1.78,4.28,4.86-2,4.83-4.28,4.83S729,231.14,729,228.08Zm6.94,0c0-2.12-1.07-3.56-2.66-3.56s-2.66,1.44-2.66,3.56,1.07,3.53,2.66,3.53S736,230.2,736,228.08Z"/></g><rect class="cls-6" x="145.5" y="0.5" width="52" height="52" rx="26" ry="26" transform="translate(144.44 197.91) rotate(-89.81)"/><path d="M170.89,12,160.67,34.86c-.59,1.31,1.35,2.46,1.94,1.13l10.23-22.86c.58-1.31-1.36-2.46-2-1.14Z"/><path d="M171.52,13.62l12.48,22a1.12,1.12,0,0,0,1.94-1.13l-12.47-22a1.13,1.13,0,0,0-1.95,1.14Z"/><path d="M166,27.21,176.9,25c1.41-.28.81-2.45-.6-2.17L165.43,25c-1.41.29-.81,2.46.6,2.17Z"/><rect class="cls-6" x="57.5" y="84.29" width="52" height="52" rx="26" ry="26" transform="translate(-27.06 193.43) rotate(-89.81)"/><rect class="cls-6" x="0.5" y="171.5" width="52" height="52" rx="26" ry="26" transform="translate(-171.09 223.36) rotate(-89.81)"/><line class="cls-7" x1="68.64" y1="132.03" x2="38.5" y2="174.5"/><line class="cls-7" x1="98.5" y1="131.5" x2="120.5" y2="174.5"/><path d="M76.53,98.27l-1.36,23.54c-.11,1.92,2.89,1.92,3,0l1.36-23.54c.11-1.93-2.89-1.92-3,0Z"/><path d="M79.05,99.82c2.83-.41,10.36-.22,8.65,4.42-1.39,3.76-6.23,3.38-9.46,3-1.92-.2-1.9,2.8,0,3,5.1.54,12.1-.35,12.68-6.77.58-6.57-8-7.26-12.67-6.58-1.9.27-1.09,3.16.8,2.89Z"/><path d="M78.71,111.73a16.48,16.48,0,0,1,6.22-.09c2.1.53,4.51,2.53,3.57,4.94-1.5,3.8-8.3,3.63-11.49,3.24-1.91-.24-1.89,2.77,0,3,4.94.6,14.85-.39,14.72-7.35-.14-7.17-8.75-7.34-13.82-6.63-1.9.26-1.09,3.15.8,2.89Z"/><rect class="cls-6" x="241.5" y="84.29" width="52" height="52" rx="26" ry="26" transform="translate(156.34 377.43) rotate(-89.81)"/><line class="cls-7" x1="148.5" y1="38.5" x2="90.5" y2="85.5"/><line class="cls-7" x1="248.5" y1="92.5" x2="194.51" y2="38.28"/><path d="M271.68,98.4a9.42,9.42,0,0,0-9.58,1.74c-3.58,3.24-3.64,9.4-3.24,13.83.84,9.4,10.39,13.59,16.76,5.82,1.22-1.48-.89-3.62-2.12-2.12-2.06,2.52-5.07,4.27-8.39,2.68s-3.4-6.65-3.3-9.55.08-6,2.11-8.08a6.25,6.25,0,0,1,7-1.43c1.82.66,2.61-2.24.8-2.89Z"/><path d="M702.68,101.4a9.42,9.42,0,0,0-9.58,1.74c-3.58,3.24-3.64,9.4-3.24,13.83.84,9.4,10.39,13.59,16.76,5.82,1.22-1.48-.89-3.62-2.12-2.12-2.06,2.52-5.07,4.27-8.39,2.68s-3.4-6.65-3.3-9.55.08-6,2.11-8.08a6.25,6.25,0,0,1,7-1.43c1.82.66,2.61-2.24.8-2.89Z"/><path d="M20,188c4.84,1.68,11.5,3.36,12.84,9.12,1.92,8.3-6.95,10.45-13.07,10.72-1.92.09-1.93,3.09,0,3,7.28-.33,16-2.63,16.27-11.52s-8.37-11.83-15.24-14.21c-1.83-.64-2.62,2.26-.8,2.89Z"/><path d="M17.89,186.76l-.51,21.78c0,1.93,3,1.93,3,0l.51-21.78c0-1.93-3-1.93-3,0Z"/><rect class="cls-6" x="102.5" y="173.5" width="52" height="52" rx="26" ry="26" transform="translate(-71.42 327.35) rotate(-89.81)"/><path d="M122.21,191.36q6.55-.18,13.06-.92c1.9-.21,1.92-3.21,0-3q-6.51.75-13.06.92c-1.93,0-1.94,3,0,3Z"/><path d="M119.2,189.85c0,4.53.17,9.05.55,13.57.19,2.26-.24,6.68,1.34,8.55,1.29,1.53,4.39,1.49,6.22,1.6a25.86,25.86,0,0,0,10.3-1.65c1.8-.65,1-3.55-.8-2.89a24.54,24.54,0,0,1-7.33,1.55c-4,.19-6.08-.41-6.5-4.63-.54-5.35-.77-10.72-.78-16.1a1.5,1.5,0,0,0-3,0Z"/><path d="M122,202.74a69.32,69.32,0,0,0,13.65-.9c1.9-.31,1.09-3.2-.8-2.89a65.81,65.81,0,0,1-12.85.79c-1.93-.06-1.93,2.94,0,3Z"/><path class="cls-1" d="M623.68,6.45V40.39c0,1.36-.78,2.45-1.74,2.45H583c-1,0-1.74-1.09-1.74-2.45V6.45c0-1.35.78-2.45,1.74-2.45h38.91C622.9,4,623.68,5.1,623.68,6.45Z"/><path class="cls-2" d="M608.9,15.75h38.84a0,0,0,0,1,0,0V27.1a4,4,0,0,1-4,4H612.35a3.45,3.45,0,0,1-3.45-3.45V15.75a0,0,0,0,1,0,0Z" transform="translate(604.9 651.75) rotate(-90)"/><path class="cls-2" d="M560.77,15.75h31.39a4,4,0,0,1,4,4V31.1a0,0,0,0,1,0,0H557.31a0,0,0,0,1,0,0V19.2A3.45,3.45,0,0,1,560.77,15.75Z" transform="translate(553.31 600.16) rotate(-90)"/><line class="cls-7" x1="521.5" y1="87.5" x2="576.58" y2="25.39"/><path class="cls-1" d="M536.68,97.29v33.94c0,1.35-.78,2.45-1.74,2.45H496c-1,0-1.74-1.1-1.74-2.45V97.29c0-1.36.78-2.46,1.74-2.46h38.91C535.9,94.83,536.68,95.93,536.68,97.29Z"/><path class="cls-2" d="M521.9,106.58h38.84a0,0,0,0,1,0,0v11.35a4,4,0,0,1-4,4H525.35a3.45,3.45,0,0,1-3.45-3.45v-11.9A0,0,0,0,1,521.9,106.58Z" transform="translate(427.07 655.58) rotate(-90)"/><path class="cls-2" d="M473.77,106.58h31.39a4,4,0,0,1,4,4v11.35a0,0,0,0,1,0,0H470.31a0,0,0,0,1,0,0V110A3.45,3.45,0,0,1,473.77,106.58Z" transform="translate(375.48 603.99) rotate(-90)"/><path class="cls-1" d="M590.68,194.61v33.94c0,1.35-.78,2.45-1.74,2.45H550c-1,0-1.74-1.1-1.74-2.45V194.61c0-1.36.78-2.45,1.74-2.45h38.91C589.9,192.16,590.68,193.25,590.68,194.61Z"/><path class="cls-2" d="M575.9,203.9h38.84a0,0,0,0,1,0,0v11.35a4,4,0,0,1-4,4H579.35a3.45,3.45,0,0,1-3.45-3.45V203.9a0,0,0,0,1,0,0Z" transform="translate(383.75 806.9) rotate(-90)"/><path class="cls-2" d="M527.77,203.9h31.39a4,4,0,0,1,4,4v11.35a0,0,0,0,1,0,0H524.31a0,0,0,0,1,0,0v-11.9A3.45,3.45,0,0,1,527.77,203.9Z" transform="translate(332.16 755.31) rotate(-90)"/><path d="M600.89,11,590.67,33.86c-.59,1.31,1.35,2.46,1.94,1.13l10.23-22.86c.58-1.31-1.36-2.46-2-1.14Z"/><path d="M601.52,12.62l12.48,22a1.12,1.12,0,0,0,1.94-1.13l-12.47-22a1.13,1.13,0,0,0-2,1.14Z"/><path d="M596,26.21,606.9,24c1.41-.28.81-2.45-.6-2.17L595.43,24c-1.41.29-.81,2.46.6,2.17Z"/><path d="M508.53,102.27l-1.36,23.54c-.11,1.92,2.89,1.92,3,0l1.36-23.54c.11-1.93-2.89-1.92-3,0Z"/><path d="M511.05,103.82c2.83-.41,10.36-.22,8.65,4.42-1.39,3.76-6.23,3.38-9.46,3-1.92-.2-1.9,2.8,0,3,5.1.54,12.1-.35,12.68-6.77.58-6.57-8-7.26-12.67-6.58-1.9.27-1.09,3.16.8,2.89Z"/><path d="M510.71,115.73a16.48,16.48,0,0,1,6.22-.09c2.1.53,4.51,2.53,3.57,4.94-1.5,3.8-8.3,3.63-11.49,3.24-1.91-.24-1.89,2.77,0,3,4.94.6,14.85-.39,14.72-7.35-.14-7.17-8.75-7.34-13.82-6.63-1.9.26-1.09,3.15.8,2.89Z"/><line class="cls-7" x1="446.5" y1="187.5" x2="489.58" y2="114.39"/><line class="cls-7" x1="572.5" y1="186.5" x2="541.16" y2="115.02"/><path d="M438.89,201.76l-.51,21.78c0,1.93,3,1.93,3,0l.51-21.78c0-1.93-3-1.93-3,0Z"/><path d="M440,202c4.84,1.68,11.5,3.36,12.84,9.12,1.92,8.3-7,10.45-13.07,10.72-1.92.09-1.93,3.09,0,3,7.28-.33,16-2.63,16.27-11.52s-8.37-11.83-15.24-14.21c-1.83-.64-2.62,2.26-.8,2.89Z"/><path d="M562.21,203.36q6.56-.18,13.06-.92c1.9-.21,1.92-3.21,0-3q-6.51.75-13.06.92c-1.93,0-1.94,3,0,3Z"/><path d="M559.2,201.85c0,4.53.17,9.05.55,13.57.19,2.26-.24,6.68,1.34,8.55,1.29,1.53,4.39,1.49,6.22,1.6a25.86,25.86,0,0,0,10.3-1.65c1.8-.65,1-3.55-.8-2.89a24.54,24.54,0,0,1-7.33,1.55c-4,.19-6.08-.41-6.5-4.63-.54-5.35-.77-10.72-.78-16.1a1.5,1.5,0,0,0-3,0Z"/><path d="M562,214.74a69.32,69.32,0,0,0,13.65-.9c1.9-.31,1.09-3.2-.8-2.89a65.81,65.81,0,0,1-12.85.79c-1.93-.06-1.93,2.94,0,3Z"/><line class="cls-7" x1="693.5" y1="89.5" x2="628.16" y2="26.02"/><polygon points="519.1 82.36 527.58 89.85 519.63 90.38 519.1 82.36"/><polygon points="444.1 180.36 452.58 187.85 444.63 188.38 444.1 180.36"/><polygon points="566.02 186.04 576.66 182.17 573.31 189.41 566.02 186.04"/><polygon points="686.64 90.26 696.04 83.95 694.53 91.78 686.64 90.26"/><line class="cls-3" x1="587.78" y1="230.92" x2="601" y2="193"/><line class="cls-3" x1="538" y1="230" x2="551.28" y2="192.25"/></g></g></svg>