<svg xmlns="http://www.w3.org/2000/svg" viewBox="0 0 1062.24 338"><defs><style>.cls-1{fill:#00aa94;}.cls-1,.cls-2{stroke:#000;stroke-miterlimit:10;}.cls-1,.cls-3,.cls-4{opacity:0.8;}.cls-2{fill:none;}.cls-3{fill:#29abe2;}.cls-4{fill:#0071bc;}.cls-5{opacity:0.5;}.cls-6{fill:#666;}.cls-7{font-size:18px;font-family:NanumGothic, Nanum Gothic;}</style></defs><title>자산 13</title><g id="레이어_2" data-name="레이어 2"><g id="레이어_1-2" data-name="레이어 1"><rect class="cls-1" x="196.74" y="16.5" width="52" height="52" rx="26" ry="26" transform="translate(179.52 265.11) rotate(-89.81)"/><path d="M222.14,28,211.91,50.86c-.58,1.31,1.36,2.46,2,1.13l10.22-22.86c.59-1.31-1.35-2.46-1.94-1.14Z"/><path d="M222.77,29.62l12.48,22a1.12,1.12,0,0,0,1.94-1.13l-12.48-22a1.13,1.13,0,0,0-1.94,1.14Z"/><path d="M217.28,43.21,228.14,41c1.42-.28.82-2.45-.6-2.17L216.68,41c-1.42.29-.82,2.46.6,2.17Z"/><rect class="cls-1" x="59.75" y="113.29" width="52" height="52" rx="26" ry="26" transform="translate(-53.82 224.58) rotate(-89.81)"/><rect class="cls-1" x="333.77" y="102.9" width="52" height="52" rx="26" ry="26" transform="translate(229.7 488.25) rotate(-89.81)"/><rect class="cls-1" x="0.5" y="189.1" width="52" height="52" rx="26" ry="26" transform="translate(-188.68 240.9) rotate(-89.81)"/><rect class="cls-1" x="118.51" y="186.48" width="52" height="52" rx="26" ry="26" transform="translate(-68.44 356.3) rotate(-89.81)"/><line class="cls-2" x1="199.74" y1="55.5" x2="103.81" y2="120.35"/><line class="cls-2" x1="247.74" y1="51.5" x2="342.84" y2="108.85"/><line class="cls-2" x1="66.89" y1="157.03" x2="33.58" y2="190.12"/><line class="cls-2" x1="107.07" y1="154.81" x2="141.41" y2="186.82"/><rect class="cls-1" x="275.51" y="184.71" width="52" height="52" rx="26" ry="26" transform="translate(89.81 511.53) rotate(-89.81)"/><line class="cls-2" x1="307.59" y1="185.73" x2="343.9" y2="149.65"/><path d="M78.78,127.27l-1.37,23.54c-.11,1.92,2.89,1.92,3,0l1.37-23.54c.11-1.93-2.89-1.92-3,0Z"/><path d="M81.3,128.82c2.83-.41,10.36-.22,8.64,4.42-1.39,3.76-6.22,3.38-9.46,3-1.91-.2-1.9,2.8,0,3,5.1.54,12.11-.35,12.68-6.77s-8-7.26-12.66-6.58c-1.9.27-1.09,3.16.8,2.89Z"/><path d="M81,140.73a16.53,16.53,0,0,1,6.23-.09c2.09.53,4.51,2.53,3.56,4.94-1.49,3.8-8.29,3.63-11.48,3.24-1.92-.24-1.9,2.77,0,3,4.93.6,14.85-.39,14.72-7.35-.14-7.17-8.75-7.34-13.83-6.63-1.9.26-1.09,3.15.8,2.89Z"/><path d="M20.13,202.76l-.5,21.78c-.05,1.93,2.95,1.93,3,0l.5-21.78c.05-1.93-2.95-1.93-3,0Z"/><path d="M21.2,204c4.83,1.68,11.49,3.36,12.83,9.12,1.93,8.3-6.94,10.45-13.06,10.72-1.93.09-1.94,3.09,0,3,7.28-.33,16-2.63,16.27-11.52S28.86,203.5,22,201.12c-1.83-.64-2.61,2.26-.79,2.89Z"/><path d="M138.22,204.34q6.56-.18,13.06-.92c1.89-.21,1.92-3.21,0-3q-6.51.75-13.06.92c-1.93,0-1.94,3,0,3Z"/><path d="M135.21,202.83c0,4.53.17,9,.54,13.57.19,2.26-.23,6.68,1.35,8.55,1.29,1.53,4.39,1.49,6.22,1.6a25.86,25.86,0,0,0,10.3-1.65c1.8-.65,1-3.55-.8-2.89a24.61,24.61,0,0,1-7.34,1.55c-4,.19-6.07-.41-6.49-4.63-.54-5.35-.77-10.72-.78-16.1a1.5,1.5,0,0,0-3,0Z"/><path d="M138,215.72a69.37,69.37,0,0,0,13.65-.9c1.9-.31,1.09-3.2-.8-2.89a65.81,65.81,0,0,1-12.85.79c-1.94-.06-1.93,2.94,0,3Z"/><path d="M294.37,199.79l-1,23.24c-.09,1.93,2.91,1.93,3,0l1-23.24c.08-1.93-2.92-1.92-3,0Z"/><path d="M296.62,201.18a43.05,43.05,0,0,0,11.83-.5c1.89-.34,1.09-3.23-.8-2.89a40.37,40.37,0,0,1-11,.39c-1.92-.19-1.91,2.81,0,3Z"/><path d="M297.84,209.55l10.5,0a1.5,1.5,0,0,0,0-3l-10.5,0a1.5,1.5,0,0,0,0,3Z"/><path d="M363.93,118.4a9.41,9.41,0,0,0-9.58,1.74c-3.59,3.24-3.64,9.4-3.25,13.83.85,9.4,10.4,13.59,16.77,5.82,1.21-1.48-.9-3.62-2.12-2.12-2.07,2.52-5.08,4.27-8.4,2.68s-3.39-6.65-3.3-9.55.08-6,2.12-8.08a6.24,6.24,0,0,1,7-1.43c1.82.66,2.6-2.24.8-2.89Z"/><rect class="cls-1" x="402.74" y="182.5" width="52" height="52" rx="26" ry="26" transform="matrix(0, -1, 1, 0, 218.85, 636.56)"/><line class="cls-2" x1="380.74" y1="144.5" x2="425.65" y2="182.84"/><path d="M432.93,196.4a9.41,9.41,0,0,0-9.58,1.74c-3.59,3.24-3.64,9.4-3.25,13.83.85,9.4,10.4,13.59,16.77,5.82,1.21-1.48-.9-3.62-2.12-2.12-2.07,2.52-5.08,4.27-8.4,2.68s-3.39-6.65-3.3-9.55.08-6,2.12-8.08a6.24,6.24,0,0,1,7-1.43c1.82.66,2.6-2.24.8-2.89Z"/><path d="M428.69,216a24.37,24.37,0,0,0,7.52-1.32l-1.9-1.45-.63,9.36c-.13,1.93,2.87,1.92,3,0l.63-9.36a1.5,1.5,0,0,0-1.9-1.44,21.33,21.33,0,0,1-6.72,1.21c-1.93,0-1.94,3,0,3Z"/><rect class="cls-3" x="559.24" y="60" width="263" height="293" rx="9.65" ry="9.65" transform="translate(484.24 897.24) rotate(-90)"/><rect class="cls-4" x="553.24" y="166" width="164" height="154" rx="9.65" ry="9.65" transform="translate(392.24 878.24) rotate(-90)"/><g class="cls-5"><path class="cls-6" d="M1001,301.54a1.08,1.08,0,1,1,1.08,1A1,1,0,0,1,1001,301.54Zm.29,2.91h1.56v9.23h-1.56Z"/><path class="cls-6" d="M1006,304.45h1.29l.13,1.33h.05a4.43,4.43,0,0,1,3.1-1.56c2,0,2.82,1.26,2.82,3.61v5.85h-1.56V308c0-1.73-.52-2.46-1.74-2.46a3.5,3.5,0,0,0-2.53,1.42v6.68H1006Z"/><path class="cls-6" d="M1015.67,315.46a2.6,2.6,0,0,1,1.36-2.09v-.08a1.7,1.7,0,0,1-.83-1.51,2.19,2.19,0,0,1,1-1.71V310a3.22,3.22,0,0,1-1.2-2.48,3.28,3.28,0,0,1,3.47-3.29,3.65,3.65,0,0,1,1.3.23H1024v1.2h-1.89a2.68,2.68,0,0,1,.75,1.9,3.15,3.15,0,0,1-3.38,3.2,3.34,3.34,0,0,1-1.38-.31,1.37,1.37,0,0,0-.59,1.09c0,.59.38,1,1.62,1h1.8c2.14,0,3.22.67,3.22,2.2,0,1.72-1.81,3.19-4.66,3.19C1017.23,317.93,1015.67,317.05,1015.67,315.46Zm7-.49c0-.85-.64-1.14-1.86-1.14h-1.59a5.27,5.27,0,0,1-1.2-.14,1.93,1.93,0,0,0-.94,1.55c0,1,1,1.62,2.68,1.62S1022.63,315.94,1022.63,315Zm-1.18-7.46a2,2,0,1,0-3.92,0,2,2,0,1,0,3.92,0Z"/><path class="cls-6" d="M1025.26,315.46a2.59,2.59,0,0,1,1.35-2.09v-.08a1.7,1.7,0,0,1-.83-1.51,2.19,2.19,0,0,1,1-1.71V310a3.22,3.22,0,0,1-1.2-2.48,3.29,3.29,0,0,1,3.47-3.29,3.65,3.65,0,0,1,1.3.23h3.22v1.2h-1.89a2.68,2.68,0,0,1,.75,1.9,3.15,3.15,0,0,1-3.38,3.2,3.34,3.34,0,0,1-1.38-.31,1.36,1.36,0,0,0-.58,1.09c0,.59.38,1,1.61,1h1.8c2.15,0,3.23.67,3.23,2.2,0,1.72-1.82,3.19-4.67,3.19C1026.82,317.93,1025.26,317.05,1025.26,315.46Zm7-.49c0-.85-.65-1.14-1.87-1.14h-1.59a5.27,5.27,0,0,1-1.2-.14,1.93,1.93,0,0,0-.94,1.55c0,1,1,1.62,2.68,1.62S1032.22,315.94,1032.22,315Zm-1.19-7.46a2,2,0,1,0-3.92,0,2,2,0,1,0,3.92,0Z"/><path class="cls-6" d="M1035.22,312.73a1.13,1.13,0,1,1,1.13,1.18A1.14,1.14,0,0,1,1035.22,312.73Z"/><path class="cls-6" d="M1040,301.54a1.08,1.08,0,0,1,2.16,0,1.08,1.08,0,0,1-2.16,0Zm.28,2.91h1.56v9.23h-1.56Z"/><path class="cls-6" d="M1044.27,309.08c0-3.08,2-4.86,4.27-4.86s4.28,1.78,4.28,4.86-2,4.83-4.28,4.83S1044.27,312.14,1044.27,309.08Zm6.94,0c0-2.12-1.08-3.56-2.67-3.56s-2.66,1.44-2.66,3.56,1.08,3.53,2.66,3.53S1051.21,311.2,1051.21,309.08Z"/></g><rect class="cls-1" x="803.74" y="0.5" width="52" height="52" rx="26" ry="26" transform="translate(800.55 856.15) rotate(-89.81)"/><path d="M829.14,12,818.91,34.86c-.58,1.31,1.36,2.46,2,1.13l10.22-22.86c.59-1.31-1.35-2.46-1.94-1.14Z"/><path d="M829.77,13.62l12.48,22a1.12,1.12,0,0,0,1.94-1.13l-12.48-22a1.13,1.13,0,0,0-1.94,1.14Z"/><path d="M824.28,27.21,835.14,25c1.42-.28.82-2.45-.6-2.17L823.68,25c-1.42.29-.82,2.46.6,2.17Z"/><rect class="cls-1" x="666.75" y="97.29" width="52" height="52" rx="26" ry="26" transform="translate(567.21 815.63) rotate(-89.81)"/><rect class="cls-1" x="940.77" y="86.9" width="52" height="52" rx="26" ry="26" transform="translate(850.73 1079.3) rotate(-89.81)"/><rect class="cls-1" x="607.5" y="173.1" width="52" height="52" rx="26" ry="26" transform="translate(432.35 831.95) rotate(-89.81)"/><rect class="cls-1" x="725.51" y="170.48" width="52" height="52" rx="26" ry="26" transform="translate(552.59 947.35) rotate(-89.81)"/><line class="cls-2" x1="806.74" y1="39.5" x2="710.81" y2="104.35"/><line class="cls-2" x1="854.74" y1="35.5" x2="949.84" y2="92.85"/><line class="cls-2" x1="673.89" y1="141.03" x2="640.58" y2="174.12"/><line class="cls-2" x1="714.07" y1="138.81" x2="748.41" y2="170.82"/><rect class="cls-1" x="882.51" y="168.71" width="52" height="52" rx="26" ry="26" transform="translate(710.84 1102.58) rotate(-89.81)"/><line class="cls-2" x1="914.59" y1="169.73" x2="950.9" y2="133.65"/><path d="M685.78,111.27l-1.37,23.54c-.11,1.92,2.89,1.92,3,0l1.37-23.54c.11-1.93-2.89-1.92-3,0Z"/><path d="M688.3,112.82c2.83-.41,10.36-.22,8.64,4.42-1.39,3.76-6.22,3.38-9.46,3-1.91-.2-1.9,2.8,0,3,5.1.54,12.11-.35,12.68-6.77.59-6.57-8-7.26-12.66-6.58-1.9.27-1.09,3.16.8,2.89Z"/><path d="M688,124.73a16.53,16.53,0,0,1,6.23-.09c2.09.53,4.51,2.53,3.56,4.94-1.49,3.8-8.29,3.63-11.48,3.24-1.92-.24-1.9,2.77,0,3,4.93.6,14.85-.39,14.72-7.35-.14-7.17-8.75-7.34-13.83-6.63-1.9.26-1.09,3.15.8,2.89Z"/><path d="M627.13,186.76l-.5,21.78c0,1.93,3,1.93,3,0l.5-21.78c0-1.93-3-1.93-3,0Z"/><path d="M628.2,188c4.83,1.68,11.49,3.36,12.83,9.12,1.93,8.3-6.94,10.45-13.06,10.72-1.93.09-1.94,3.09,0,3,7.28-.33,16-2.63,16.27-11.52S635.86,187.5,629,185.12c-1.83-.64-2.61,2.26-.79,2.89Z"/><path d="M745.22,188.34q6.56-.18,13.06-.92c1.89-.21,1.92-3.21,0-3q-6.51.75-13.06.92c-1.93,0-1.94,3,0,3Z"/><path d="M742.21,186.83c0,4.53.17,9,.54,13.57.19,2.26-.23,6.68,1.35,8.55,1.29,1.53,4.39,1.49,6.22,1.6a25.86,25.86,0,0,0,10.3-1.65c1.8-.65,1-3.55-.8-2.89a24.61,24.61,0,0,1-7.34,1.55c-4,.19-6.07-.41-6.49-4.63-.54-5.35-.77-10.72-.78-16.1a1.5,1.5,0,0,0-3,0Z"/><path d="M745,199.72a69.37,69.37,0,0,0,13.65-.9c1.9-.31,1.09-3.2-.8-2.89a65.81,65.81,0,0,1-12.85.79c-1.94-.06-1.93,2.94,0,3Z"/><path d="M901.37,183.79l-1,23.24c-.09,1.93,2.91,1.93,3,0l1-23.24c.08-1.93-2.92-1.92-3,0Z"/><path d="M903.62,185.18a43.05,43.05,0,0,0,11.83-.5c1.89-.34,1.09-3.23-.8-2.89a40.37,40.37,0,0,1-11,.39c-1.92-.19-1.91,2.81,0,3Z"/><path d="M904.84,193.55l10.5,0a1.5,1.5,0,0,0,0-3l-10.5,0a1.5,1.5,0,0,0,0,3Z"/><path d="M970.93,102.4a9.41,9.41,0,0,0-9.58,1.74c-3.59,3.24-3.64,9.4-3.25,13.83.85,9.4,10.4,13.59,16.77,5.82,1.21-1.48-.9-3.62-2.12-2.12-2.07,2.52-5.08,4.27-8.4,2.68s-3.39-6.65-3.3-9.55.08-6,2.12-8.08a6.24,6.24,0,0,1,7-1.43c1.82.66,2.6-2.24.8-2.89Z"/><rect class="cls-1" x="1009.74" y="166.5" width="52" height="52" rx="26" ry="26" transform="translate(839.88 1227.61) rotate(-89.81)"/><line class="cls-2" x1="987.74" y1="128.5" x2="1032.65" y2="166.84"/><path d="M1039.93,180.4a9.41,9.41,0,0,0-9.58,1.74c-3.59,3.24-3.64,9.4-3.25,13.83.85,9.4,10.4,13.59,16.77,5.82,1.21-1.48-.9-3.62-2.12-2.12-2.07,2.52-5.08,4.27-8.4,2.68s-3.39-6.65-3.3-9.55.08-6,2.12-8.08a6.24,6.24,0,0,1,7-1.43c1.82.66,2.6-2.24.8-2.89Z"/><path d="M1035.69,200a24.37,24.37,0,0,0,7.52-1.32l-1.9-1.45-.63,9.36c-.13,1.93,2.87,1.92,3,0l.63-9.36a1.5,1.5,0,0,0-1.9-1.44,21.33,21.33,0,0,1-6.72,1.21c-1.93,0-1.94,3,0,3Z"/><rect class="cls-1" x="764.74" y="258.5" width="52" height="52" rx="26" ry="26" transform="translate(503.68 1074.32) rotate(-89.81)"/><line class="cls-2" x1="772.07" y1="213.81" x2="790.74" y2="258.5"/><rect class="cls-1" x="566.74" y="258.5" width="52" height="52" rx="26" ry="26" transform="translate(306.32 876.32) rotate(-89.81)"/><rect class="cls-1" x="647.74" y="258.5" width="52" height="52" rx="26" ry="26" transform="translate(387.06 957.32) rotate(-89.81)"/><line class="cls-2" x1="614.89" y1="216.03" x2="592.74" y2="258.5"/><line class="cls-2" x1="655.07" y1="213.81" x2="673.74" y2="258.5"/><text class="cls-7" transform="translate(551.46 69.43)">서브트리</text><text class="cls-7" transform="translate(560.46 155.43)">서브트리</text><path d="M582.92,272.28a139.7,139.7,0,0,0-3.38,23.2c-.12,1.92,2.88,1.92,3,0a134.31,134.31,0,0,1,3.28-22.4c.43-1.88-2.46-2.68-2.9-.8Z"/><path d="M582.34,286.38a57.49,57.49,0,0,0,13.78-1.27c1.89-.41,1.09-3.3-.8-2.9a53.88,53.88,0,0,1-13,1.17c-1.93-.05-1.93,2.95,0,3Z"/><path d="M595.92,273.71v20.1a1.5,1.5,0,0,0,3,0v-20.1a1.5,1.5,0,0,0-3,0Z"/><path d="M670.74,274.27V296a1.5,1.5,0,0,0,3,0V274.27a1.5,1.5,0,0,0-3,0Z"/><path d="M787.26,275.21h8.93a1.5,1.5,0,0,0,0-3h-8.93a1.5,1.5,0,0,0,0,3Z"/><path d="M790.73,274.27c.14,3.59.16,7.19,0,10.79-.06,1.3.31,4.25-.33,5.38-2.46,4.35-5.32-1.19-5.58-3.33-.23-1.89-3.23-1.92-3,0,.49,4.07,4.51,10.25,9.42,7.53,2.41-1.35,2.21-4.5,2.35-6.89.27-4.49.29-9,.12-13.48-.07-1.93-3.07-1.94-3,0Z"/><text class="cls-7" transform="translate(35.46 34.43)">이진트리</text></g></g></svg>