<svg xmlns="http://www.w3.org/2000/svg" viewBox="0 0 857.58 283.6"><defs><style>.cls-1{fill:#00aa94;opacity:0.8;}.cls-1,.cls-4{stroke:#000;stroke-miterlimit:10;}.cls-2{opacity:0.5;}.cls-3{fill:#666;}.cls-4{fill:none;}</style></defs><title>자산 14</title><g id="레이어_2" data-name="레이어 2"><g id="레이어_1-2" data-name="레이어 1"><rect class="cls-1" x="365.26" y="231.1" width="52" height="52" rx="26" ry="26" transform="translate(132.89 647.51) rotate(-89.81)"/><g class="cls-2"><path class="cls-3" d="M805.78,258.54a1.08,1.08,0,0,1,2.16,0,1.08,1.08,0,0,1-2.16,0Zm.29,2.91h1.56v9.23h-1.56Z"/><path class="cls-3" d="M810.74,261.45H812l.13,1.33h.05a4.43,4.43,0,0,1,3.1-1.56c1.94,0,2.82,1.26,2.82,3.61v5.85h-1.57V265c0-1.72-.52-2.45-1.74-2.45a3.48,3.48,0,0,0-2.52,1.42v6.68h-1.57Z"/><path class="cls-3" d="M820.43,272.46a2.59,2.59,0,0,1,1.35-2.09v-.08a1.69,1.69,0,0,1-.82-1.51,2.2,2.2,0,0,1,1-1.71V267a3.22,3.22,0,0,1-1.19-2.48,3.28,3.28,0,0,1,3.46-3.29,3.75,3.75,0,0,1,1.31.23h3.22v1.2h-1.9a2.64,2.64,0,0,1,.75,1.9,3.15,3.15,0,0,1-3.38,3.2,3.3,3.3,0,0,1-1.37-.31,1.34,1.34,0,0,0-.59,1.09c0,.59.38,1,1.62,1h1.79c2.15,0,3.23.68,3.23,2.21,0,1.72-1.82,3.19-4.67,3.19C822,274.93,820.43,274.05,820.43,272.46Zm7-.49c0-.85-.65-1.14-1.86-1.14h-1.6a5.27,5.27,0,0,1-1.2-.14,1.93,1.93,0,0,0-.94,1.55c0,1,1,1.62,2.68,1.62S827.39,272.94,827.39,272Zm-1.18-7.46a2,2,0,1,0-3.93,0,2,2,0,1,0,3.93,0Z"/><path class="cls-3" d="M830,272.46a2.6,2.6,0,0,1,1.36-2.09v-.08a1.7,1.7,0,0,1-.83-1.51,2.2,2.2,0,0,1,1-1.71V267a3.22,3.22,0,0,1-1.19-2.48,3.28,3.28,0,0,1,3.46-3.29,3.75,3.75,0,0,1,1.31.23h3.22v1.2h-1.9a2.65,2.65,0,0,1,.76,1.9,3.16,3.16,0,0,1-3.39,3.2,3.33,3.33,0,0,1-1.37-.31,1.34,1.34,0,0,0-.59,1.09c0,.59.38,1,1.62,1h1.8c2.14,0,3.22.68,3.22,2.21,0,1.72-1.81,3.19-4.67,3.19C831.57,274.93,830,274.05,830,272.46Zm7-.49c0-.85-.65-1.14-1.86-1.14h-1.59a5.21,5.21,0,0,1-1.2-.14,1.93,1.93,0,0,0-.94,1.55c0,1,1,1.62,2.67,1.62S837,272.94,837,272Zm-1.18-7.46a2,2,0,1,0-3.93,0,2,2,0,1,0,3.93,0Z"/><path class="cls-3" d="M840,269.73a1.13,1.13,0,1,1,1.13,1.18A1.14,1.14,0,0,1,840,269.73Z"/><path class="cls-3" d="M844.74,258.54a1.08,1.08,0,0,1,2.16,0,1.08,1.08,0,0,1-2.16,0Zm.29,2.91h1.56v9.23H845Z"/><path class="cls-3" d="M849,266.08c0-3.08,2-4.86,4.28-4.86s4.28,1.78,4.28,4.86-2,4.83-4.28,4.83S849,269.14,849,266.08Zm6.94,0c0-2.12-1.07-3.56-2.66-3.56s-2.66,1.44-2.66,3.56,1.07,3.53,2.66,3.53S856,268.19,856,266.08Z"/></g><rect class="cls-1" x="597.25" y="0.75" width="52.5" height="52" rx="26" ry="26" transform="translate(594.74 650.16) rotate(-89.82)"/><path d="M622.89,12.11,612.67,35.19c-.58,1.32,1.36,2.46,1.94,1.14l10.23-23.09c.58-1.31-1.36-2.46-2-1.13Z"/><path d="M623.52,13.62l12.48,22a1.12,1.12,0,0,0,1.94-1.13l-12.47-22a1.13,1.13,0,0,0-2,1.14Z"/><path d="M619,27.21,629.9,25c1.41-.28.81-2.45-.6-2.17L618.43,25c-1.41.29-.81,2.46.6,2.17Z"/><rect class="cls-1" x="483.5" y="79.29" width="52" height="52" rx="26" ry="26" transform="translate(402.56 614.45) rotate(-89.81)"/><rect class="cls-1" x="723.53" y="72.9" width="52" height="52" rx="26" ry="26" transform="translate(648.19 848.1) rotate(-89.81)"/><rect class="cls-1" x="424.26" y="155.1" width="52" height="52" rx="26" ry="26" transform="translate(267.7 630.76) rotate(-89.81)"/><rect class="cls-1" x="542.26" y="152.48" width="52" height="52" rx="26" ry="26" transform="matrix(0, -1, 1, 0, 387.94, 746.16)"/><line class="cls-4" x1="599.5" y1="37.5" x2="527.56" y2="86.35"/><line class="cls-4" x1="649.5" y1="29.5" x2="730.5" y2="81.5"/><line class="cls-4" x1="490.64" y1="123.03" x2="457.34" y2="156.12"/><line class="cls-4" x1="530.83" y1="120.81" x2="565.17" y2="152.82"/><rect class="cls-1" x="665.26" y="154.71" width="52" height="52" rx="26" ry="26" transform="translate(508.3 871.38) rotate(-89.81)"/><line class="cls-4" x1="697.34" y1="155.73" x2="733.66" y2="119.65"/><path d="M502.53,93.27l-1.36,23.54c-.11,1.92,2.89,1.92,3,0l1.36-23.54c.11-1.93-2.89-1.92-3,0Z"/><path d="M505.05,94.82c2.83-.41,10.36-.22,8.65,4.42-1.39,3.76-6.23,3.38-9.46,3-1.92-.2-1.9,2.8,0,3,5.1.54,12.1-.35,12.68-6.77.58-6.57-8-7.26-12.67-6.58-1.9.27-1.09,3.16.8,2.89Z"/><path d="M504.71,106.73a16.48,16.48,0,0,1,6.22-.09c2.1.53,4.51,2.53,3.57,4.94-1.5,3.8-8.3,3.63-11.49,3.24-1.91-.24-1.89,2.77,0,3,4.94.6,14.85-.39,14.72-7.35-.14-7.17-8.75-7.34-13.82-6.63-1.9.26-1.09,3.15.8,2.89Z"/><path d="M443.89,168.76l-.51,21.78c0,1.93,3,1.93,3,0l.51-21.78c0-1.93-3-1.93-3,0Z"/><path d="M445,170c4.84,1.68,11.5,3.36,12.84,9.12,1.92,8.3-7,10.45-13.07,10.72-1.92.09-1.93,3.09,0,3,7.28-.33,16-2.63,16.27-11.52s-8.37-11.83-15.24-14.21c-1.83-.64-2.62,2.26-.8,2.89Z"/><path d="M562,170.34q6.56-.18,13.06-.92c1.9-.21,1.92-3.21,0-3q-6.51.75-13.06.92c-1.93,0-1.93,3,0,3Z"/><path d="M559,168.83c0,4.53.17,9,.55,13.57.19,2.26-.23,6.68,1.35,8.55,1.29,1.53,4.38,1.49,6.21,1.6a25.88,25.88,0,0,0,10.31-1.65c1.8-.65,1-3.55-.8-2.89a24.61,24.61,0,0,1-7.34,1.55c-4,.19-6.07-.41-6.49-4.63-.54-5.35-.78-10.72-.79-16.1a1.5,1.5,0,0,0-3,0Z"/><path d="M561.75,181.72a69.32,69.32,0,0,0,13.65-.9c1.9-.31,1.1-3.2-.8-2.89a65.77,65.77,0,0,1-12.85.79c-1.93-.06-1.93,2.94,0,3Z"/><path d="M684.12,169.79l-1,23.24c-.08,1.93,2.92,1.93,3,0l1-23.24c.09-1.93-2.91-1.92-3,0Z"/><path d="M686.37,171.18a43,43,0,0,0,11.83-.5c1.9-.34,1.1-3.23-.8-2.89a40.35,40.35,0,0,1-11,.39c-1.92-.19-1.9,2.81,0,3Z"/><path d="M687.6,179.55l10.5,0a1.5,1.5,0,0,0,0-3l-10.5,0a1.5,1.5,0,0,0,0,3Z"/><path d="M753.68,88.4a9.42,9.42,0,0,0-9.58,1.74c-3.58,3.24-3.64,9.4-3.24,13.83.84,9.4,10.39,13.59,16.76,5.82,1.22-1.48-.89-3.62-2.12-2.12-2.06,2.52-5.07,4.27-8.39,2.68s-3.4-6.65-3.3-9.55.08-6,2.11-8.08a6.25,6.25,0,0,1,7-1.43c1.82.66,2.61-2.24.8-2.89Z"/><rect class="cls-1" x="792.5" y="152.5" width="52" height="52" rx="26" ry="26" transform="translate(637.34 996.42) rotate(-89.81)"/><line class="cls-4" x1="770.5" y1="114.5" x2="815.4" y2="152.84"/><path d="M822.68,166.4a9.42,9.42,0,0,0-9.58,1.74c-3.58,3.24-3.64,9.4-3.24,13.83.84,9.4,10.39,13.59,16.76,5.82,1.22-1.48-.89-3.62-2.12-2.12-2.06,2.52-5.07,4.27-8.39,2.68s-3.4-6.65-3.3-9.55.08-6,2.11-8.08a6.25,6.25,0,0,1,7-1.43c1.82.66,2.61-2.24.8-2.89Z"/><path d="M820.44,186a24.43,24.43,0,0,0,7.53-1.32l-1.9-1.45-.64,9.36c-.13,1.93,2.87,1.92,3,0l.64-9.36a1.51,1.51,0,0,0-1.9-1.44,21.44,21.44,0,0,1-6.73,1.21c-1.92,0-1.93,3,0,3Z"/><rect class="cls-1" x="145.5" y="43.5" width="52" height="52" rx="26" ry="26" transform="translate(101.44 240.77) rotate(-89.81)"/><path d="M170.89,55,160.67,77.86c-.59,1.31,1.35,2.46,1.94,1.13l10.23-22.86c.58-1.31-1.36-2.46-2-1.14Z"/><path d="M171.52,56.62l12.48,22a1.12,1.12,0,0,0,1.94-1.13l-12.47-22a1.13,1.13,0,0,0-1.95,1.14Z"/><path d="M166,70.21,176.9,68c1.41-.28.81-2.45-.6-2.17L165.43,68c-1.41.29-.81,2.46.6,2.17Z"/><rect class="cls-1" x="57.5" y="127.29" width="52" height="52" rx="26" ry="26" transform="translate(-70.06 236.29) rotate(-89.81)"/><rect class="cls-1" x="0.5" y="214.5" width="52" height="52" rx="26" ry="26" transform="translate(-214.08 266.22) rotate(-89.81)"/><line class="cls-4" x1="68.64" y1="175.03" x2="38.5" y2="217.5"/><line class="cls-4" x1="98.5" y1="174.5" x2="120.5" y2="217.5"/><path d="M76.53,141.27l-1.36,23.54c-.11,1.92,2.89,1.92,3,0l1.36-23.54c.11-1.93-2.89-1.92-3,0Z"/><path d="M79.05,142.82c2.83-.41,10.36-.22,8.65,4.42-1.39,3.76-6.23,3.38-9.46,3-1.92-.2-1.9,2.8,0,3,5.1.54,12.1-.35,12.68-6.77s-8-7.26-12.67-6.58c-1.9.27-1.09,3.16.8,2.89Z"/><path d="M78.71,154.73a16.48,16.48,0,0,1,6.22-.09c2.1.53,4.51,2.53,3.57,4.94-1.5,3.8-8.3,3.63-11.49,3.24-1.91-.24-1.89,2.77,0,3,4.94.6,14.85-.39,14.72-7.35-.14-7.17-8.75-7.34-13.82-6.63-1.9.26-1.09,3.15.8,2.89Z"/><rect class="cls-1" x="241.5" y="127.29" width="52" height="52" rx="26" ry="26" transform="matrix(0, -1, 1, 0, 113.34, 420.29)"/><line class="cls-4" x1="252.64" y1="175.03" x2="222.5" y2="217.5"/><rect class="cls-1" x="483.26" y="228.48" width="52" height="52" rx="26" ry="26" transform="translate(253.13 762.91) rotate(-89.81)"/><line class="cls-4" x1="431.64" y1="199.03" x2="398.34" y2="232.12"/><line class="cls-4" x1="471.83" y1="196.81" x2="506.17" y2="228.82"/><line class="cls-4" x1="148.5" y1="81.5" x2="90.5" y2="128.5"/><line class="cls-4" x1="248.5" y1="135.5" x2="194.51" y2="81.28"/><path d="M271.68,141.4a9.42,9.42,0,0,0-9.58,1.74c-3.58,3.24-3.64,9.4-3.24,13.83.84,9.4,10.39,13.59,16.76,5.82,1.22-1.48-.89-3.62-2.12-2.12-2.06,2.52-5.07,4.27-8.39,2.68s-3.4-6.65-3.3-9.55.08-6,2.11-8.08a6.25,6.25,0,0,1,7-1.43c1.82.66,2.61-2.24.8-2.89Z"/><path d="M20,231c4.84,1.68,11.5,3.36,12.84,9.12,1.92,8.3-6.95,10.45-13.07,10.72-1.92.09-1.93,3.09,0,3,7.28-.33,16-2.63,16.27-11.52s-8.37-11.83-15.24-14.21c-1.83-.64-2.62,2.26-.8,2.89Z"/><path d="M17.89,229.76l-.51,21.78c0,1.93,3,1.93,3,0l.51-21.78c0-1.93-3-1.93-3,0Z"/><rect class="cls-1" x="102.5" y="216.5" width="52" height="52" rx="26" ry="26" transform="translate(-114.42 370.21) rotate(-89.81)"/><path d="M122.21,234.36q6.55-.18,13.06-.92c1.9-.21,1.92-3.21,0-3q-6.51.75-13.06.92c-1.93,0-1.94,3,0,3Z"/><path d="M119.2,232.85c0,4.53.17,9.05.55,13.57.19,2.26-.24,6.68,1.34,8.55,1.29,1.53,4.39,1.49,6.22,1.6a25.86,25.86,0,0,0,10.3-1.65c1.8-.65,1-3.55-.8-2.89a24.54,24.54,0,0,1-7.33,1.55c-4,.19-6.08-.41-6.5-4.63-.54-5.35-.77-10.72-.78-16.1a1.5,1.5,0,0,0-3,0Z"/><path d="M122,245.74a69.32,69.32,0,0,0,13.65-.9c1.9-.31,1.09-3.2-.8-2.89a65.81,65.81,0,0,1-12.85.79c-1.93-.06-1.93,2.94,0,3Z"/><rect class="cls-1" x="190.5" y="216.5" width="52" height="52" rx="26" ry="26" transform="translate(-26.7 458.21) rotate(-89.81)"/><path d="M209.36,231.58l-1,23.24c-.08,1.93,2.92,1.92,3,0l1-23.24c.09-1.93-2.91-1.93-3,0Z"/><path d="M211.61,233a43,43,0,0,0,11.83-.5c1.9-.33,1.09-3.22-.8-2.89a40,40,0,0,1-11,.39c-1.92-.18-1.9,2.82,0,3Z"/><path d="M212.84,241.34l10.49,0a1.5,1.5,0,0,0,0-3l-10.49,0a1.5,1.5,0,0,0,0,3Z"/><path d="M509.15,242.7a126.24,126.24,0,0,0-2.3,21.06c0,1.93,3,1.93,3,0A122.26,122.26,0,0,1,512,243.49c.37-1.88-2.52-2.69-2.89-.79Z"/><path d="M381.75,247q-.3,9.39.19,18.75c.09,1.92,3.09,1.93,3,0q-.48-9.37-.19-18.75c.06-1.93-2.94-1.93-3,0Z"/><path d="M384.19,256.88h12.32a1.5,1.5,0,0,0,0-3H384.19a1.5,1.5,0,0,0,0,3Z"/><path d="M395.37,247.5l.64,16.75c.07,1.93,3.07,1.94,3,0l-.64-16.75c-.08-1.93-3.08-1.94-3,0Z"/></g></g></svg>