<svg xmlns="http://www.w3.org/2000/svg" viewBox="0 0 637.58 144.93"><defs><style>.cls-1{opacity:0.5;}.cls-2{fill:#666;}.cls-3{fill:#d372b4;}.cls-4{fill:#007594;}.cls-4,.cls-6{stroke:#000;stroke-miterlimit:10;}.cls-4,.cls-5{opacity:0.8;}.cls-6{fill:none;}</style></defs><title>자산 17</title><g id="레이어_2" data-name="레이어 2"><g id="레이어_1-2" data-name="레이어 1"><g class="cls-1"><path class="cls-2" d="M585.78,128.54a1.08,1.08,0,0,1,2.16,0,1.08,1.08,0,0,1-2.16,0Zm.28,2.91h1.57v9.23h-1.57Z"/><path class="cls-2" d="M590.74,131.45H592l.14,1.33h.05a4.43,4.43,0,0,1,3.09-1.56c2,0,2.82,1.26,2.82,3.61v5.85h-1.56V135c0-1.73-.52-2.46-1.74-2.46A3.51,3.51,0,0,0,592.3,134v6.68h-1.56Z"/><path class="cls-2" d="M600.43,142.46a2.59,2.59,0,0,1,1.35-2.09v-.08a1.69,1.69,0,0,1-.82-1.51,2.18,2.18,0,0,1,1-1.71V137a3.22,3.22,0,0,1-1.19-2.48,3.28,3.28,0,0,1,3.46-3.29,3.65,3.65,0,0,1,1.3.23h3.23v1.2h-1.9a2.64,2.64,0,0,1,.75,1.9,3.15,3.15,0,0,1-3.38,3.2,3.26,3.26,0,0,1-1.37-.31,1.34,1.34,0,0,0-.59,1.09c0,.59.38,1,1.61,1h1.8c2.15,0,3.23.67,3.23,2.2,0,1.72-1.82,3.19-4.67,3.19C602,144.93,600.43,144.05,600.43,142.46Zm7-.49c0-.85-.65-1.14-1.86-1.14h-1.6a5.27,5.27,0,0,1-1.2-.14,1.93,1.93,0,0,0-.94,1.55c0,1,1,1.62,2.68,1.62S607.39,142.94,607.39,142Zm-1.19-7.46a2,2,0,1,0-3.92,0,2,2,0,1,0,3.92,0Z"/><path class="cls-2" d="M610,142.46a2.59,2.59,0,0,1,1.35-2.09v-.08a1.69,1.69,0,0,1-.82-1.51,2.2,2.2,0,0,1,1-1.71V137a3.22,3.22,0,0,1-1.19-2.48,3.28,3.28,0,0,1,3.46-3.29,3.75,3.75,0,0,1,1.31.23h3.22v1.2h-1.9a2.64,2.64,0,0,1,.75,1.9,3.15,3.15,0,0,1-3.38,3.2,3.3,3.3,0,0,1-1.37-.31,1.34,1.34,0,0,0-.59,1.09c0,.59.38,1,1.62,1h1.79c2.15,0,3.23.67,3.23,2.2,0,1.72-1.82,3.19-4.67,3.19C611.57,144.93,610,144.05,610,142.46Zm7-.49c0-.85-.65-1.14-1.86-1.14h-1.6a5.27,5.27,0,0,1-1.2-.14,1.93,1.93,0,0,0-.94,1.55c0,1,1,1.62,2.68,1.62S617,142.94,617,142Zm-1.18-7.46a2,2,0,1,0-3.93,0,2,2,0,1,0,3.93,0Z"/><path class="cls-2" d="M620,139.73a1.13,1.13,0,1,1,1.13,1.18A1.14,1.14,0,0,1,620,139.73Z"/><path class="cls-2" d="M624.74,128.54a1.08,1.08,0,0,1,2.16,0,1.08,1.08,0,0,1-2.16,0Zm.29,2.91h1.56v9.23H625Z"/><path class="cls-2" d="M629,136.08c0-3.08,2-4.86,4.28-4.86s4.28,1.78,4.28,4.86-2,4.83-4.28,4.83S629,139.14,629,136.08Zm6.94,0c0-2.12-1.07-3.56-2.66-3.56s-2.67,1.44-2.67,3.56,1.08,3.53,2.67,3.53S636,138.2,636,136.08Z"/></g><path class="cls-3" d="M334.25,64.28l23,12.45c1,.51.94,1.36,0,1.89L334.08,91.49c-1.54.85-4.16.28-4.15-.91l.16-25.33C330.1,64.07,332.72,63.45,334.25,64.28Z"/><rect class="cls-4" x="481.5" y="52.5" width="52" height="52" rx="26" ry="26" transform="translate(427.35 585.74) rotate(-89.81)"/><g class="cls-5"><path d="M493,74.37l8-8.14-2.5-1.46a172.67,172.67,0,0,0-2.94,26.44c-.06,1.93,2.94,1.93,3,0a168.47,168.47,0,0,1,2.83-25.64,1.51,1.51,0,0,0-2.51-1.46l-8,8.14c-1.35,1.38.77,3.5,2.13,2.12Z"/></g><rect class="cls-4" x="89.5" y="0.5" width="52" height="52" rx="26" ry="26" transform="translate(88.62 141.91) rotate(-89.81)"/><rect class="cls-4" x="0.5" y="86.29" width="52" height="52" rx="26" ry="26" transform="translate(-85.87 138.42) rotate(-89.81)"/><line class="cls-6" x1="96.5" y1="44.5" x2="44.56" y2="93.35"/><path d="M107.29,28.08a141.63,141.63,0,0,0,17.47-.95c1.42-.17,1.44-2.42,0-2.25a141.63,141.63,0,0,1-17.47.95,1.13,1.13,0,0,0,0,2.25Z"/><rect class="cls-4" x="179.5" y="85.5" width="52" height="52" rx="26" ry="26" transform="translate(93.33 316.63) rotate(-89.81)"/><line class="cls-6" x1="136.5" y1="42.5" x2="192.5" y2="88.5"/><g class="cls-5"><path d="M201,108.16l8-8.14-2.51-1.46A173.93,173.93,0,0,0,203.54,125c-.06,1.93,2.94,1.93,3,0a168.47,168.47,0,0,1,2.83-25.64,1.51,1.51,0,0,0-2.51-1.46l-8,8.14c-1.36,1.38.76,3.5,2.12,2.12Z"/></g><g class="cls-5"><path d="M12,108.16,20,100l-2.51-1.46A173.93,173.93,0,0,0,14.54,125c-.06,1.93,2.94,1.93,3,0a168.47,168.47,0,0,1,2.83-25.64,1.51,1.51,0,0,0-2.51-1.46l-8,8.14c-1.36,1.38.76,3.5,2.12,2.12Z"/></g><g class="cls-5"><path d="M27.8,103.91c2.32-3.8,11.13-4.57,8.38,2.63a8.37,8.37,0,0,1-5.33,4.85l1.9,1.45a7.26,7.26,0,0,1,5,3.68q.46,3.6-2.86,6.17c-1.29.54-5.85,1-6.81-.48s-3.66-.1-2.59,1.52c3.06,4.66,12.83,2.75,14.74-2.24,2.44-6.4-2.51-13.8-9.72-10.54a1.51,1.51,0,0,0-.74,1.3l0,.59a1.51,1.51,0,0,0,1.89,1.45c4.65-1.31,11.27-8.72,7.76-13.66-3.74-5.26-11.34-2.89-14.19,1.77-1,1.65,1.59,3.16,2.59,1.51Z"/></g><g class="cls-5"><path d="M506.77,73.08c.84-2,4.41-7.07,6.17-3.46.69,1.44-.69,6-.91,7.4-.7,4.2-1.35,8.75-3.92,12.26-.95,1.3.84,2.68,2.06,2l14.64-7.64c1.72-.9.2-3.49-1.51-2.59l-14.65,7.64,2.05,2.05c2.74-3.73,3.47-8.5,4.22-13,.48-2.85,2.46-9.32.71-11.85-3.34-4.83-10.55,3.44-11.75,6.31-.74,1.78,2.16,2.56,2.89.8Z"/></g></g></g></svg>