<svg xmlns="http://www.w3.org/2000/svg" viewBox="0 0 479 292.71"><defs><style>.cls-1{opacity:0.5;}.cls-2{fill:#666;}.cls-3{fill:#00aa94;opacity:0.8;}.cls-3,.cls-4{stroke:#000;stroke-miterlimit:10;}.cls-4{fill:none;}.cls-5{font-size:17px;font-family:NanumGothic, Nanum Gothic;}</style></defs><title>자산 13</title><g id="레이어_2" data-name="레이어 2"><g id="레이어_1-2" data-name="레이어 1"><g class="cls-1"><path class="cls-2" d="M424.78,276.32a1.08,1.08,0,0,1,2.16,0,1.08,1.08,0,0,1-2.16,0Zm.29,2.91h1.56v9.23h-1.56Z"/><path class="cls-2" d="M429.74,279.23H431l.13,1.33h.05a4.39,4.39,0,0,1,3.1-1.56c1.94,0,2.82,1.25,2.82,3.61v5.85h-1.57v-5.65c0-1.72-.52-2.45-1.74-2.45a3.5,3.5,0,0,0-2.52,1.41v6.69h-1.57Z"/><path class="cls-2" d="M439.43,290.24a2.58,2.58,0,0,1,1.35-2.09v-.08a1.7,1.7,0,0,1-.82-1.51,2.24,2.24,0,0,1,1-1.72v-.07a3.22,3.22,0,0,1-1.19-2.48,3.28,3.28,0,0,1,3.46-3.29,3.75,3.75,0,0,1,1.31.23h3.22v1.2h-1.9a2.64,2.64,0,0,1,.75,1.9,3.15,3.15,0,0,1-3.38,3.2,3.26,3.26,0,0,1-1.37-.31,1.33,1.33,0,0,0-.59,1.09c0,.59.38,1,1.62,1h1.79c2.15,0,3.23.68,3.23,2.21,0,1.71-1.82,3.19-4.67,3.19C441,292.71,439.43,291.83,439.43,290.24Zm7-.49c0-.85-.65-1.15-1.86-1.15h-1.6a5.29,5.29,0,0,1-1.2-.13,1.93,1.93,0,0,0-.94,1.55c0,1,1,1.61,2.68,1.61S446.39,290.72,446.39,289.75Zm-1.18-7.46a2,2,0,1,0-3.93,0,2,2,0,1,0,3.93,0Z"/><path class="cls-2" d="M449,290.24a2.59,2.59,0,0,1,1.36-2.09v-.08a1.71,1.71,0,0,1-.83-1.51,2.22,2.22,0,0,1,1-1.72v-.07a3.19,3.19,0,0,1-1.2-2.48,3.28,3.28,0,0,1,3.46-3.29,3.75,3.75,0,0,1,1.31.23h3.22v1.2h-1.9a2.65,2.65,0,0,1,.76,1.9,3.16,3.16,0,0,1-3.39,3.2,3.33,3.33,0,0,1-1.37-.31,1.33,1.33,0,0,0-.59,1.09c0,.59.38,1,1.62,1h1.8c2.14,0,3.22.68,3.22,2.21,0,1.71-1.81,3.19-4.67,3.19C450.57,292.71,449,291.83,449,290.24Zm7-.49c0-.85-.65-1.15-1.86-1.15h-1.59a5.17,5.17,0,0,1-1.2-.13,1.94,1.94,0,0,0-.95,1.55c0,1,1,1.61,2.68,1.61S456,290.72,456,289.75Zm-1.18-7.46a2,2,0,1,0-3.93,0,2,2,0,1,0,3.93,0Z"/><path class="cls-2" d="M459,287.51a1.13,1.13,0,1,1,1.13,1.18A1.14,1.14,0,0,1,459,287.51Z"/><path class="cls-2" d="M463.74,276.32a1.08,1.08,0,0,1,2.16,0,1.08,1.08,0,0,1-2.16,0Zm.29,2.91h1.56v9.23H464Z"/><path class="cls-2" d="M468,283.86c0-3.09,2-4.86,4.28-4.86s4.28,1.77,4.28,4.86-2,4.83-4.28,4.83S468,286.91,468,283.86Zm6.94,0c0-2.12-1.07-3.56-2.66-3.56s-2.66,1.44-2.66,3.56,1.07,3.53,2.66,3.53S475,286,475,283.86Z"/></g><rect class="cls-3" x="216.5" y="19.28" width="52" height="52" rx="26" ry="26" transform="translate(196.43 287.63) rotate(-89.81)"/><rect class="cls-3" x="41.5" y="116.07" width="52" height="52" rx="26" ry="26" transform="translate(-74.78 209.11) rotate(-89.81)"/><rect class="cls-3" x="0.5" y="202.28" width="52" height="52" rx="26" ry="26" transform="translate(-201.86 254.04) rotate(-89.81)"/><rect class="cls-3" x="81.5" y="202.28" width="52" height="52" rx="26" ry="26" transform="translate(-121.13 335.03) rotate(-89.81)"/><line class="cls-4" x1="219.5" y1="58.28" x2="77.5" y2="118.28"/><line class="cls-4" x1="267.5" y1="54.28" x2="406.5" y2="117.28"/><line class="cls-4" x1="48.64" y1="159.81" x2="26.5" y2="202.28"/><line class="cls-4" x1="88.83" y1="157.58" x2="107.5" y2="202.28"/><rect class="cls-3" x="216.5" y="116.07" width="52" height="52" rx="26" ry="26" transform="translate(99.65 384.1) rotate(-89.81)"/><rect class="cls-3" x="175.5" y="202.28" width="52" height="52" rx="26" ry="26" transform="translate(-27.43 429.03) rotate(-89.81)"/><rect class="cls-3" x="256.5" y="202.28" width="52" height="52" rx="26" ry="26" transform="translate(53.31 510.03) rotate(-89.81)"/><line class="cls-4" x1="223.64" y1="159.81" x2="201.5" y2="202.28"/><line class="cls-4" x1="263.83" y1="157.58" x2="282.5" y2="202.28"/><rect class="cls-3" x="386.5" y="116.07" width="52" height="52" rx="26" ry="26" transform="translate(269.1 554.1) rotate(-89.81)"/><rect class="cls-3" x="345.5" y="202.28" width="52" height="52" rx="26" ry="26" transform="translate(142.02 599.03) rotate(-89.81)"/><rect class="cls-3" x="426.5" y="202.28" width="52" height="52" rx="26" ry="26" transform="translate(222.75 680.03) rotate(-89.81)"/><line class="cls-4" x1="393.64" y1="159.81" x2="371.5" y2="202.28"/><line class="cls-4" x1="433.83" y1="157.58" x2="452.5" y2="202.28"/><line class="cls-4" x1="243.05" y1="71.43" x2="243.5" y2="116.28"/><text class="cls-5" transform="translate(224.62 13.6)">root</text><text class="cls-5" transform="translate(34 275.6)">terminal</text></g></g></svg>