<svg xmlns="http://www.w3.org/2000/svg" viewBox="0 0 759.58 189"><defs><style>.cls-1{opacity:0.5;}.cls-2,.cls-6{fill:#666;}.cls-3{fill:#00aa94;opacity:0.8;}.cls-3,.cls-4{stroke:#000;stroke-miterlimit:10;}.cls-4{fill:none;}.cls-5{fill:#be202d;}.cls-6{font-size:17px;font-family:NanumGothicExtraBold, Nanum Gothic;font-weight:700;}</style></defs><title>자산 15</title><g id="레이어_2" data-name="레이어 2"><g id="레이어_1-2" data-name="레이어 1"><g class="cls-1"><path class="cls-2" d="M707.78,172.61a1.08,1.08,0,0,1,2.16,0,1.08,1.08,0,0,1-2.16,0Zm.29,2.91h1.56v9.24h-1.56Z"/><path class="cls-2" d="M712.74,175.52H714l.13,1.33h.05a4.43,4.43,0,0,1,3.1-1.56c1.94,0,2.82,1.26,2.82,3.61v5.86h-1.57v-5.65c0-1.72-.52-2.46-1.74-2.46a3.48,3.48,0,0,0-2.52,1.42v6.69h-1.57Z"/><path class="cls-2" d="M722.43,186.53a2.59,2.59,0,0,1,1.35-2.09v-.07a1.72,1.72,0,0,1-.82-1.52,2.22,2.22,0,0,1,1-1.71v-.08a3.22,3.22,0,0,1-1.19-2.48,3.28,3.28,0,0,1,3.46-3.29,3.75,3.75,0,0,1,1.31.23h3.22v1.2h-1.9a2.66,2.66,0,0,1,.75,1.9,3.33,3.33,0,0,1-4.75,2.89,1.34,1.34,0,0,0-.59,1.09c0,.59.38,1,1.62,1h1.79c2.15,0,3.23.67,3.23,2.2,0,1.72-1.82,3.19-4.67,3.19C724,189,722.43,188.12,722.43,186.53Zm7-.48c0-.86-.65-1.15-1.86-1.15h-1.6a5.27,5.27,0,0,1-1.2-.14,1.93,1.93,0,0,0-.94,1.55c0,1,1,1.62,2.68,1.62S729.39,187,729.39,186.05Zm-1.18-7.47a2,2,0,1,0-3.93,0,2,2,0,1,0,3.93,0Z"/><path class="cls-2" d="M732,186.53a2.6,2.6,0,0,1,1.36-2.09v-.07a1.73,1.73,0,0,1-.83-1.52,2.22,2.22,0,0,1,1-1.71v-.08a3.22,3.22,0,0,1-1.19-2.48,3.28,3.28,0,0,1,3.46-3.29,3.75,3.75,0,0,1,1.31.23h3.22v1.2h-1.9a2.67,2.67,0,0,1,.76,1.9,3.34,3.34,0,0,1-4.76,2.89,1.34,1.34,0,0,0-.59,1.09c0,.59.38,1,1.62,1h1.8c2.14,0,3.22.67,3.22,2.2,0,1.72-1.81,3.19-4.67,3.19C733.57,189,732,188.12,732,186.53Zm7-.48c0-.86-.65-1.15-1.86-1.15h-1.59a5.21,5.21,0,0,1-1.2-.14,1.93,1.93,0,0,0-.94,1.55c0,1,1,1.62,2.67,1.62S739,187,739,186.05Zm-1.18-7.47a2,2,0,1,0-3.93,0,2,2,0,1,0,3.93,0Z"/><path class="cls-2" d="M742,183.8A1.13,1.13,0,1,1,743.1,185,1.14,1.14,0,0,1,742,183.8Z"/><path class="cls-2" d="M746.74,172.61a1.08,1.08,0,0,1,2.16,0,1.08,1.08,0,0,1-2.16,0Zm.29,2.91h1.56v9.24H747Z"/><path class="cls-2" d="M751,180.15c0-3.08,2-4.86,4.28-4.86s4.28,1.78,4.28,4.86-2,4.83-4.28,4.83S751,183.21,751,180.15Zm6.94,0c0-2.12-1.07-3.56-2.66-3.56s-2.66,1.44-2.66,3.56,1.07,3.53,2.66,3.53S758,182.27,758,180.15Z"/></g><rect class="cls-3" x="347.5" y="24.57" width="52" height="52" rx="26" ry="26" transform="translate(321.71 423.91) rotate(-89.81)"/><rect class="cls-3" x="265.5" y="107.57" width="52" height="52" rx="26" ry="26" transform="translate(156.98 424.64) rotate(-89.81)"/><rect class="cls-3" x="433.5" y="107.57" width="52" height="52" rx="26" ry="26" transform="translate(324.44 592.63) rotate(-89.81)"/><line class="cls-4" x1="350.5" y1="62.57" x2="299.5" y2="108.57"/><line class="cls-4" x1="445.5" y1="111.57" x2="396.51" y2="62.35"/><path d="M281.74,122.07q-.21,10.6.27,21.21a1.14,1.14,0,0,0,1.42,1.09,101.9,101.9,0,0,1,14.69-1.32,1.13,1.13,0,0,0,0-2.25,107.29,107.29,0,0,0-15.29,1.4l1.43,1.08q-.48-10.6-.27-21.21a1.13,1.13,0,0,0-2.25,0Z"/><path d="M452.69,122.73l-2.14,21.78c-.14,1.44,2.11,1.43,2.25,0l2.14-21.78c.14-1.44-2.11-1.43-2.25,0Z"/><path d="M454,123.53c2.9,0,7.85-1.11,8.79,2.38s-5,7.54-8.14,6.11c-1.3-.59-2.45,1.3-1.13,1.95,4.79,2.36,7.88,7.28,12.86,9.07,1.37.49,2-1.68.6-2.17-2.81-1-4.53-3.41-6.74-5.27a26.85,26.85,0,0,0-5.59-3.58L453.5,134c4,1.81,10.46-1.41,11.57-5.74.46-1.81-.11-5-1.66-6.25-2.14-1.74-6.93-.72-9.43-.7a1.13,1.13,0,0,0,0,2.25Z"/><path d="M378.15,36.4c-3.53-.39-9.67.73-12,3.78-2.59,3.37-2.56,10.54-.85,14.24,3.28,7.07,13.5,8.73,18.14,2.2.84-1.19-1.11-2.31-1.95-1.14-4.87,6.87-14.53,1.44-15-5.62-.19-2.75.14-6.08,1.93-8.18,2.13-2.49,6.61-3.37,9.73-3,1.44.16,1.43-2.09,0-2.25Z"/><rect class="cls-3" x="616.5" y="24.57" width="52" height="52" rx="26" ry="26" transform="translate(589.84 692.9) rotate(-89.81)"/><rect class="cls-3" x="534.5" y="107.57" width="52" height="52" rx="26" ry="26" transform="translate(425.11 693.63) rotate(-89.81)"/><rect class="cls-3" x="702.5" y="107.57" width="52" height="52" rx="26" ry="26" transform="translate(592.56 861.63) rotate(-89.81)"/><line class="cls-4" x1="619.5" y1="62.57" x2="568.5" y2="108.57"/><line class="cls-4" x1="714.5" y1="111.57" x2="665.51" y2="62.35"/><path d="M550.74,122.07q-.21,10.6.27,21.21a1.14,1.14,0,0,0,1.42,1.09,101.9,101.9,0,0,1,14.69-1.32,1.13,1.13,0,0,0,0-2.25,107.29,107.29,0,0,0-15.29,1.4l1.43,1.08q-.48-10.6-.27-21.21a1.13,1.13,0,0,0-2.25,0Z"/><path d="M721.69,122.73l-2.14,21.78c-.14,1.44,2.11,1.43,2.25,0l2.14-21.78c.14-1.44-2.11-1.43-2.25,0Z"/><path d="M723,123.53c2.9,0,7.85-1.11,8.79,2.38s-5,7.54-8.14,6.11c-1.3-.59-2.45,1.3-1.13,1.95,4.79,2.36,7.88,7.28,12.86,9.07,1.37.49,2-1.68.6-2.17-2.81-1-4.53-3.41-6.74-5.27a26.85,26.85,0,0,0-5.59-3.58L722.5,134c4,1.81,10.46-1.41,11.57-5.74.46-1.81-.11-5-1.66-6.25-2.14-1.74-6.93-.72-9.43-.7a1.13,1.13,0,0,0,0,2.25Z"/><path d="M647.15,36.4c-3.53-.39-9.67.73-12,3.78-2.59,3.37-2.56,10.54-.85,14.24,3.28,7.07,13.5,8.73,18.14,2.2.84-1.19-1.11-2.31-2-1.14-4.87,6.87-14.53,1.44-15-5.62-.19-2.75.14-6.08,1.93-8.18,2.13-2.49,6.61-3.37,9.73-3,1.44.16,1.43-2.09,0-2.25Z"/><rect class="cls-3" x="82.5" y="24.57" width="52" height="52" rx="26" ry="26" transform="translate(57.58 158.91) rotate(-89.81)"/><rect class="cls-3" x="0.5" y="107.57" width="52" height="52" rx="26" ry="26" transform="translate(-107.16 159.64) rotate(-89.81)"/><rect class="cls-3" x="168.5" y="107.57" width="52" height="52" rx="26" ry="26" transform="translate(60.3 327.64) rotate(-89.81)"/><line class="cls-4" x1="85.5" y1="62.57" x2="34.5" y2="108.57"/><line class="cls-4" x1="180.5" y1="111.57" x2="131.51" y2="62.35"/><path d="M16.74,122.07q-.21,10.6.27,21.21a1.14,1.14,0,0,0,1.42,1.09,101.9,101.9,0,0,1,14.69-1.32,1.13,1.13,0,0,0,0-2.25,107.29,107.29,0,0,0-15.29,1.4l1.43,1.08q-.48-10.6-.27-21.21a1.13,1.13,0,0,0-2.25,0Z"/><path d="M187.69,122.73l-2.14,21.78c-.14,1.44,2.11,1.43,2.25,0l2.14-21.78c.14-1.44-2.11-1.43-2.25,0Z"/><path d="M189,123.53c2.9,0,7.85-1.11,8.79,2.38s-5,7.54-8.14,6.11c-1.3-.59-2.45,1.3-1.13,1.95,4.79,2.36,7.88,7.28,12.86,9.07,1.37.49,2-1.68.6-2.17-2.81-1-4.53-3.41-6.74-5.27a26.85,26.85,0,0,0-5.59-3.58L188.5,134c4,1.81,10.46-1.41,11.57-5.74.46-1.81-.11-5-1.66-6.25-2.14-1.74-6.93-.72-9.43-.7a1.13,1.13,0,0,0,0,2.25Z"/><path d="M113.15,36.4c-3.53-.39-9.67.73-12,3.78-2.59,3.37-2.56,10.54-.85,14.24,3.28,7.07,13.5,8.73,18.14,2.2.84-1.19-1.11-2.31-2-1.14-4.87,6.87-14.53,1.44-15-5.62-.19-2.75.14-6.08,1.93-8.18,2.13-2.49,6.61-3.37,9.73-3,1.44.16,1.43-2.09,0-2.25Z"/><path class="cls-5" d="M350,129.29a232.75,232.75,0,0,1,22.53-31.82h-2.12a103.89,103.89,0,0,1,23.93,29.39c.93,1.7,3.52.18,2.59-1.51a106,106,0,0,0-24.4-30,1.52,1.52,0,0,0-2.12,0,236.51,236.51,0,0,0-23,32.42,1.5,1.5,0,0,0,2.59,1.52Z"/><path class="cls-5" d="M623.16,136.74a237.42,237.42,0,0,0,39.37.47,1.53,1.53,0,0,0,1.5-1.5,107.36,107.36,0,0,0-10-37.77c-.83-1.75-3.41-.23-2.59,1.51A103.17,103.17,0,0,1,661,135.71l1.5-1.5a237.42,237.42,0,0,1-39.37-.47c-1.92-.19-1.91,2.82,0,3Z"/><path class="cls-5" d="M131.31,131a237.42,237.42,0,0,1-39.37-.2l1.5,1.5a103.2,103.2,0,0,1,10.24-36.09c.85-1.72-1.73-3.24-2.59-1.51a107.12,107.12,0,0,0-10.65,37.6c-.08.85.76,1.43,1.5,1.5a237.42,237.42,0,0,0,39.37.2c1.92-.15,1.93-3.15,0-3Z"/><path class="cls-5" d="M390.9,127.88l6.06,3a1.52,1.52,0,0,0,2.26-1.29,29.81,29.81,0,0,1,.64-6.46c.46-1.87-2.43-2.67-2.89-.79a33.93,33.93,0,0,0-.75,7.25l2.25-1.3-6.06-3c-1.72-.86-3.24,1.73-1.51,2.59Z"/><path class="cls-5" d="M656.75,97l-6.34-2.36a1.51,1.51,0,0,0-1.9,1.45,31.74,31.74,0,0,1,0,6.89c-.25,1.9,2.75,1.89,3,0a31.74,31.74,0,0,0,0-6.89l-1.9,1.44L656,99.86c1.81.68,2.59-2.22.79-2.89Z"/><path class="cls-5" d="M130.44,137.58l4.75-4.83a1.52,1.52,0,0,0-.67-2.5,30,30,0,0,1-5.94-2.64c-1.65-1-3.15,1.58-1.51,2.59a33.56,33.56,0,0,0,6.66,2.94l-.67-2.51-4.74,4.83c-1.35,1.38.77,3.5,2.12,2.12Z"/><text class="cls-6" transform="translate(339.59 13.6)">중위 순회</text><text class="cls-6" transform="translate(607.59 13.6)">후위 순회</text><text class="cls-6" transform="translate(71.59 13.6)">전위 순회</text></g></g></svg>